<svg xmlns="http://www.w3.org/2000/svg" xmlns:xlink="http://www.w3.org/1999/xlink" width="242" height="90" viewBox="0 0 242 90">
  <defs>
    <clipPath id="clip-path">
      <rect id="Rectangle_30" data-name="Rectangle 30" width="60.448" height="59.876" fill="none"/>
    </clipPath>
  </defs>
  <g id="Group_117" data-name="Group 117" transform="translate(-393 -7692)">
    <g id="bg_white" transform="translate(393 7692)" fill="#fff" stroke="#e7f2f5" stroke-width="2">
      <rect width="242" height="90" stroke="none"/>
      <rect x="1" y="1" width="240" height="88" fill="none"/>
    </g>
    <g id="Group_41" data-name="Group 41" transform="translate(483.812 7707)">
      <path id="Path_829" data-name="Path 829" d="M0,312.594v1.05H1.7v4.628H2.95v-4.628h1.7v-1.05Z" transform="translate(0 -265.95)" fill="#333376"/>
      <path id="Path_830" data-name="Path 830" d="M27.491,312.594h1.28l2.123,5.678H29.6l-.429-1.264H27.045l-.445,1.264H25.336Zm-.119,3.483h1.471l-.716-2.083h-.016Z" transform="translate(-21.555 -265.949)" fill="#333376"/>
      <g id="Group_40" data-name="Group 40">
        <g id="Group_39" data-name="Group 39" clip-path="url(#clip-path)">
          <path id="Path_831" data-name="Path 831" d="M67.917,316.483a1.883,1.883,0,0,1-3.761.167v-.493h1.129v.255c0,.548.135.946.723.946.66,0,.66-.525.66-.93v-3.833h1.248Z" transform="translate(-54.583 -265.949)" fill="#333376"/>
          <rect id="Rectangle_29" data-name="Rectangle 29" width="1.248" height="5.678" transform="translate(14.025 46.645)" fill="#333376"/>
          <path id="Path_832" data-name="Path 832" d="M107.153,312.594h1.757l1.328,3.9h.016l1.256-3.9h1.757v5.678H112.1v-4.023h-.016l-1.391,4.023h-.962l-1.391-3.984h-.016v3.984h-1.169Z" transform="translate(-91.163 -265.949)" fill="#333376"/>
          <path id="Path_833" data-name="Path 833" d="M154.45,312.594h1.28l2.123,5.678h-1.3l-.429-1.264H154l-.445,1.264H152.3Zm-.119,3.483H155.8l-.716-2.083h-.016Z" transform="translate(-129.57 -265.949)" fill="#333376"/>
          <path id="Path_834" data-name="Path 834" d="M231.773,316.858a1.909,1.909,0,0,1-1.558.779,2.98,2.98,0,0,1,0-5.948,2.27,2.27,0,0,1,2.393,2h-1.192a1.157,1.157,0,0,0-1.2-.954c-1.121,0-1.543.954-1.543,1.948,0,.946.422,1.9,1.543,1.9a1.221,1.221,0,0,0,1.352-1.224H230.31v-.93H232.7V317.5h-.8Z" transform="translate(-193.488 -265.179)" fill="#333376"/>
          <path id="Path_835" data-name="Path 835" d="M267.31,312.594h1.248v4.628h2.767v1.049H267.31Z" transform="translate(-227.423 -265.949)" fill="#333376"/>
          <path id="Path_836" data-name="Path 836" d="M300.434,312.594h1.28l2.123,5.678h-1.3l-.429-1.264h-2.123l-.443,1.264h-1.264Zm-.119,3.483h1.471l-.716-2.083h-.016Z" transform="translate(-253.772 -265.949)" fill="#333376"/>
          <path id="Path_837" data-name="Path 837" d="M337.646,315.618c0,.755.586,1.049,1.254,1.049.437,0,1.105-.127,1.105-.708,0-.62-.859-.707-1.684-.938-.843-.207-1.694-.565-1.694-1.614,0-1.169,1.1-1.717,2.121-1.717,1.185,0,2.274.517,2.274,1.829h-1.209c-.04-.676-.517-.859-1.121-.859-.4,0-.857.167-.857.644,0,.437.268.5,1.692.859.422.1,1.686.374,1.686,1.654,0,1.042-.811,1.821-2.362,1.821-1.254,0-2.44-.62-2.416-2.02Z" transform="translate(-286.234 -265.18)" fill="#333376"/>
          <path id="Path_838" data-name="Path 838" d="M374.275,315.618c0,.755.589,1.049,1.257,1.049.437,0,1.105-.127,1.105-.708,0-.62-.859-.707-1.686-.938-.843-.207-1.694-.565-1.694-1.614,0-1.169,1.1-1.717,2.123-1.717,1.185,0,2.275.517,2.275,1.829h-1.209c-.04-.676-.517-.859-1.121-.859-.4,0-.859.167-.859.644,0,.437.27.5,1.694.859.422.1,1.686.374,1.686,1.654,0,1.042-.811,1.821-2.362,1.821-1.257,0-2.442-.62-2.418-2.02Z" transform="translate(-317.397 -265.18)" fill="#333376"/>
          <path id="Path_839" data-name="Path 839" d="M86.377,0a21.424,21.424,0,0,0-2.35,42.718l.243.026V41.482l-.194-.022A20.166,20.166,0,0,1,67.522,14.268H85.75V52.462h1.255V14.268h18.229A20.168,20.168,0,0,1,88.679,41.46l-.194.022v1.262l.242-.026A21.424,21.424,0,0,0,86.377,0M68.049,13.013a20.166,20.166,0,0,1,36.659,0Z" transform="translate(-55.262)" fill="#333376"/>
          <path id="Path_840" data-name="Path 840" d="M131.012,375.192l-.706.02c-.275.01-.389.035-.46.144a.606.606,0,0,0-.081.174c-.009.04-.024.06-.052.06s-.043-.025-.043-.08c0-.08.09-.533.1-.573.014-.065.028-.095.057-.095a1.05,1.05,0,0,0,.2.06,4.722,4.722,0,0,0,.474.025h1.877a2.157,2.157,0,0,0,.327-.025,1.128,1.128,0,0,1,.128-.025c.033,0,.038.03.038.1,0,.1-.014.448-.014.578,0,.05-.014.08-.043.08s-.047-.025-.052-.1l0-.055c-.01-.13-.138-.269-.559-.279l-.6-.015v2.043c0,.458,0,.852.024,1.066.014.139.043.249.185.269a1.918,1.918,0,0,0,.242.02c.052,0,.076.015.076.04s-.038.05-.09.05c-.313,0-.611-.015-.744-.015-.109,0-.408.015-.6.015-.062,0-.095-.015-.095-.05s.019-.04.076-.04a.74.74,0,0,0,.171-.02c.095-.02.123-.13.138-.274.024-.209.024-.6.024-1.061Z" transform="translate(-110.322 -318.91)" fill="#333376"/>
          <path id="Path_841" data-name="Path 841" d="M131.012,375.192l-.706.02c-.275.01-.389.035-.46.144a.606.606,0,0,0-.081.174c-.009.04-.024.06-.052.06s-.043-.025-.043-.08c0-.08.09-.533.1-.573.014-.065.028-.095.057-.095a1.05,1.05,0,0,0,.2.06,4.722,4.722,0,0,0,.474.025h1.877a2.157,2.157,0,0,0,.327-.025,1.128,1.128,0,0,1,.128-.025c.033,0,.038.03.038.1,0,.1-.014.448-.014.578,0,.05-.014.08-.043.08s-.047-.025-.052-.1l0-.055c-.01-.13-.138-.269-.559-.279l-.6-.015v2.043c0,.458,0,.852.024,1.066.014.139.043.249.185.269a1.918,1.918,0,0,0,.242.02c.052,0,.076.015.076.04s-.038.05-.09.05c-.313,0-.611-.015-.744-.015-.109,0-.408.015-.6.015-.062,0-.095-.015-.095-.05s.019-.04.076-.04a.74.74,0,0,0,.171-.02c.095-.02.123-.13.138-.274.024-.209.024-.6.024-1.061Z" transform="translate(-110.322 -318.91)" fill="none" stroke="#333376" stroke-miterlimit="10" stroke-width="0.5"/>
          <path id="Path_842" data-name="Path 842" d="M159.936,376.8a1.874,1.874,0,0,1,1.957-1.953,1.757,1.757,0,0,1,1.914,1.863,1.923,1.923,0,0,1-1.962,2.042,1.855,1.855,0,0,1-1.91-1.953m3.208.094c0-1.116-.611-1.808-1.388-1.808-.545,0-1.166.319-1.166,1.559,0,1.036.545,1.858,1.455,1.858.332,0,1.1-.169,1.1-1.609" transform="translate(-136.071 -318.91)" fill="#333376"/>
          <path id="Path_843" data-name="Path 843" d="M166.873,378.253c0-1.116-.611-1.808-1.388-1.808-.545,0-1.166.319-1.166,1.559,0,1.036.545,1.858,1.455,1.858C166.105,379.862,166.873,379.693,166.873,378.253Z" transform="translate(-139.8 -320.272)" fill="none" stroke="#333376" stroke-miterlimit="10" stroke-width="0.5"/>
          <path id="Path_844" data-name="Path 844" d="M159.937,376.8a1.874,1.874,0,0,1,1.957-1.953,1.757,1.757,0,0,1,1.914,1.863,1.923,1.923,0,0,1-1.962,2.042A1.855,1.855,0,0,1,159.937,376.8Z" transform="translate(-136.071 -318.91)" fill="none" stroke="#333376" stroke-miterlimit="10" stroke-width="0.5"/>
          <path id="Path_845" data-name="Path 845" d="M195.765,376.975h.024c.161-.184.853-.926.99-1.1s.237-.289.237-.374c0-.055-.019-.089-.067-.1s-.062-.02-.062-.05.024-.045.076-.045c.1,0,.36.015.488.015.147,0,.408-.015.554-.015.047,0,.081.01.081.045s-.024.045-.071.045a.887.887,0,0,0-.275.055,1.52,1.52,0,0,0-.512.374c-.147.15-.863.9-1.023,1.076.171.234,1.1,1.285,1.284,1.47a2.255,2.255,0,0,0,.678.538.788.788,0,0,0,.294.075c.033,0,.062.01.062.04s-.024.05-.114.05H198a3.14,3.14,0,0,1-.327-.01.918.918,0,0,1-.587-.324c-.209-.194-1.142-1.345-1.241-1.489l-.052-.075h-.024v.453c0,.458,0,.852.014,1.066.01.139.052.249.171.269a1.929,1.929,0,0,0,.232.02c.038,0,.062.015.062.04s-.038.05-.09.05c-.265,0-.564-.015-.682-.015s-.408.015-.6.015c-.061,0-.095-.015-.095-.05s.019-.04.076-.04a.744.744,0,0,0,.171-.02c.095-.02.118-.13.137-.274.024-.209.024-.6.024-1.061v-.877c0-.757,0-.9-.01-1.056s-.047-.249-.2-.284a.9.9,0,0,0-.185-.015c-.052,0-.081-.01-.081-.045s.033-.045.1-.045c.251,0,.55.015.663.015s.412-.015.573-.015c.066,0,.1.01.1.045s-.028.045-.066.045a.649.649,0,0,0-.133.015c-.128.025-.166.11-.175.284s-.009.3-.009,1.056Z" transform="translate(-165.654 -319.308)" fill="#333376"/>
          <path id="Path_846" data-name="Path 846" d="M195.765,376.975h.024c.161-.184.853-.926.99-1.1s.237-.289.237-.374c0-.055-.019-.089-.067-.1s-.062-.02-.062-.05.024-.045.076-.045c.1,0,.36.015.488.015.147,0,.408-.015.554-.015.047,0,.081.01.081.045s-.024.045-.071.045a.887.887,0,0,0-.275.055,1.52,1.52,0,0,0-.512.374c-.147.15-.863.9-1.023,1.076.171.234,1.1,1.285,1.284,1.47a2.255,2.255,0,0,0,.678.538.788.788,0,0,0,.294.075c.033,0,.062.01.062.04s-.024.05-.114.05H198a3.14,3.14,0,0,1-.327-.01.918.918,0,0,1-.587-.324c-.209-.194-1.142-1.345-1.241-1.489l-.052-.075h-.024v.453c0,.458,0,.852.014,1.066.01.139.052.249.171.269a1.929,1.929,0,0,0,.232.02c.038,0,.062.015.062.04s-.038.05-.09.05c-.265,0-.564-.015-.682-.015s-.408.015-.6.015c-.061,0-.095-.015-.095-.05s.019-.04.076-.04a.744.744,0,0,0,.171-.02c.095-.02.118-.13.137-.274.024-.209.024-.6.024-1.061v-.877c0-.757,0-.9-.01-1.056s-.047-.249-.2-.284a.9.9,0,0,0-.185-.015c-.052,0-.081-.01-.081-.045s.033-.045.1-.045c.251,0,.55.015.663.015s.412-.015.573-.015c.066,0,.1.01.1.045s-.028.045-.066.045a.649.649,0,0,0-.133.015c-.128.025-.166.11-.175.284s-.009.3-.009,1.056Z" transform="translate(-165.654 -319.308)" fill="none" stroke="#333376" stroke-miterlimit="10" stroke-width="0.5"/>
          <path id="Path_847" data-name="Path 847" d="M230.509,377.787a1.1,1.1,0,0,0-.109-.523c-.033-.08-.668-1.176-.834-1.435a1.2,1.2,0,0,0-.327-.364.466.466,0,0,0-.2-.064c-.038,0-.071-.01-.071-.045s.033-.045.09-.045c.085,0,.441.015.6.015.1,0,.294-.015.507-.015.047,0,.071.015.071.045s-.033.035-.1.055a.089.089,0,0,0-.066.09.475.475,0,0,0,.057.169c.066.149.73,1.35.806,1.49.047-.12.644-1.216.711-1.37a.677.677,0,0,0,.066-.259.118.118,0,0,0-.1-.125c-.043-.01-.085-.02-.085-.05s.024-.045.081-.045c.156,0,.308.015.445.015.1,0,.417-.015.507-.015.052,0,.085.01.085.04s-.038.05-.09.05a.492.492,0,0,0-.208.06.719.719,0,0,0-.256.244,16.108,16.108,0,0,0-.9,1.584,1.244,1.244,0,0,0-.071.5v.409c0,.079,0,.289.015.5.009.144.052.254.194.274a1.9,1.9,0,0,0,.237.02c.052,0,.076.015.076.04s-.038.05-.1.05c-.3,0-.6-.015-.725-.015s-.417.015-.592.015c-.066,0-.1-.01-.1-.05,0-.025.024-.04.076-.04a.721.721,0,0,0,.166-.02c.095-.02.137-.13.147-.274.014-.209.014-.419.014-.5Z" transform="translate(-194.803 -319.308)" fill="#333376"/>
          <path id="Path_848" data-name="Path 848" d="M230.509,377.787a1.1,1.1,0,0,0-.109-.523c-.033-.08-.668-1.176-.834-1.435a1.2,1.2,0,0,0-.327-.364.466.466,0,0,0-.2-.064c-.038,0-.071-.01-.071-.045s.033-.045.09-.045c.085,0,.441.015.6.015.1,0,.294-.015.507-.015.047,0,.071.015.071.045s-.033.035-.1.055a.089.089,0,0,0-.066.09.475.475,0,0,0,.057.169c.066.149.73,1.35.806,1.49.047-.12.644-1.216.711-1.37a.677.677,0,0,0,.066-.259.118.118,0,0,0-.1-.125c-.043-.01-.085-.02-.085-.05s.024-.045.081-.045c.156,0,.308.015.445.015.1,0,.417-.015.507-.015.052,0,.085.01.085.04s-.038.05-.09.05a.492.492,0,0,0-.208.06.719.719,0,0,0-.256.244,16.108,16.108,0,0,0-.9,1.584,1.244,1.244,0,0,0-.071.5v.409c0,.079,0,.289.015.5.009.144.052.254.194.274a1.9,1.9,0,0,0,.237.02c.052,0,.076.015.076.04s-.038.05-.1.05c-.3,0-.6-.015-.725-.015s-.417.015-.592.015c-.066,0-.1-.01-.1-.05,0-.025.024-.04.076-.04a.721.721,0,0,0,.166-.02c.095-.02.137-.13.147-.274.014-.209.014-.419.014-.5Z" transform="translate(-194.803 -319.308)" fill="none" stroke="#333376" stroke-miterlimit="10" stroke-width="0.5"/>
          <path id="Path_849" data-name="Path 849" d="M262.365,376.8a1.874,1.874,0,0,1,1.957-1.953,1.758,1.758,0,0,1,1.915,1.863,1.924,1.924,0,0,1-1.963,2.042,1.855,1.855,0,0,1-1.91-1.953m3.208.094c0-1.116-.61-1.808-1.389-1.808-.545,0-1.166.319-1.166,1.559,0,1.036.545,1.858,1.455,1.858.332,0,1.1-.169,1.1-1.609" transform="translate(-223.215 -318.91)" fill="#333376"/>
          <path id="Path_850" data-name="Path 850" d="M269.3,378.253c0-1.116-.61-1.808-1.389-1.808-.545,0-1.166.319-1.166,1.559,0,1.036.545,1.858,1.455,1.858C268.534,379.862,269.3,379.693,269.3,378.253Z" transform="translate(-226.943 -320.272)" fill="none" stroke="#333376" stroke-miterlimit="10" stroke-width="0.5"/>
          <path id="Path_851" data-name="Path 851" d="M262.365,376.8a1.874,1.874,0,0,1,1.957-1.953,1.758,1.758,0,0,1,1.915,1.863,1.924,1.924,0,0,1-1.963,2.042A1.855,1.855,0,0,1,262.365,376.8Z" transform="translate(-223.215 -318.91)" fill="none" stroke="#333376" stroke-miterlimit="10" stroke-width="0.5"/>
        </g>
      </g>
    </g>
  </g>
</svg>
