<svg xmlns="http://www.w3.org/2000/svg" xmlns:xlink="http://www.w3.org/1999/xlink" width="242" height="90" viewBox="0 0 242 90">
  <defs>
    <clipPath id="clip-path">
      <rect id="Rectangle_34" data-name="Rectangle 34" width="189.668" height="32" fill="none"/>
    </clipPath>
  </defs>
  <g id="Group_99" data-name="Group 99" transform="translate(-897.25 -7096)">
    <g id="bg_white" transform="translate(897.25 7096)" fill="#fff" stroke="#e7f2f5" stroke-width="2">
      <rect width="242" height="90" stroke="none"/>
      <rect x="1" y="1" width="240" height="88" fill="none"/>
    </g>
    <g id="Group_45" data-name="Group 45" transform="translate(923.196 7125)">
      <g id="Group_44" data-name="Group 44" transform="translate(0 0)" clip-path="url(#clip-path)">
        <path id="Path_852" data-name="Path 852" d="M24.82,7.661A8.213,8.213,0,0,0,8.43,7.678c-.062,0-.118-.017-.178-.017a8.254,8.254,0,0,0,0,16.508c.053,0,.1-.014.161-.018a8.221,8.221,0,0,0,16.424.014A8.253,8.253,0,0,0,24.82,7.661m-15.987,13a4.737,4.737,0,1,1,4.732-4.744,4.74,4.74,0,0,1-4.732,4.744m7.734,7.436a4.73,4.73,0,0,1-.833-9.386v-5.58a4.736,4.736,0,1,1,1.67,0v5.58a4.729,4.729,0,0,1-.837,9.386m7.741-7.436a4.737,4.737,0,1,1,4.737-4.744,4.744,4.744,0,0,1-4.737,4.744" transform="translate(0 0)" fill="#302d2c"/>
        <path id="Path_853" data-name="Path 853" d="M56.074,22.672A16.961,16.961,0,0,0,58.8,15.893l2.3.857c-.06.166-.18.271-.571.256a13.522,13.522,0,0,1-4.313,5.847ZM62.4,11.941l2.3.195c-.015.211-.09.317-.616.391V23.71c0,1.127-.3,2-2.48,2.224,0-1.247-.646-1.518-2.254-1.713v-.2h2.69c.271,0,.361-.1.361-.346Zm3.608,4.178c3.246,1.668,4.283,3.667,4.283,4.99,0,.827-.435,1.383-.976,1.383a1.153,1.153,0,0,1-.781-.362,10.77,10.77,0,0,0-2.691-5.906Z" transform="translate(-13.297 -2.832)" fill="#302d2c"/>
        <path id="Path_854" data-name="Path 854" d="M93.266,13.162l1.728,1.277a1.283,1.283,0,0,1-.631.316V25.261a2.073,2.073,0,0,1-1.623.511V24.555H83.977v.706c0,.045-.18.661-1.578.661v-12.6l1.713.722h8.477Zm-5.757,1.187H83.977v4.765h3.532Zm-3.532,9.905h3.532v-4.84H83.977Zm8.763-9.905H89.1v4.765H92.74ZM89.1,24.254H92.74v-4.84H89.1Z" transform="translate(-19.539 -3.121)" fill="#302d2c"/>
        <path id="Path_855" data-name="Path 855" d="M110.2,11.919l1.488,1.533a.889.889,0,0,1-.661.181c-.481.871-1.382,2.51-2.028,3.457,1.652,1.112,2.359,2.195,2.359,3.517a2.132,2.132,0,0,1-2.208,2.451c0-1.068-.272-1.189-.887-1.323v-.2h.977a.442.442,0,0,0,.316-.091c.2-.136.3-.5.3-1.007a5.149,5.149,0,0,0-1.143-3.306c.226-.977.587-2.871.782-4.028h-1.383V25.386c0,.121-.466.5-1.2.5h-.271V12.159l1.668.646h1.067Zm8.447,1.472,1.578,1.278a1.071,1.071,0,0,1-.631.286c-.06,6.748-.136,9.453-.857,10.22a2.348,2.348,0,0,1-1.893.722c0-.872-.106-1.233-1.518-1.488v-.24c.526.03,1.352.045,1.713.045a.554.554,0,0,0,.5-.18c.481-.511.556-3.457.6-9.455h-4.78a7.749,7.749,0,0,1-.481.692l1.429.421c-.045.18-.181.271-.526.255-.15.317-.3.617-.466.9h2.119l.677-.841,1.263.886c-.105.2-.3.256-.676.256h-1.609V19.1h.647l.661-.9,1.247.932c-.105.21-.3.255-.676.255h-1.879V22.56h.872V20.305l1.549.121c-.016.15-.106.225-.422.255V23.3c0,.016-.2.331-1.127.331v-.767h-3.022v.917c0,.014-.211.346-1.127.346V20.276l1.533.135c-.014.15-.105.226-.406.256V22.56h.873V19.388h-2.421l-.09-.285h2.511V17.149h-.692a6.243,6.243,0,0,1-1.337,1.594l-.226-.121a13,13,0,0,0,.857-2.781,8.855,8.855,0,0,1-1.864,1.684l-.195-.151a16.055,16.055,0,0,0,2.374-5.651l2.225.737c-.076.18-.211.285-.6.271a11.484,11.484,0,0,1-.812,1.548h4.42Z" transform="translate(-25.287 -2.78)" fill="#302d2c"/>
        <path id="Path_856" data-name="Path 856" d="M144.7,18.36c-.105.211-.285.27-.706.27H139.2a10.119,10.119,0,0,0,5.62,2.029l-.014.166a1.853,1.853,0,0,0-.676,1.518c-.256-.076-.511-.166-.751-.256v3.292c0,.031-.421.376-1.5.376v-.8h-2.029v.406c0,.015-.211.526-1.473.526V20.7l1.534.647h1.819a8.085,8.085,0,0,1-2.871-2.721h-2.194a10.387,10.387,0,0,1-3.383,2.646l.181.076h1.713l.587-.767,1.607,1.128a.964.964,0,0,1-.571.3v3.246c0,.03-.391.436-1.473.436v-.736H133.4v.5c0,.03-.211.511-1.443.511v-4.1c-.451.18-.917.33-1.413.481l-.105-.211a12,12,0,0,0,1.518-.8v-.616l.571.24a10.507,10.507,0,0,0,2.36-2.33h-4.179l-.075-.3H135.1a10.224,10.224,0,0,0,.826-1.457,1.906,1.906,0,0,1-.586.044v-.631H133.4v.391c0,.029-.211.5-1.443.5V12.318l1.5.616h1.729l.571-.751,1.623,1.112a1.012,1.012,0,0,1-.586.3v2.886c0,.03-.105.105-.241.18l1.579.526c-.076.211-.241.241-.632.211a6.971,6.971,0,0,1-.6.931h5.321l.872-1.1ZM133.4,16h1.938V13.234H133.4Zm1.924,5.652H133.4v3.006h1.924Zm4.509-5.366v.286c0,.029-.241.526-1.459.526V12.3l1.534.632h1.819l.6-.8L144,13.309a1.064,1.064,0,0,1-.616.317V16.6c0,.031-.421.377-1.5.377v-.692Zm2.044-3.051h-2.044V16h2.044Zm-2.029,11.423h2.029V21.651h-2.029Z" transform="translate(-30.931 -2.878)" fill="#302d2c"/>
        <path id="Path_857" data-name="Path 857" d="M166.112,18.782a8.014,8.014,0,0,0,3.7,4.313l.015.136a2.827,2.827,0,0,0-1.4,1.729,12.219,12.219,0,0,1-2.45-5.381V25.29c0,.031-.241.556-1.549.556v-4.87a11.792,11.792,0,0,1-4.073,3.893l-.166-.21a13.37,13.37,0,0,0,3.487-5.877h-2.569a1.3,1.3,0,0,1,.375.857.734.734,0,0,1-1.323.511,5.242,5.242,0,0,0-.871-2.135V25.4c0,.03-.211.481-1.563.481V19.533a12.469,12.469,0,0,1-2.165,2.78l-.2-.195a17.438,17.438,0,0,0,2.209-6.373h-2.028l-.075-.3h2.254V11.762l2.163.211c-.014.21-.135.33-.6.375v3.1h.285l.722-1.112,1.307,1.142c-.12.2-.315.271-.706.271h-1.607v2a4.774,4.774,0,0,1,1.683.9l-.045-.165h3.5V15.19h-1.5a9.088,9.088,0,0,1-1.593,2.69l-.24-.1a21.352,21.352,0,0,0,.9-5.231l2.1.421c-.045.2-.151.3-.542.331a16.285,16.285,0,0,1-.511,1.593h1.383V11.762l2.164.211c-.03.21-.15.33-.616.375v2.54h.871l.826-1.142,1.5,1.172c-.12.2-.315.271-.721.271h-2.479v3.292h1.337l.841-1.158,1.549,1.2c-.121.18-.315.256-.721.256Z" transform="translate(-36.842 -2.789)" fill="#302d2c"/>
        <path id="Path_858" data-name="Path 858" d="M194.306,21.616l-.33,2.495a2.621,2.621,0,0,1,.5,1.218c0,.376-.436.6-.827.6a3.088,3.088,0,0,1-1.8-.841c-2.511-2.209-3.428-5.591-3.712-9.559h-7.591l-.09-.3h7.665c-.075-1.082-.105-2.21-.105-3.367l2.255.225c-.015.2-.135.286-.571.361-.015.932-.015,1.879.03,2.781h1.983l.9-1.112a1.223,1.223,0,0,1-.346-.165,4.383,4.383,0,0,0-1.488-1.623l.06-.136c2.029-.105,2.69.587,2.69,1.157a.784.784,0,0,1-.721.781l1.623,1.128c-.121.2-.3.27-.722.27h-3.968c.2,3.337.962,6.328,3.051,7.967a.453.453,0,0,0,.271.135c.075,0,.15-.06.225-.211a15.056,15.056,0,0,0,.9-1.834Zm-9.093-2.841v4.449c1.127-.09,2.344-.2,3.607-.315l.031.225c-1.518.5-3.7,1.082-7.02,1.863a.554.554,0,0,1-.39.331l-.992-1.758c.706-.03,1.8-.105,3.156-.211V18.775h-2.69l-.075-.3h4.81l.871-1.128,1.623,1.173c-.12.2-.316.256-.721.256Z" transform="translate(-42.79 -2.813)" fill="#302d2c"/>
        <path id="Path_859" data-name="Path 859" d="M205.039,18.258a16.8,16.8,0,0,0,5.892-6.613l2.376.69c-.046.211-.225.3-.707.346a14.385,14.385,0,0,0,6.644,3.682l-.03.255a1.97,1.97,0,0,0-1.172,1.534,12.612,12.612,0,0,1-5.682-5.29,16.813,16.813,0,0,1-7.23,5.575Zm10.912,1.533.962-1.218,1.789,1.263c-.121.18-.3.256-.736.256h-7.485l1.308.391c-.06.179-.211.255-.586.225a21.437,21.437,0,0,1-2.405,3.156c1.758-.045,3.968-.105,6.328-.18a8.2,8.2,0,0,0-1.789-1.984l.091-.121c3.186.8,4.193,2.225,4.193,3.2a.953.953,0,0,1-.886,1.051,1.128,1.128,0,0,1-.706-.285,6.5,6.5,0,0,0-.646-1.458c-1.819.361-4.345.751-7.936,1.292a.612.612,0,0,1-.421.315L206,23.894c.556,0,1.323,0,2.241-.015a32.885,32.885,0,0,0,1.262-3.788h-3.8l-.089-.3Zm-1.893-3.758,1.683,1.173c-.12.211-.315.27-.721.27h-6.854l-.076-.3h5.081Z" transform="translate(-48.621 -2.761)" fill="#302d2c"/>
        <path id="Path_860" data-name="Path 860" d="M235.206,14.127l1.488,1.458a1.1,1.1,0,0,1-.69.2,14.62,14.62,0,0,1-2.18,2.976c2.074.345,2.75,1.187,2.75,1.834a.856.856,0,0,1-.812.886.9.9,0,0,1-.631-.271,4.821,4.821,0,0,0-1.338-2.18V25.34a1.6,1.6,0,0,1-1.308.511H232.2V20.26a12.974,12.974,0,0,1-2.3,1.458l-.15-.136a14.8,14.8,0,0,0,4.613-6.282h-4.313l-.091-.3h2.225V11.783l2.254.21c-.03.226-.18.331-.646.391V15h.481Zm7.305,9.424,1.638,1.277c-.12.2-.33.256-.736.256h-8.221l-.076-.3h3.7V17.569h-2.691l-.075-.3h2.765V11.783l2.3.21c-.03.211-.18.346-.631.406v4.87h.871l.872-1.187,1.594,1.218c-.121.2-.317.27-.737.27h-2.6v7.214h1.127Z" transform="translate(-54.481 -2.794)" fill="#302d2c"/>
      </g>
    </g>
  </g>
</svg>
