<svg xmlns="http://www.w3.org/2000/svg" xmlns:xlink="http://www.w3.org/1999/xlink" width="242" height="90" viewBox="0 0 242 90">
  <defs>
    <clipPath id="clip-path">
      <rect id="Rectangle_20" data-name="Rectangle 20" width="181.885" height="24" fill="none"/>
    </clipPath>
  </defs>
  <g id="Group_125" data-name="Group 125" transform="translate(-393 -7990)">
    <g id="bg_white" transform="translate(393 7990)" fill="#fff" stroke="#e7f2f5" stroke-width="2">
      <rect width="242" height="90" stroke="none"/>
      <rect x="1" y="1" width="240" height="88" fill="none"/>
    </g>
    <g id="Group_33" data-name="Group 33" transform="translate(422.938 8023)">
      <g id="Group_32" data-name="Group 32" clip-path="url(#clip-path)">
        <path id="Path_800" data-name="Path 800" d="M146.453,4.323c-.821-.816.344-1.407.693-2.111.23-.354-.121-.7-.242-1.054A3.475,3.475,0,0,0,144.674,0a.921.921,0,0,0-.348.821,7.052,7.052,0,0,1,.016,2.225c0,.82-.7,1.174-1.284,1.412-.933.354-2.1.01-2.921.834-.115.351.239.7.475.817,1.052.229,1.751-.713,2.8-.835.116.118.354.233.354.348a7.755,7.755,0,0,1-.57,2.931,17.337,17.337,0,0,1-3.025,3.644c-.816.7-1.4,1.763-2.566,1.885-.585.12-.581.706-.814,1.057a3.282,3.282,0,0,0,.248,2.575,1,1,0,0,0,.82-.005l2.911-2.823a3.379,3.379,0,0,1,1.519-.127c.587.23.476,1.052.6,1.637a20.48,20.48,0,0,1-.1,2.691,12.266,12.266,0,0,0,.38,4.681.851.851,0,0,0,.7.231.375.375,0,0,0,.35-.354,31.333,31.333,0,0,0,.328-4.682,11.02,11.02,0,0,0,.219-2.812c0-.352.113-.82.463-.939.936-.356,1.871-.479,2.687-.835,1.4-1.062,1.392-2.933,1.149-4.571-.6-1.869-.959-4.09-2.605-5.486m-3.816,8.8a.786.786,0,0,1-.59-.464.984.984,0,0,1,.347-.942c.351-.117.7,0,.7.35,0,.467-.111.935-.46,1.056m5.136-2.6c-.227,1.169-.337,2.575-1.622,3.051a2.439,2.439,0,0,1-1.289.007l-.119-.352-.015-2.811.46-1.874c.111-.82-.246-1.872.689-2.227a.945.945,0,0,1,.939.463c.475,1.17,1.186,2.335.957,3.742" transform="translate(5.072 0)" fill="#1a1311"/>
        <path id="Path_801" data-name="Path 801" d="M172.345,12.49c-.7.24-1.521.125-2.225.364a33.27,33.27,0,0,1-4.91,1.079c-1.169.007-2.455.717-3.4-.1-.119-.585-.241-1.169.227-1.641.818-.354,1.989-.125,2.924-.248.588.113,1.173.7,1.875.457A1.484,1.484,0,0,0,168,11.109c.345-1.522.687-3.046.914-4.687.113-.585.579-1.057.342-1.757-.119-.7-.942-.931-1.414-1.4-.588-.465-1.406-.227-2.106-.107s-1.518.946-2.105.128c-.121-.818,1.045-1.409.456-2.341-.471-.35-.827-1.168-1.408-.813-.231.587-.11,1.405-.695,1.877-.342,1.405-1.274,2.581-1.384,4.1.01,1.756-.217,3.394-.206,5.151-.109,1.055.129,2.343-.334,3.278l.241,1.405a1.236,1.236,0,0,0-.111.935c.121.468.706.583,1.057.814.47.115.939-.005,1.289.346.236.231.471.464.358.816a2.756,2.756,0,0,1-2.1,1.3c-.82-.114-1.519.24-2.225-.107a1.3,1.3,0,0,1-.823-1.049c-.355-.7-.127-1.64-.949-2.1a.558.558,0,0,0-.7.235,12.4,12.4,0,0,0,.247,2.927,3.483,3.483,0,0,0,.6,1.518,1.869,1.869,0,0,0,1.757.224c1.755-.477,3.5-.837,5.143-1.315a10.378,10.378,0,0,0,3.272-.834c.818-.474,1.292.695,2.111.457a1.234,1.234,0,0,0,.814-.708c.229-1.057-.827-1.87-1.534-2.449-.352-.116-.585.116-.816.238a2.658,2.658,0,0,1-1.163,1.761c-.584.12-1.282.708-1.872.128-.354-.232-.122-.818-.241-1.169.464-.823,1.282-.829,1.868-1.3a4.609,4.609,0,0,1,4.45.33.982.982,0,0,1,.355.933c-.115.7.241,1.4.009,2.107-.23.821-1.049.942-1.63,1.532a16.726,16.726,0,0,0-3.386,1.3c-.119.117-.115.352,0,.352,1.873-.01,3.629-.02,5.5-.146.938-.358.814-1.408,1.28-2.114a10.159,10.159,0,0,0,.449-3.28A3.806,3.806,0,0,0,171.9,16c-1.647-1.162-4.1-.8-5.974-.319a27.552,27.552,0,0,0-3.039.6c-.234,0-.7.12-.937-.112-.118-.351.23-.586.463-.821,1.287-.359,2.807-.366,4.1-.607l2.336-.6,2.926-.366,2.105-.128.934-.122c.47-.118,1.171-.123,1.284-.708-.94-.931-2.459-.457-3.745-.332M162.127,5.754c.7-.94,2.1-.947,3.27-1.07.352-.117.587.231.82.465a1.412,1.412,0,0,1-.1,1.64,7.5,7.5,0,0,1-2.343.362,10.407,10.407,0,0,1-1.869.361c-.354-.581-.008-1.287.226-1.757m-.218,3.281c.465-.357,1.053-.008,1.519-.125a7.628,7.628,0,0,1,2.343-.131c.233.234.351.35.353.583.12.351-.113.588-.228.82-.352.236-.94.005-1.406.125a15.01,15.01,0,0,0-2.224.128.552.552,0,0,1-.586-.581c-.118-.351.112-.587.229-.819" transform="translate(5.794 0.002)" fill="#1a1311"/>
        <path id="Path_802" data-name="Path 802" d="M128.341,5.448c-.937.12-1.407-.7-2.228-.691a16.918,16.918,0,0,1-2.571,1.065c-.352,0-.818.24-1.053-.11a11.051,11.051,0,0,1,.458-1.875c.223-1.641,2.218-.832,3.152-1.773,0-.469-.705-.346-1.056-.462a1.676,1.676,0,0,1-1.758-.579c-1.178-.929-1.637.714-2.453,1.184a6.215,6.215,0,0,1-1.4.359,12.123,12.123,0,0,0-1.75.828.115.115,0,0,0,.117.118A24.743,24.743,0,0,0,120.6,2.8c.938.228.359,1.4.361,2.105-.114.585.128,1.754-.808,1.874-1.055.123-1.415-1.28-2.35-1.157-.582.24-.229.82-.342,1.29a2.753,2.753,0,0,1-1.048.943c-1.17.474-2.455.6-3.625,1.19-.582.354-1.4.358-1.983.831a.765.765,0,0,0,.239.814,1.845,1.845,0,0,0,1.874.694c1.871-.828,3.5-1.892,5.611-1.9.7.346.71,1.283,1.531,1.629a.717.717,0,0,0,.818.113,5.047,5.047,0,0,0-.01-1.872c-.121-.7.7-.705,1.049-.941a3.659,3.659,0,0,1,2.222-.481.641.641,0,0,1,.354.585c-.342,1.641-1.976,2.7-2.672,4.11-.231.351.006.935-.462,1.171-.932.59-2.22.6-3.152,1.186-.818.357-1.991.128-2.689.836,0,.117-.115.351,0,.466.943,1.286,2.22-.128,3.392-.133,1.287-.123,2.335-1.416,3.743-.957.469.35.24,1.171.123,1.755-.112.82-1.4.71-1.278,1.646.354.585,1.289.7,1.293,1.515-.228,1.055-1.517.359-2.219.714-.235.12-.114.469-.114.7.594.934,1.067,2.454,2.354,2.328.933-.59,1.045-1.644,1.274-2.582.23-.586.11-1.287.691-1.76.705-.354,1.756-.358,1.985-1.3-.589-.7-1.64-.226-2.111-1.042-.591-1.168.576-1.759,1.157-2.464.226-1.641-1.877-.926-2.237-2.1.229-.939,1.164-1.41,1.513-2.231.813-.822,1.394-2.115,2.444-2.59a21.552,21.552,0,0,0,3.973-.839.791.791,0,0,0,.466-.705,2.505,2.505,0,0,0-.589-.465,6.625,6.625,0,0,0-3.044-.334" transform="translate(4.112 0.028)" fill="#1a1311"/>
        <path id="Path_803" data-name="Path 803" d="M109.3,15.8c-.822-.813-1.53-1.748-2.354-2.561-.234-.117-.468-.233-.7,0-.228,1.054.129,2.223-.1,3.159-.462,1.174-1.75,1.415-2.919,1.537-.7.005-1.638.01-1.992-.575a8.1,8.1,0,0,1-.488-3.742c-.239-1.17-.012-2.341-.251-3.511,0-.467.229-.82.227-1.405-.007-1.17.455-2.344.332-3.514-.472-.933-1.642-.694-2.463-1.039-1.4.006-1.865,1.648-3.152,1.653-.586-.231-.472-.931-.593-1.4a3.247,3.247,0,0,0-1.651-2.214c-.231.117-.466.235-.465.354A16.88,16.88,0,0,1,91.8,5.12c-.346,1.057-.106,2.341-1.037,3.166-1.051.592-2.1,1.064-3.151,1.771-.468.237-1.289-.108-1.519.478.12.7-.228,1.171-.109,1.755.119.234.588.35.821.35.817-.357,1.514-1.3,2.334-1.654a1.582,1.582,0,0,1,1.4-.591,4.86,4.86,0,0,1-.336,2.929c-.7.822-1.987.478-2.686,1.183.237.585,1.055.228,1.524.46,1.055.228.359,1.4.48,2.105-.115.47-.582.705-.463,1.172.47.582.006,1.288.128,1.989.237.818-.106,2.108.948,2.335a2.775,2.775,0,0,0,1.517-.826c1.513-1.763,1.736-3.99,2.31-6.1.463-1.287,2.574-.246,2.8-1.885-.236-.7-1.175-.929-1.877-1.045-.587-.23-.24-.816-.358-1.285a8.843,8.843,0,0,1,.915-4.218c.465-.355,1.169-.122,1.753-.125.939.346.477,1.518.716,2.218,0,.588-.111,1.172-.108,1.875l.009,1.639c.008,1.52.015,2.927.14,4.447.121.818-.224,1.989.482,2.687a2.691,2.691,0,0,0,1.64.463c.937-.122,1.991.222,2.928-.132,1.987-.716,4.089-.961,5.839-2.373.467-.354,1.168-.592,1.166-1.177a1.861,1.861,0,0,0-.709-.933" transform="translate(3.191 0.082)" fill="#1a1311"/>
        <path id="Path_804" data-name="Path 804" d="M49.376,10.891c1.759.459,2.707,2.8,4.812,2.433.468-.12,1.054-.005,1.4-.474-.355-.585-1.056-.465-1.526-.7a6.734,6.734,0,0,1-1.882-1.744,31.928,31.928,0,0,0-4-3.961A8.047,8.047,0,0,0,45.83,4.355c-1.055-.346-.7.941-.579,1.289.007,1.291-.924,2.232-1.27,3.286a37.259,37.259,0,0,1-3.013,5.634c.822.7,1.637-.359,2.692-.015.7.231,1.52-.122,2.224.106a.642.642,0,0,1,.472.7c.244,1.637-1.862,2.234-2.322,3.525.473.932,1.874.107,2.7.69,1.287-.125,2.927.1,3.976-.843.934-.239,1.291.932,1.88,1.4.586.23,1.175,1.047,1.992.575a.893.893,0,0,0-.24-1.051l-2.117-1.982c-.353-.115-.705-.345-1.056-.228a3.527,3.527,0,0,1-2.22.6c-.586-.113-1.52.243-1.991-.339,0-.118-.12-.47.113-.587a19.472,19.472,0,0,0,3.027-3.177c0-.233.113-.585-.121-.7-1.406-.579-2.69.248-3.977.371-.7-.228-1.755.243-2.227-.34-.119-.584.23-.935.462-1.407a23.76,23.76,0,0,1,3.04-.717c.233-.118.7,0,.583-.355-.706-.815-2.105.129-2.7-.806a5.591,5.591,0,0,1,1.39-2.582c.233-.235.469-.119.819-.005a15,15,0,0,1,2,2.567c.119.351-.23.7.005.935" transform="translate(1.521 0.16)" fill="#1a1311"/>
        <path id="Path_805" data-name="Path 805" d="M11.023,9.549c.585,0,.583-.589.815-.941C12.3,7.9,13.477,8.483,13.7,7.545c-.238-.7-1.053.005-1.64-.108-.586-.231-.589-.933-.592-1.4-.119-.351.112-.82-.356-.935-.118-.116-.233.117-.351.236.005,1.054.6,2.22-.217,3.044a.989.989,0,0,1-.82,0C9.025,8.155,8.9,7.22,8.2,7.34c-.114.47.24,1.052.477,1.518.357,1.17,1.525.578,2.344.691" transform="translate(0.304 0.188)" fill="#1a1311"/>
        <path id="Path_806" data-name="Path 806" d="M32.535,7.647c.234-.118.585-.239.466-.589A2.611,2.611,0,0,0,30.888,5.9a.887.887,0,0,0-.232.47c.588.465.944,1.4,1.879,1.278" transform="translate(1.138 0.219)" fill="#1a1311"/>
        <path id="Path_807" data-name="Path 807" d="M7.582,9.747a13.9,13.9,0,0,1-2.225-.107c-.7-.228-.942-1.046-1.062-1.749a7.892,7.892,0,0,0-.827-1.283.356.356,0,0,0-.468,0c-.23.939.242,1.753.131,2.69-.346,1.174-1.756.009-2.337.95a.514.514,0,0,0,.121.585,1.288,1.288,0,0,0,1.288.111,3.573,3.573,0,0,1,1.407.578c.354.467.122,1.169.242,1.637.357.817-.108,1.638.131,2.457l-.227,1.172c-.35.471-.581,1.174-1.165,1.294-.234-.118-.586-.231-.588-.468a10.972,10.972,0,0,1,.8-3.983c0-.469.346-1.171-.124-1.4-.117,0-.233.119-.348.353A43.9,43.9,0,0,1,.953,17.859,10.687,10.687,0,0,1,.03,20.324a1.082,1.082,0,0,0,.356,1.052c1.173.463,1.751-.949,2.686-1.069.47.115.471.583.707.816a.786.786,0,0,0,.939.346,3.6,3.6,0,0,0,.577-1.408l.1-3.513c-.123-1.17.692-1.877.922-2.813,0-.469-.471-.231-.705-.465-.47-.348-.356-.934-.475-1.4C5.244,10.229,7,11.155,7.7,10.331c.115-.233.114-.466-.12-.584" transform="translate(0 0.242)" fill="#1a1311"/>
        <path id="Path_808" data-name="Path 808" d="M76.563,16.994a39.468,39.468,0,0,0-3.985-.914c-.352-.116-.471-.583-.472-.818.348-.47-.006-1.053.225-1.64.23-.82-.009-1.872.807-2.579.933-.474,2.1-.246,3.274-.486a1.411,1.411,0,0,0,.582-.587c-.709-1.4-2.459-.339-3.517-1.035a9.952,9.952,0,0,0-.713-1.987,1.8,1.8,0,0,0-1.643-.693.429.429,0,0,0-.466.471,15.835,15.835,0,0,1,.6,3.391,1.486,1.486,0,0,1-.931.941,6.05,6.05,0,0,1-1.983,1.533c-.583.354-.93,1.059-1.515,1.176-.587-.465-.708-1.164-1.062-1.749-.472-.583-1.291-.463-1.993-.694-.7.005-1.168.477-1.87.479-.584.239-1.522.01-1.988.6-.112.7.705.465,1.058.7.819-.005,1.637-.476,2.573-.246.588.347.591,1.166.83,1.75a2.133,2.133,0,0,1-.222,2.342c-.584.356-.813,1.177-1.517,1.061-.7-.229-.239-.933-.241-1.4.231-.351.113-.935.462-1.172a.89.89,0,0,0,.112-1.054.628.628,0,0,0-.47-.348c-.815.707-.693,1.759-.8,2.814-.229,1.171-.456,2.461-.683,3.748l.118.233a.489.489,0,0,0,.7.346A14.972,14.972,0,0,0,64.048,18.7c.116-.115.468,0,.586.23.241,1.052.131,2.575,1.3,3.156.351.115.7-.239.933-.357.931-1.058.223-2.344.216-3.632.343-1.287-.832-2.452.1-3.628a27.121,27.121,0,0,0,2.8-2.353.74.74,0,0,1,1.055.11,12.373,12.373,0,0,1-.216,3.629c0,.352,0,.821.358,1.052.7.465,2.107.224,2,1.4-.465.7-1.285.474-1.633,1.177a.25.25,0,0,0,.236.232,37.716,37.716,0,0,1,3.858-.839c.468-.235,1.053-.123,1.4-.708a.96.96,0,0,0-.475-1.169" transform="translate(2.224 0.232)" fill="#1a1311"/>
        <path id="Path_809" data-name="Path 809" d="M34.876,17.559a.252.252,0,0,0-.235-.233c-.234,0-.35.354-.348.469-.232.354-.582.823-1.05.71-.821-.35-1.177-1.283-1.532-1.984-.829-1.633-1.655-3.152-2.484-4.785-.355-.7.58-1.173.342-1.875-.355-.7-1.174-.463-1.644-.811-1.407-.578-1.887-2.565-3.64-2.438-.118.119-.233.236-.233.353.705.582,1.879,1.158,1.884,2.214-.346.938-1.637.361-2.571.717-.583.471-1.519.358-2.339.6-.466.354-1.17.122-1.518.594-.232.352.236.35.471.465,1.4-.125,2.573-.481,3.977-.722l2.105-.128c1.4-.244,1.879,1.276,2.352,2.094.71,1.516,1.537,3.034,2.13,4.553a36.03,36.03,0,0,0,2.715,4.55,1.139,1.139,0,0,0,1.057.463c.35-.235.346-.821.345-1.172-.241-1.286.455-2.345.215-3.629" transform="translate(0.722 0.246)" fill="#1a1311"/>
        <path id="Path_810" data-name="Path 810" d="M65.646,8.265c.232-.235.7-.356.58-.822l-1.759-.811c-.586,0-1.406-.459-1.756.128a2.351,2.351,0,0,0,.476,1.518c.705.465,1.757.108,2.459-.012" transform="translate(2.327 0.24)" fill="#1a1311"/>
        <path id="Path_811" data-name="Path 811" d="M12.717,18.012c-.939-.581-.594-1.752-.833-2.687-.361-1.755,1.624-2.585,1.732-4.223-.117-.352-.586-.348-.938-.463-.468,0-.821-.348-1.173-.462-.234,0-.351.118-.35.235-.346,1.054-1.4.825-2.1,1.3a.359.359,0,0,0,0,.47,1.5,1.5,0,0,0,1.405.108c.587.348.592,1.167.594,1.87-.7,1.056-1.51,2-2.324,3.172-.23.586-.931.944-.811,1.643.356.585,1.406.111,1.761.812.587.464.711,1.632,1.646,1.395.584-.354.463-1.057.693-1.643a.668.668,0,0,1,.817-.473c.354.35.822.581.942,1.051.706.582,1.64-.01,2.224-.246a.43.43,0,0,0,.231-.588c-.942-.931-2.346-1.039-3.519-1.268m-.732-5.849c.115-.233.468,0,.352.233l-.232.236a.291.291,0,0,1-.119-.47m-1.614,4.926c0-.118,0-.234.116-.235s.233,0,.234.115c-.116.117-.233.235-.351.12" transform="translate(0.294 0.378)" fill="#1a1311"/>
        <path id="Path_812" data-name="Path 812" d="M28.257,16.51c-1.051.589-2.216,1.533-3.623,1.189-.586-.113-1.638.362-1.875-.458-.236-.468.346-.821.58-1.055a14.514,14.514,0,0,0,2.215-1.769c.115-.117.115-.232,0-.469a11.535,11.535,0,0,0-2.81-.219c-.351.235-1.055-.111-1.053.359.471.465,1.405.109,1.644.926-.345,1.172-1.629,1.764-2.21,2.82,0,.352-.112.705.24.818a15.051,15.051,0,0,0,5.147-.378c.818-.354,2.34-.246,2.334-1.533a.429.429,0,0,0-.586-.231" transform="translate(0.783 0.51)" fill="#1a1311"/>
      </g>
    </g>
  </g>
</svg>
