<svg xmlns="http://www.w3.org/2000/svg" xmlns:xlink="http://www.w3.org/1999/xlink" width="242" height="90" viewBox="0 0 242 90">
  <defs>
    <clipPath id="clip-path">
      <rect id="Rectangle_36" data-name="Rectangle 36" width="46.359" height="69.856" fill="none"/>
    </clipPath>
  </defs>
  <g id="Group_123" data-name="Group 123" transform="translate(-898 -7990)">
    <g id="bg_white" transform="translate(898 7990)" fill="#fff" stroke="#e7f2f5" stroke-width="2">
      <rect width="242" height="90" stroke="none"/>
      <rect x="1" y="1" width="240" height="88" fill="none"/>
    </g>
    <g id="Group_49" data-name="Group 49" transform="translate(995.798 8000)">
      <g id="Group_48" data-name="Group 48" clip-path="url(#clip-path)">
        <path id="Path_877" data-name="Path 877" d="M138.019,146.45a.359.359,0,0,0-.356.361v.537h-2.692a.359.359,0,0,0,0,.718h.939v1.079h-1.857a.358.358,0,1,0,0,.716h7.941a.358.358,0,0,0,0-.716h-1.853v-1.079h.935a.359.359,0,0,0,0-.718h-2.694v-.537a.36.36,0,0,0-.362-.361m1.256,2.7h-2.5v-1.079h2.5Z" transform="translate(-116.754 -127.897)" fill="#dc000c"/>
        <path id="Path_878" data-name="Path 878" d="M144.68,182.74h-3v-.71h2.487a.429.429,0,0,0,.431-.427v-3.011a.429.429,0,0,0-.431-.427H138.33a.428.428,0,0,0-.431.427V181.6a.428.428,0,0,0,.431.427h2.486v.71h-3a.435.435,0,0,0-.432.431.43.43,0,0,0,.432.43h3v.965a.432.432,0,0,0,.863,0V183.6h3a.426.426,0,0,0,.432-.43.431.431,0,0,0-.432-.431m-5.917-3.716h4.971v.642h-4.971Zm0,1.5h4.971v.641h-4.971Z" transform="translate(-119.978 -155.595)" fill="#dc000c"/>
        <path id="Path_879" data-name="Path 879" d="M109.326,117.762a.424.424,0,0,0-.588.154l-1.019,1.762.151-7.13.708.389a.43.43,0,1,0,.414-.754l-1.1-.606.029-1.317a.434.434,0,0,0-.421-.44.439.439,0,0,0-.442.428l-.013.863-6.3-3.459h2.3a.433.433,0,0,0,0-.865h-2.489v-.868a.429.429,0,1,0-.859,0v.868h-2.22a.433.433,0,0,0,0,.865H99.5L93.044,111.2l-.02-.989a.428.428,0,0,0-.439-.421.435.435,0,0,0-.423.439l.031,1.439-.943.515a.431.431,0,0,0,.417.754l.549-.3.149,7.007-1.152-1.994a.431.431,0,0,0-.745.435l1.241,2.155-.752.432a.428.428,0,0,0-.158.59.435.435,0,0,0,.588.159l.752-.437,1.113,1.924a.431.431,0,0,0,.746-.432l-1.019-1.759,6.258,3.791-.635.384a.432.432,0,0,0,.449.737l1.02-.618.964.585a.43.43,0,0,0,.447-.735l-.583-.354,6.2-3.759-1.149,1.991a.432.432,0,0,0,.749.432l1.24-2.153.757.433a.434.434,0,0,0,.588-.154.425.425,0,0,0-.161-.59l-.752-.436,1.109-1.923a.428.428,0,0,0-.155-.587m-2.461,1.637-.5-.287a.425.425,0,0,0-.588.155.436.436,0,0,0,.158.592l.495.286L100.072,124l-6.42-3.888.5-.287a.43.43,0,1,0-.43-.744l-.5.285-.155-7.194,6.628-3.64v.574a.429.429,0,0,0,.859,0v-.574l6.465,3.549Z" transform="translate(-78.956 -92.122)" fill="#dc000c"/>
        <path id="Path_880" data-name="Path 880" d="M227.259,245.862h1c.2,0,.533.04.533.5,0,.44-.313.515-.605.515h-.932Zm0,1.357h.973c.481,0,.53.286.53.53a3.623,3.623,0,0,0,.072.747h.492v-.07c-.126-.068-.143-.13-.15-.295l-.026-.54c-.013-.414-.185-.489-.355-.56a.73.73,0,0,0,.414-.713c0-.631-.49-.8-.978-.8h-1.374V248.5h.4Z" transform="translate(-198.119 -214.418)" fill="#dc000c"/>
        <path id="Path_881" data-name="Path 881" d="M217.975,242.272a2.219,2.219,0,1,0,2.22-2.216,2.223,2.223,0,0,0-2.22,2.216m.318,0a1.9,1.9,0,1,1,1.9,1.9,1.9,1.9,0,0,1-1.9-1.9" transform="translate(-190.362 -209.645)" fill="#dc000c"/>
        <path id="Path_882" data-name="Path 882" d="M.316,332.479c.157-.863.313-1.851.523-2.625a10.654,10.654,0,0,0,.222-1.132c.116-.727.6-.3,1.118.1a15.3,15.3,0,0,0,.529,1.806c.179.546.575.449.78.054a14.266,14.266,0,0,1,.712-1.275,4.777,4.777,0,0,0,.272-1.665c-.167-.589.972-.344.968-.133a4.49,4.49,0,0,0,.186,1.305,30.419,30.419,0,0,1,.343,5.544c-.017.279-.626.373-.854.105a.619.619,0,0,1-.086-.611,2.349,2.349,0,0,0,.066-.845,4.648,4.648,0,0,1-.033-1.1c.028-.276-.016-1.095-.051-1.648-.024-.394-.387-.29-.516-.109a8.526,8.526,0,0,1-.649,1.419c-.315.347-.642.68-1.1.241a5.982,5.982,0,0,1-.728-1.1c-.239-.409-.52-.369-.629.088s-.5,3.32-.7,3.7c-.069.13-.756-.078-.688-.535.024-.162.174-.834.311-1.584" transform="translate(0 -285.907)" fill="#1a1311"/>
        <path id="Path_883" data-name="Path 883" d="M57.959,332.64a.575.575,0,0,1,.741-.24c.38.169.188.5.1.7a6.741,6.741,0,0,0-.376,1.3c-.19,1.08-.287,2.436-.309,2.669s-.027.688-.193.856-.313.318-.379.391-.255.14-.392-.1a.99.99,0,0,1-.126-.887,8.84,8.84,0,0,0,.146-1.328,3.177,3.177,0,0,1,.126-.8,5.491,5.491,0,0,0,.163-1.047,3.9,3.9,0,0,1,.5-1.523" transform="translate(-49.755 -290.243)" fill="#1a1311"/>
        <path id="Path_884" data-name="Path 884" d="M77.743,330.909c.5-.9.929-1.9,1.06-2.155.1-.194.36-.131.595-.037.2.082.4.171.3.368-.172.343-.6,1-.482,1.277a.369.369,0,0,0,.449.164,1.106,1.106,0,0,1,.82-.085,5.626,5.626,0,0,0,1.5.1,1.584,1.584,0,0,1,.726.113,1.363,1.363,0,0,0,.341.1c.123.008.331.241.035.3s-.646.322-.916.233a3.313,3.313,0,0,0-2.013-.173,7.717,7.717,0,0,1-.958.129.363.363,0,0,0-.226.612,4.3,4.3,0,0,0,.91.788,1.918,1.918,0,0,1,.495.337,11.29,11.29,0,0,0,1.354.882c.271.125.074.328-.137.343s-.382.076-.516-.109a1.3,1.3,0,0,0-.569-.386c-.143-.044-.184-.148-.276-.213a3.361,3.361,0,0,0-.6-.4,12.425,12.425,0,0,0-1.207-.752c-.272-.067-.247-.115-.466.117-.264.28-.578,1.44-.887,1.846s-.593.335-.72.274a.734.734,0,0,1-.136-.765,1.539,1.539,0,0,0,.328-.67,2.382,2.382,0,0,1,.322-.756c.043-.085.44-.694.874-1.477" transform="translate(-66.513 -286.996)" fill="#1a1311"/>
        <path id="Path_885" data-name="Path 885" d="M141.448,323.781a.838.838,0,0,1,.928-.321c.26.09.308.293.139.535a1.419,1.419,0,0,0-.071.567c0,.228-.1,2.06-.119,2.324s-.309,2.372-.391,2.764a3.315,3.315,0,0,0-.05.9c.011.175-.32.774-.683.587a.728.728,0,0,1-.427-.659,6.114,6.114,0,0,1,.047-1.232,5.874,5.874,0,0,0,.216-1.314c-.02-.314.17-1.221.153-1.483a6.3,6.3,0,0,1,.084-1.183,2.222,2.222,0,0,0,.025-.756.961.961,0,0,1,.147-.728" transform="translate(-122.933 -282.445)" fill="#1a1311"/>
        <path id="Path_886" data-name="Path 886" d="M161.988,329.291a.814.814,0,0,1,.661.17c.165.113.477.355.161.622a1.062,1.062,0,0,1-.95.252.893.893,0,0,0-.622.144,7.051,7.051,0,0,1-.913.285c-.262.035-.583.229-.567.49s.1.434.5.48a2.129,2.129,0,0,0,.765.005,1.047,1.047,0,0,1,.515.02,1.686,1.686,0,0,0,.678.117.755.755,0,0,1,.643.171.332.332,0,0,1,.068.522c-.311.439-.27.478-.741.744-.323.183-.543.354-.713.453s-.421.026-.569.176a3.475,3.475,0,0,1-.8.409,9.038,9.038,0,0,0-.838.359c-.168.116-.482.153-.677.393s-.38.11-.777.5-.743.617-.951.366-.261-.378-.058-.5a5.384,5.384,0,0,0,.6-.478,9.018,9.018,0,0,1,1.342-.731,1.247,1.247,0,0,0,.407-.219c.136-.079.954-.481,1.262-.606a4.66,4.66,0,0,0,1.073-.746c.132-.15-.063-.386-.222-.4a10.467,10.467,0,0,0-1.092,0,1.5,1.5,0,0,1-1.341-.607c-.346-.512-.442-.674-.215-.9a1.949,1.949,0,0,1,.475-.292,2.38,2.38,0,0,0,.681-.323,4.912,4.912,0,0,1,.853-.422c.36-.128,1.184-.425,1.357-.47" transform="translate(-136.829 -287.559)" fill="#1a1311"/>
        <path id="Path_887" data-name="Path 887" d="M214.587,322.981a.383.383,0,0,1,.163-.576c.28-.148.525-.231.7.023a5.172,5.172,0,0,1,.374.937,1.182,1.182,0,0,1,.016.685c-.026.2-.01.264.072.3s.19.081.21.2.205.343.384.252a1.5,1.5,0,0,0,.571-.365,5.986,5.986,0,0,1,.554-.614,3.9,3.9,0,0,0,1.022-1.143c.193-.386.445-.252.713-.19.218.051.5,0,.355.19a7.822,7.822,0,0,1-.855,1.3.335.335,0,0,0-.113.311c0,.065-.112.086-.218.092s-.25.226-.4.406a6.059,6.059,0,0,1-.7.61c-.176.144-.242.333-.422.409a.409.409,0,0,0-.25.225,2.007,2.007,0,0,1-.422.422.94.94,0,0,0-.388.749c-.1,1.034.056,1.876-.628,2.4-.414.315-.379.049-.584-.081s-.268-.3-.11-.7a6.729,6.729,0,0,0,.121-2.09c-.056-.47.048-.5.174-.59s.284-.1.262-.437a1.372,1.372,0,0,0-.1-.532,1.2,1.2,0,0,1-.03-.486,6.621,6.621,0,0,0-.475-1.7" transform="translate(-187.342 -281.44)" fill="#1a1311"/>
        <path id="Path_888" data-name="Path 888" d="M252.105,337.572c.113-.343.708-.408,1.023-.274.216.091.2.277.209.4a.874.874,0,0,0,.083.284,1.656,1.656,0,0,1-.205.935c-.158.207-.083.359-.1.467a.926.926,0,0,1-.918.7c-.825.051-.586-.587-.58-1.085a1.972,1.972,0,0,1,.271-.937,1.84,1.84,0,0,0,.22-.488m-1.391.494a3.15,3.15,0,0,0-.068,1.242,2.4,2.4,0,0,0,.568,1.3c.153.189.516.2,1.057.066a3.25,3.25,0,0,0,1.221-.5c.1-.105.126-.321.267-.373a1.114,1.114,0,0,0,.4-.7,1.206,1.206,0,0,1,.052-.662,1.031,1.031,0,0,0-.1-1.02c-.072-.088-.19-.093-.192-.331s-.164-.095-.346-.281-.486-.194-.859-.249a3.061,3.061,0,0,0-.9.109.835.835,0,0,0-.6.456c-.035.069-.332.589-.495.94" transform="translate(-218.868 -293.913)" fill="#1a1311"/>
        <path id="Path_889" data-name="Path 889" d="M14.366,393.121c-.036-.154.036-.266.456-.292s.466.063.482.326a26.179,26.179,0,0,1,.028,2.791c-.082.374.068.455.226.46a3.079,3.079,0,0,0,1.03-.169,7.75,7.75,0,0,1,1.188-.378c.3-.071.7-.109.785-.5s.019-.554.189-.788a4.172,4.172,0,0,0,.136-1.642c-.045-.3.143-.395.432-.387.164,0,.592-.074.592.192a4.034,4.034,0,0,1-.01.983,9.42,9.42,0,0,0-.437,1.73,3.272,3.272,0,0,1-.044.986,7.2,7.2,0,0,0-.11,1.341c.015.245-.283,1.387-.287,1.616s-.14.29-.222.382a4.228,4.228,0,0,0-.308.424c-.08.129-.414.1-.444-.1s-.066-.206-.158-.271-.146-.1-.055-.313a9.482,9.482,0,0,0,.59-2.671c-.011-.5-.1-.468-.518-.424a9.345,9.345,0,0,0-2.249.842c-.182.17-.426.219-.478.767a20.117,20.117,0,0,1-.521,2.931,1.77,1.77,0,0,1-.4.568c-.1.113-.264-.018-.325-.154a.6.6,0,0,0-.208-.234c-.056-.049-.077-.119,0-.3a7.555,7.555,0,0,0,.312-1.476,8.7,8.7,0,0,1,.179-1.364,26.276,26.276,0,0,0,.153-4.886" transform="translate(-11.94 -342.812)" fill="#1a1311"/>
        <path id="Path_890" data-name="Path 890" d="M67.928,399.766a4.737,4.737,0,0,1,.5-1.066,1.086,1.086,0,0,0,.115-.411c.03-.09.348-.619.612-.336.648.694.976,1.382.652,1.733a2.839,2.839,0,0,1-1.56.607c-.484.091-.367-.257-.313-.526m-.786-.5a3.8,3.8,0,0,0-.331,1.181,7.513,7.513,0,0,1-.529,1.386,1.017,1.017,0,0,0,.369,1.117c.2.146.56-.314.53-.506a1.11,1.11,0,0,1,.263-.858c.116-.1.4-.342.549-.491a7.655,7.655,0,0,1,1.278-.624,2.644,2.644,0,0,0,.747-.414.263.263,0,0,1,.431.148,9.584,9.584,0,0,0,1.071,1.707c.247.19.218.165.5-.12.148-.148.271-.305-.018-.578a5.87,5.87,0,0,1-1.181-2.351,10.514,10.514,0,0,0-1.329-1.884,1.417,1.417,0,0,1-.4-.449c-.056-.114-.292-.174-.657-.116a.479.479,0,0,0-.384.3,6.171,6.171,0,0,0-.421,1.149,6.212,6.212,0,0,1-.493,1.4" transform="translate(-57.836 -346.179)" fill="#1a1311"/>
        <path id="Path_891" data-name="Path 891" d="M126.515,393.223c-.013-.228.152-.676.513-.242a10.658,10.658,0,0,0,.828.913,5.107,5.107,0,0,1,.87,1.282,1.117,1.117,0,0,0,.619.628.528.528,0,0,0,.571-.4,5.49,5.49,0,0,0,.045-1.267c-.066-.207.135-.575.147-.746a9.35,9.35,0,0,1,.622-1.567.273.273,0,0,1,.532.092c.059.4.181.936.192,1.112s.167.427.179.637a24.857,24.857,0,0,1,.157,2.8c-.087.3-.215.5.045.751s.234.373.566.335.585-.178.45-.678a3.272,3.272,0,0,1-.087-1.1,33.693,33.693,0,0,0-.411-3.5.872.872,0,0,1-.153-.5,5.019,5.019,0,0,0-.647-1.382c-.169-.164-.376-.118-.711-.131s-.547-.037-.552.175a2.911,2.911,0,0,1-.643,1.795c-.24.366-.274.4-.151.677s-.068.321-.1.394-.034.3-.1.392a.4.4,0,0,1-.59.1,5.768,5.768,0,0,1-1.143-1.437c-.18-.358-.552-.406-.567-.932s-.193-.286-.375-.38a.585.585,0,0,0-.541.051c-.1.076-.487.064-.561.578a10.556,10.556,0,0,0-.038,2.214c.015.317-.174,2.312-.175,2.575a9.017,9.017,0,0,1-.26,1.754c-.122.288-.037.247.065.489s.268.351.4.238.238-.12.406-.237.2-.188.208-.609.079-1.287.1-1.587.1-.708.117-.938a8.485,8.485,0,0,1,.08-.97c.057-.214.09-1.375.09-1.375" transform="translate(-109.157 -340.805)" fill="#1a1311"/>
        <path id="Path_892" data-name="Path 892" d="M199.73,400.218c.138-.236.182-.45.585-.457a.514.514,0,0,1,.6.4,1.494,1.494,0,0,1,.105,1.136,1.031,1.031,0,0,1-.249.506c-.367.3-.7.609-.872.389a1.921,1.921,0,0,1-.175-1.974m-.453,2.626c.524.5.878.28,1.444.051a5.145,5.145,0,0,0,1.108-.805,5.76,5.76,0,0,0,.537-.683c.213-.242.146-.765.114-1.289s-.735-.814-.915-.892a3.167,3.167,0,0,1-.668-.292.859.859,0,0,0-.873.072,1.67,1.67,0,0,1-.638.2c-.209.012-.435.275-.6.582a2.218,2.218,0,0,0,.487,3.059" transform="translate(-173.255 -348.314)" fill="#1a1311"/>
        <path id="Path_893" data-name="Path 893" d="M237.177,375.839c.015-.2.046-.388.572-.422.368-.023.564.053.579.279s.437.816.548,1.2a3.344,3.344,0,0,0,.584.929,1.235,1.235,0,0,1,.351.576,4.552,4.552,0,0,0,.518.985.288.288,0,0,0,.522-.066,4.316,4.316,0,0,0,.17-2.083c-.153-1.062-.225-2.794-.24-3.023a.983.983,0,0,0-.086-.521c-.181-.285.1-.445.35-.3.2.11.216.074.371.03s.23.038.167.148a.168.168,0,0,0,.155.235c.1-.006.184.13.087.257a.4.4,0,0,0-.048.355c.024.086-.059.18-.126.219s-.151.413-.025.458.331.226.129.379a.566.566,0,0,0-.194.557c.013.209.01.719.137.78s.241.214.108.328-.054.531.02.6a.369.369,0,0,1,.1.486,6.6,6.6,0,0,0-.326,1.829,2.13,2.13,0,0,1-.293,1.212c-.176.274-.4.323-.613.037-.084-.114-.429-.514-.8-1.073-.56-.838-1.086-1.935-1.384-2.233-.251-.248-.454-.235-.558.07a2.359,2.359,0,0,0-.221.681,2.206,2.206,0,0,1-.2.768,9.134,9.134,0,0,0-.342,1.284c-.081.412-.119.917-.148,1.011-.108.343-.351.807-.73.678-.306-.105-.24-.2-.264-.282a.885.885,0,0,1-.24-.742c.1-.444.255-1.278.356-1.636s.522-1.21.539-1.491a6.631,6.631,0,0,0,.157-1.151c-.053-.278.129-.464.154-.607a5.066,5.066,0,0,0,.166-.73" transform="translate(-205.916 -326.04)" fill="#1a1311"/>
        <path id="Path_894" data-name="Path 894" d="M298.342,394.291c.206-.083.576-.336.882.052a1.531,1.531,0,0,1,.089,1.433,4.053,4.053,0,0,0-.22.7.628.628,0,0,1-.814.471c-.59-.173-1.156-.525-.925-1.328.274-.953.531-1.14.989-1.326m-1.137-.51c-.087.112-.443.5-.637.778a6.624,6.624,0,0,0-.354,1.075,1.077,1.077,0,0,0,.235.969,2.608,2.608,0,0,0,1.905.989,2.049,2.049,0,0,0,1.7-.615,1.266,1.266,0,0,0,.414-.957,10.793,10.793,0,0,1,.18-1.344c.021-.249.182-.487-.322-.666s-.3-.242-.933-.329a3.373,3.373,0,0,1-.606-.137,1.81,1.81,0,0,0-1.582.238" transform="translate(-258.653 -343.627)" fill="#1a1311"/>
        <path id="Path_895" data-name="Path 895" d="M32.16,463.945a.4.4,0,0,1,.455-.459c.24.066.526.11.561.413.038.332.038,2.9-.023,3.32s0,.825.488.794,1.934-.241,2.211-.294a1.045,1.045,0,0,0,.667-.585c.107-.252.247-.261.212-.541a12.635,12.635,0,0,0-.2-1.813,3.594,3.594,0,0,1-.176-1.43c.038-.23.3-.175.5-.153s.451-.08.439.29a31.565,31.565,0,0,0,.21,3.392c.109.361.123.274.229.285s.187.2.127.361a1.476,1.476,0,0,0-.085.9,3.352,3.352,0,0,1,.193,1.13,1.113,1.113,0,0,0,.064.75,1.268,1.268,0,0,1,.114.695,4.187,4.187,0,0,0,.191,1.1c.1.256.2.6-.11.778s-.4.026-.533-.107a.9.9,0,0,1-.306-.684,3.63,3.63,0,0,0-.141-1.167,3.412,3.412,0,0,1-.106-1.118c.018-.281-.158-1.711-.75-1.639s-2.417.38-2.7.4-.541.049-.65.567-.3,3.336-.391,3.606-.623.706-.791.277-.318-.612-.173-.815a.619.619,0,0,0,.091-.515c-.012-.192.108-.534.091-.815s.127-1.621.153-2.045a4.278,4.278,0,0,1,.169-.958,4.756,4.756,0,0,0,.075-1.06c0-.648-.106-2.855-.106-2.855" transform="translate(-27.622 -404.5)" fill="#1a1311"/>
        <path id="Path_896" data-name="Path 896" d="M101.99,486.515a.82.82,0,0,1,.462-.486c.19-.047.384-.041.464-.151a1.264,1.264,0,0,1,.927-.074c.27.106.95.308,1.108.878a1.212,1.212,0,0,1-.1,1.148,1.254,1.254,0,0,0-.263.86.723.723,0,0,1-.448.712c-.3.115-.651.251-.908.374a.7.7,0,0,1-1.069-.25,3.7,3.7,0,0,1-.169-3.01m2.4-1.291c-.171-.123-.255-.159-.677-.168s-1.378-.144-1.712.141a2.015,2.015,0,0,0-.793,1.085,3.9,3.9,0,0,0-.264,1.964,4.863,4.863,0,0,0,.687,1.732c.342.436.323.4.536.439a1.951,1.951,0,0,0,.728.132,2.621,2.621,0,0,0,1.028-.388c.168-.125.653-.233.787-.34.167-.134.556-.1.682-.341a6.365,6.365,0,0,0,.526-1.7,6.658,6.658,0,0,1,.094-.76c-.049-.807-.635-1.515-.919-1.524a1.491,1.491,0,0,1-.7-.272" transform="translate(-88.123 -423.573)" fill="#1a1311"/>
        <path id="Path_897" data-name="Path 897" d="M150.246,461.826a15.966,15.966,0,0,0,.426-2.485,12.435,12.435,0,0,1,.17-2.346c.1-.359.1-1.483.221-1.823s.262-.579.665-.6.516.09.428.377a1.648,1.648,0,0,0,.093.924c.084.223.489,1.936.627,2.189a4.366,4.366,0,0,1,.347.788,2.823,2.823,0,0,0,.367.838.572.572,0,0,1,.185.409c.008.157.454.251.439.008s-.124-.591-.047-.754.052-.582.11-.778a2.407,2.407,0,0,0,.092-1.076,7.366,7.366,0,0,1-.027-1.843c.075-.2.191-.309.042-.458s-.031-.209-.041-.366a5.877,5.877,0,0,1-.188-.778,1.793,1.793,0,0,0-.183-.973c-.171-.218-.079-.434.266-.508s.611-.056.763.127a1.206,1.206,0,0,1,.134.73,5,5,0,0,0,.172.8c.05.244.273.44.2.6a1.664,1.664,0,0,0-.1.867,15.029,15.029,0,0,1,.045,1.875,1.15,1.15,0,0,0,.082.47,2.616,2.616,0,0,1-.1.988,12.089,12.089,0,0,1-.589,2.11,1.763,1.763,0,0,0-.3.615c-.059.161-.126.236-.39.234s-.307.143-.258.369.161.305-.029.387-.253.156-.424-.062-.408-.343-.433-.746a5.792,5.792,0,0,0-.263-1.405,9.748,9.748,0,0,1-.47-1.078c-.03-.191-.45-.463-.562,0s-.347,1.761-.378,2.113a2.525,2.525,0,0,1-.1.726c-.063.13-.254.177-.3.334-.057.216-.234.191-.422-.008a.867.867,0,0,1-.277-.789" transform="translate(-131.198 -395.201)" fill="#1a1311"/>
        <path id="Path_898" data-name="Path 898" d="M202.831,458.807a.6.6,0,0,1,.454-.607c.243-.033.636.347.694.431s.063.172.468.181a12.331,12.331,0,0,0,1.977-.121,1.862,1.862,0,0,1,1.269.1,2.391,2.391,0,0,0,.935.364c.318.015.8.125,1.027.13a.826.826,0,0,1,.943.468c.262.563.694,1.572.76,1.779.091.285.2.9,0,1.123a.639.639,0,0,0-.119.376c-.025.16-.21.277-.218.434s-.016.318-.221.383a.393.393,0,0,0-.277.369c.011.168-.433.492-.483.715-.054.249-.4.339-.5.434a1.348,1.348,0,0,1-.588.422,1.011,1.011,0,0,0-.542.315,5.045,5.045,0,0,1-.906.407,7.765,7.765,0,0,1-3.565-.007c-.465-.149-.714-.2-.764.119s-.01,2.4.022,2.632-.268.772-.638.758a.643.643,0,0,1-.468-.742,7.217,7.217,0,0,0,.076-1.619c-.024-.386.02-3.374.144-4.206s.414-2.1.392-2.464a2.672,2.672,0,0,1,.01-.967,4.033,4.033,0,0,0,.119-1.2m.533,4.357a10.641,10.641,0,0,0-.2,1.908c-.014.353.1.574.318.6a2.077,2.077,0,0,1,.661.188,4.035,4.035,0,0,0,1.883.339,2.643,2.643,0,0,0,1.351-.293c.186-.118.868-.458,1.258-.675a2.58,2.58,0,0,0,1.136-.93,8.465,8.465,0,0,0,.429-1.011,1.871,1.871,0,0,0,.2-1.048,2.8,2.8,0,0,0-.675-1.837c-.445-.674-1.446-.665-1.659-.7s-.345-.189-.643-.189a2.755,2.755,0,0,1-.777-.057,11.836,11.836,0,0,0-2.165.188c-.662.094-.694.574-.752.889-.04.214-.23,2.244-.364,2.639" transform="translate(-176.481 -400.153)" fill="#1a1311"/>
        <path id="Path_899" data-name="Path 899" d="M280.148,485.424a1.283,1.283,0,0,1,1.794-.236c.3.246.609.471.992,1.835a1.778,1.778,0,0,1-.194,1.118,1.353,1.353,0,0,0-.215.487,4.811,4.811,0,0,1-.716.923c-.166.151-.879.827-1.559.624a2.392,2.392,0,0,1-1.264-2.257,2.8,2.8,0,0,1,1.163-2.495m-.654-.643a5.506,5.506,0,0,0-.916,1.091,3.141,3.141,0,0,0-.605,2.426c.49,1.671,1.17,2.5,2.077,2.628a2.289,2.289,0,0,0,1.587-.45,4.555,4.555,0,0,0,.912-.584,6.137,6.137,0,0,0,1.216-1.9.92.92,0,0,0-.055-.911,1.149,1.149,0,0,1,.041-.757c.074-.215.017-.281-.161-.323s-.483-.743-.6-.946a2.142,2.142,0,0,0-.928-.522,1.63,1.63,0,0,1-.887-.419c-.337-.33-1.011.116-1.178.248a3.193,3.193,0,0,1-.5.42" transform="translate(-242.694 -422.68)" fill="#1a1311"/>
        <path id="Path_900" data-name="Path 900" d="M18.858,6.019c.248-1.058.5-2.269.811-3.212a13.513,13.513,0,0,0,.346-1.385c.189-.892.76-.335,1.374.2a19.2,19.2,0,0,0,.54,2.265c.187.687.683.59.962.114a17.986,17.986,0,0,1,.958-1.529,5.871,5.871,0,0,0,.441-2.04c-.169-.737,1.223-.363,1.2-.1a5.555,5.555,0,0,0,.148,1.624,37.549,37.549,0,0,1,.078,6.872c-.039.343-.8.421-1.061.077a.768.768,0,0,1-.067-.76,2.907,2.907,0,0,0,.134-1.04,5.777,5.777,0,0,1,.029-1.366A19.968,19.968,0,0,0,24.794,3.7c-.005-.49-.461-.384-.63-.167a10.711,10.711,0,0,1-.892,1.713c-.41.409-.836.8-1.369.229a7.366,7.366,0,0,1-.829-1.4c-.271-.521-.619-.49-.784.069s-.826,4.071-1.1,4.523c-.093.154-.93-.144-.817-.706.041-.2.268-1.019.483-1.936" transform="translate(-16.039 0)" fill="#1a1311"/>
        <path id="Path_901" data-name="Path 901" d="M90.665,8.382a.71.71,0,0,1,.928-.25c.458.234.2.626.076.868a8.413,8.413,0,0,0-.546,1.588c-.3,1.323-.507,2.991-.548,3.279s-.078.848-.292,1.044-.408.374-.493.46-.323.156-.479-.146a1.223,1.223,0,0,1-.1-1.1,10.872,10.872,0,0,0,.263-1.629,3.926,3.926,0,0,1,.206-.979,6.737,6.737,0,0,0,.267-1.282,4.793,4.793,0,0,1,.717-1.851" transform="translate(-77.838 -7.029)" fill="#1a1311"/>
        <path id="Path_902" data-name="Path 902" d="M115.182,8.074c.668-1.076,1.266-2.293,1.445-2.6.136-.233.453-.139.737-.009.249.115.487.235.353.474-.234.414-.811,1.2-.677,1.546a.458.458,0,0,0,.546.233,1.361,1.361,0,0,1,1.018-.054,6.922,6.922,0,0,0,1.845.217,1.977,1.977,0,0,1,.89.186,1.6,1.6,0,0,0,.414.146c.151.021.393.322.025.37s-.819.355-1.146.229a4.1,4.1,0,0,0-2.475-.341,9.675,9.675,0,0,1-1.192.1.448.448,0,0,0-.317.741,5.216,5.216,0,0,0,1.074,1.028,2.412,2.412,0,0,1,.59.449,14.028,14.028,0,0,0,1.618,1.174c.327.169.07.411-.191.413s-.476.071-.63-.166a1.621,1.621,0,0,0-.678-.512c-.174-.063-.219-.193-.328-.279a4.3,4.3,0,0,0-.721-.534,15.972,15.972,0,0,0-1.443-1c-.333-.1-.3-.16-.584.115-.343.329-.8,1.744-1.211,2.226s-.755.377-.907.292a.9.9,0,0,1-.119-.953,1.907,1.907,0,0,0,.446-.808,2.982,2.982,0,0,1,.445-.915c.059-.1.587-.827,1.172-1.769" transform="translate(-98.712 -4.659)" fill="#1a1311"/>
        <path id="Path_903" data-name="Path 903" d="M193.711,2.589a1.038,1.038,0,0,1,1.167-.338c.314.129.362.382.138.67a1.717,1.717,0,0,0-.122.7c-.019.281-.252,2.539-.292,2.865s-.53,2.911-.655,3.389a4.045,4.045,0,0,0-.118,1.108c0,.216-.444.936-.881.681a.9.9,0,0,1-.486-.84,7.663,7.663,0,0,1,.135-1.519,7.317,7.317,0,0,0,.35-1.608c0-.391.286-1.5.283-1.825a7.531,7.531,0,0,1,.179-1.455,2.773,2.773,0,0,0,.076-.934,1.191,1.191,0,0,1,.229-.891" transform="translate(-168.079 -1.902)" fill="#1a1311"/>
        <path id="Path_904" data-name="Path 904" d="M218.96,12.445a1.014,1.014,0,0,1,.8.252c.2.148.569.469.161.778a1.314,1.314,0,0,1-1.19.252,1.11,1.11,0,0,0-.779.14,9.269,9.269,0,0,1-1.146.294c-.325.026-.734.247-.73.574s.092.539.592.621a2.647,2.647,0,0,0,.944.054,1.274,1.274,0,0,1,.634.057,2.071,2.071,0,0,0,.831.186.936.936,0,0,1,.783.252.411.411,0,0,1,.052.649c-.41.525-.363.573-.961.872-.411.206-.694.4-.91.515s-.521,0-.714.182a4.264,4.264,0,0,1-1.014.457c-.32.131-.842.259-1.057.391s-.606.158-.862.443-.476.114-.991.575-.956.715-1.2.394-.3-.485-.04-.618a6.8,6.8,0,0,0,.775-.552,11.5,11.5,0,0,1,1.7-.822,1.468,1.468,0,0,0,.517-.244c.173-.089,1.208-.534,1.6-.669a5.734,5.734,0,0,0,1.372-.856c.173-.176-.055-.48-.249-.5a12.039,12.039,0,0,0-1.35-.067,1.854,1.854,0,0,1-1.62-.833c-.4-.655-.5-.86-.208-1.124a2.332,2.332,0,0,1,.6-.333,2.909,2.909,0,0,0,.863-.356,6.068,6.068,0,0,1,1.079-.468c.453-.135,1.491-.451,1.707-.5" transform="translate(-185.144 -10.856)" fill="#1a1311"/>
        <path id="Path_905" data-name="Path 905" d="M284.319,5.867a.474.474,0,0,1,.235-.7c.356-.166.665-.251.863.071a6.34,6.34,0,0,1,.4,1.183,1.451,1.451,0,0,1-.022.845c-.047.245-.029.326.069.374s.228.111.247.257.233.437.459.336a1.835,1.835,0,0,0,.727-.416,7.591,7.591,0,0,1,.723-.722,4.8,4.8,0,0,0,1.335-1.349c.263-.464.566-.283.892-.189.266.076.618.025.426.254a9.426,9.426,0,0,1-1.137,1.558.415.415,0,0,0-.158.376c0,.082-.145.1-.275.1s-.323.265-.515.479a7.549,7.549,0,0,1-.9.709c-.226.166-.321.395-.548.478a.509.509,0,0,0-.323.263,2.474,2.474,0,0,1-.547.495,1.166,1.166,0,0,0-.526.9c-.185,1.273-.049,2.322-.926,2.922-.532.364-.471.037-.716-.139s-.314-.387-.092-.877a8.309,8.309,0,0,0,.28-2.572c-.039-.585.09-.619.252-.719s.356-.1.351-.524a1.757,1.757,0,0,0-.089-.666,1.479,1.479,0,0,1-.007-.6,8.223,8.223,0,0,0-.479-2.124" transform="translate(-247.914 -4.382)" fill="#1a1311"/>
        <path id="Path_906" data-name="Path 906" d="M331.565,26.776c.162-.417.9-.459,1.281-.275.262.126.232.354.234.5a1.1,1.1,0,0,0,.085.356,2.043,2.043,0,0,1-.312,1.142c-.209.248-.125.442-.156.572a1.144,1.144,0,0,1-1.177.811c-1.022.011-.688-.762-.65-1.375a2.456,2.456,0,0,1,.393-1.143,2.274,2.274,0,0,0,.3-.589m-1.75.524a3.888,3.888,0,0,0-.161,1.53,2.956,2.956,0,0,0,.619,1.635c.178.244.625.28,1.3.148a4.038,4.038,0,0,0,1.538-.538c.135-.123.177-.386.353-.443a1.387,1.387,0,0,0,.544-.835,1.469,1.469,0,0,1,.1-.815,1.275,1.275,0,0,0-.063-1.267c-.083-.114-.229-.128-.217-.421s-.2-.128-.411-.369-.588-.271-1.044-.363a3.956,3.956,0,0,0-1.121.079,1.033,1.033,0,0,0-.774.53c-.048.081-.447.7-.67,1.128" transform="translate(-287.89 -22.3)" fill="#1a1311"/>
      </g>
    </g>
  </g>
</svg>
