<svg xmlns="http://www.w3.org/2000/svg" xmlns:xlink="http://www.w3.org/1999/xlink" width="242" height="90" viewBox="0 0 242 90">
  <defs>
    <clipPath id="clip-path">
      <rect id="Rectangle_35" data-name="Rectangle 35" width="195.732" height="16" fill="none"/>
    </clipPath>
  </defs>
  <g id="Group_118" data-name="Group 118" transform="translate(-141 -7692)">
    <g id="bg_white" transform="translate(141 7692)" fill="#fff" stroke="#e7f2f5" stroke-width="2">
      <rect width="242" height="90" stroke="none"/>
      <rect x="1" y="1" width="240" height="88" fill="none"/>
    </g>
    <g id="Group_47" data-name="Group 47" transform="translate(163.953 7729)">
      <g id="Group_46" data-name="Group 46" transform="translate(0 0)" clip-path="url(#clip-path)">
        <path id="Path_861" data-name="Path 861" d="M0,22.957,4.3,8.514H23.739s5.094,1.2,5.094,5.7a8.917,8.917,0,0,1-4.242,6.426A13.468,13.468,0,0,1,16,23.161a7.632,7.632,0,0,1,.3-4.148c.814-1.8,4.093-5.239,6.222-6.61a4.516,4.516,0,0,0-4.074.926c-2.166,1.629-6.935,5.305-6.046,9.749.027.055-2.25,0-2.25,0s-1.361-5.027,6.333-10.694c0,.027-1.666-.945-4.306,1.666s-4.778,4.5-5.138,8.889c.055.056-7.037.019-7.037.019" transform="translate(0 -7.162)" fill="#182987"/>
        <path id="Path_862" data-name="Path 862" d="M182.453,7.686l.555-1.917h7.332l.585-1.915h2.306l-.444,1.805h4.971s.526.027,1.028-.723c.027.083,1.194,1.333,1.194,1.333s-.777,1.249-1.805,1.249h-5.611s-3.056,6.749,4.776,8.917c0,.027-.416,1.778-.416,1.778s-4.944-.028-6.778-5.7c0,.029-3.861,5.722-10.109,5.722.055,0,.471-2.056.471-2.056s7.888-.945,9.278-8.554c.027.027-7.333.055-7.333.055" transform="translate(-151.445 -3.242)" fill="#182987"/>
        <path id="Path_863" data-name="Path 863" d="M315.584,7.163h-5.249l.248-.945h5.307a3.9,3.9,0,0,0,2.582-1.055s-1.138-1.5-1.221-1.528c-.528.777-1.973.611-1.973.611h-4.11l.194-.75h-2.443l-.168.946H301.5l-.39,1.777,7.222.027-.334,1h-7.109l-1.639,6.806s4.944.027,4.944,0c-.473,2.443-5.168,2.083-5.168,2.083l-.416,1.887c6.693,0,7.5-2.776,7.5-2.776l-.694,2.582h2.332s.807-3.083.807-3.111c2.611,4.056,6.222,3.139,6.222,3.139s.361-1.833.389-1.86c-4.138,0-4.082-2.083-4.082-2.083h4.554s1.055-4.416,1.194-5.582-1.249-1.167-1.249-1.167m-8.89,4.888H302.28l.181-.5h4.4Zm.751-2.472h-4.778l.2-.51h4.807Zm6.175,2.554h-4.369l.2-.472h4.388Zm.693-2.564-4.4.01.139-.5,4.45-.01Z" transform="translate(-251.19 -2.94)" fill="#182987"/>
        <path id="Path_864" data-name="Path 864" d="M430.941,7.49a2.051,2.051,0,0,0,1.556-.944s-1.11-1.472-1.139-1.472c-.278.665-1.722.665-1.722.665h-13.5l-.362,1.778s4.223.139,4.389.166.473.139.361.446a.575.575,0,0,1-.694.5h-4.277l-1.527,6.831h4.693l-.611,2H413.5L413,19.1h15.137a2.87,2.87,0,0,0,2.362-.945s-1.028-1.5-1.083-1.556a2.274,2.274,0,0,1-1.418.777h-3.3l.528-2.111h5.112s1.137-4.388,1.3-5.36-.889-1.306-.889-1.306h-3.889l.25-1s2.861-.112,3.833-.112m-11.776,5.916-2.64-.056.7-2.722,2.64-.055Zm3.278,3.944H420.5l.5-1.833h1.944Zm1.028-3.972h-2.139l.777-2.862,2.139-.027Zm1.167-4.944h-2.056l.166-.751,2,.057Zm3.916,2.082a.47.47,0,0,1,.443.363L428.3,13.35h-2.555l.777-2.776s1.666-.057,2.029-.057" transform="translate(-347.411 -4.268)" fill="#182987"/>
        <path id="Path_865" data-name="Path 865" d="M549.76,5.6c.056-.72-1.028-.916-1.028-.916h-5.526l.166-.832h-2.39l-.277.916h-7.165L532.955,7.6l1,.027-.333,1.722.472.138-.333,1.391h5.666l-.166.75h-4.528l-.472,1.471h4.277c.39,0,.417.222.333.5s-.611.305-.611.305h-6.5l-.611,1.751H532.4l-1.693,2.61h2.249l1.833-2.722h1.667l-1.694,2.667h2.193l1.89-2.724h.916l1.222,2.612h2.334l-1.222-2.582h1.639l1.249,2.527h2.083s-.972-2.584-1.055-2.584a2.7,2.7,0,0,0,2.361-1.083s-1.028-1.388-1.083-1.388c-.167.611-1.834.694-1.834.694h-4.5l.112-.583h4.75l.333-1.5h-4.694l.11-.832H547.2s.306-1.334.306-1.389c1.083,0,.861-1.834.861-1.834h1.083s.25-1.222.306-1.944m-14.3,1.863.306-.75a14.539,14.539,0,0,0,1.916-.057c-.387,1.028-2.221.807-2.221.807m7.055.611c-.5,0-.473,1.055-.473,1.055H539.9l.251-.945a6.3,6.3,0,0,1-1.028,0c.278-.194,1.527-1.556,1.527-1.556l1.778-.027,1.083,1.473ZM544.149,9.1l.112-.529A4.419,4.419,0,0,0,545.4,9.1Zm2.862-1.723a2.526,2.526,0,0,1-2.029-.693l2.362-.057s-.251.835-.333.75" transform="translate(-446.424 -3.242)" fill="#182987"/>
        <path id="Path_866" data-name="Path 866" d="M664.073,6.3h-1.194l1.14-1.749h-2.334L660.49,6.272h-1.167l.529-1.722h-2.2l-.444,1.722h-2.528l.556-1.722h-2.306L652.491,6.3H651.8l-.806-1.749h-2.055l.694,1.722H648.3l-.554,1.917,3.556-.028L651.019,9.3h-2.472l-.473,1.695h5.694l-.11.833h-4.667l-.443,1.778H653.3l-.221.723H646.52l-.473,1.944s3.334.083,3.306,0c-.335.833-3.528.916-3.528.916s-.389,1.721-.389,1.693c6.138,0,7.249-2.637,7.249-2.637l-.7,2.5h2.334l.472-2.332c2.389,2.8,6.556,2.332,6.556,2.332a11.865,11.865,0,0,0,.082-1.443c-2.583,0-3.387-1.055-3.387-1.055h2.61a4.269,4.269,0,0,0,1.861-.945,15.332,15.332,0,0,0-1-1.472,2.357,2.357,0,0,1-1.693.5h-4.584l.222-.7h4.583l.584-1.805h-4.805l.251-.777h4.415c1.889,0,2.3-.834,2.3-.834l-1-1.444a.969.969,0,0,1-.834.389h-2.3l.611-.916h3.972c1.083,0,.833-1.944.833-1.944m-7.75,2.972H653.13l.333-1.083s2.306.055,2.917.055-.056,1.028-.056,1.028" transform="translate(-542.934 -3.827)" fill="#182987"/>
        <path id="Path_867" data-name="Path 867" d="M767.294,7.044l.39-1.778h2.5l.473-1.944h2.25l-.444,1.89h1.527L773.6,6.988h-1.528l-.387,1.834a3.5,3.5,0,0,0,1.639,3.332c.027.057-.362,2.138-.362,2.138s-1.86-1.165-2.028-1.777c.029.028-1.417,5.333-1.417,5.333H767.24l1.194-4.72a12.97,12.97,0,0,1-2.555,2.332c.027,0-.64-1.86-.64-1.86s3.778-3.278,4.445-6.472c.027.028-2.39-.083-2.39-.083" transform="translate(-643.711 -2.794)" fill="#182987"/>
        <path id="Path_868" data-name="Path 868" d="M814.644,7.8h-1.194l.36-1.778h1.89a3.007,3.007,0,0,0,1.721-.862,10.213,10.213,0,0,1-1.137-1.3,2.915,2.915,0,0,1-1.944.334l.305-1.917h-1.557c-.638,0-.665.305-.665.305l-.445,1.639h-2.084l.36-1.89h-1.721c-.5,0-.75,1.306-.889,2.918a2.1,2.1,0,0,1-1.557,1.916l-.36,2.333a3.068,3.068,0,0,0,2.028-1l-.222,1.443s2.389.028,2.389,0a7.885,7.885,0,0,1-4.889,4.973s-.415,2.112-.445,2.082c1.944,0,5.222-3,5.222-3l-.8,2.945h2.361s.611-2.083.582-2.166A9.562,9.562,0,0,0,814.17,17s.362-2.138.308-2.194c-1.973-1.444-1.53-4.749-1.584-4.8,2.888,0,3.831-1.194,3.831-1.194s-1.082-1.36-1.11-1.417a1.576,1.576,0,0,1-.971.417m-3.362-.777c-.092.8-1,.8-1,.8h-1.74a6.69,6.69,0,0,0,1.13-1.8h1.665s-.036,1-.054,1" transform="translate(-676.81 -1.915)" fill="#182987"/>
        <path id="Path_869" data-name="Path 869" d="M878.009,43.525,877.53,45.6h3.591s6.2.258,9.2-3.851a11.938,11.938,0,0,0-1.11-1.574,8.973,8.973,0,0,1-4.184,2.907c0,.019.777-3.907.777-3.907a1.1,1.1,0,0,1,1-.852h3.516l.594-1.944h-11.2l-.648,2h4.961L882.7,43.525Z" transform="translate(-738.169 -30.599)" fill="#182987"/>
        <path id="Path_870" data-name="Path 870" d="M893.6,3.848l-.685,2H905.23l-1.371,4.759a5.611,5.611,0,0,0,.3,3.575,4.35,4.35,0,0,0,3.094,2.443c.037.017.444-2.166.444-2.166a2.238,2.238,0,0,1-1.815-2.889c.519-2.555,1.388-5.777,1.388-5.777h2.463l-1.333-2h-.76l.335-1.815h-1.907l-.482,1.761Z" transform="translate(-751.112 -1.663)" fill="#182987"/>
        <path id="Path_871" data-name="Path 871" d="M994,8.378a2.481,2.481,0,0,0,1.557-.926,14.644,14.644,0,0,1,1.13,1.425,4.579,4.579,0,0,1-1.408,1.111c0,.019-1.279-1.61-1.279-1.61" transform="translate(-836.144 -6.266)" fill="#182987"/>
        <path id="Path_872" data-name="Path 872" d="M1008.01,4.748l-.482,2.037s5.964.185,8.89-3.13c.017.019.7,3.037,7.777,3.037.037,0,.481-1.924.481-1.924h-2.908a3.087,3.087,0,0,1-2.26-.982,3.853,3.853,0,0,1-1.075-2.214h-3.193a10.031,10.031,0,0,1-7.231,3.176" transform="translate(-847.522 -1.322)" fill="#182987"/>
        <path id="Path_873" data-name="Path 873" d="M1013.526,35.333l-.542,1.972H1026.5l.653-2.054Z" transform="translate(-852.112 -29.653)" fill="#182987"/>
        <path id="Path_874" data-name="Path 874" d="M1011.838,54.794c.015,0-1.18-1.624-1.18-1.624s-.154.735-4.611.735-10.735.03-10.735.03l-.611,2.123h3.015a4.537,4.537,0,0,1-3.2,1.639c-.027.015-.6,1.931-.6,1.931h16.247l.417-1.944a3.281,3.281,0,0,1-2.458-1.819c.027.014,2.93-.015,3.707-1.07m-12.706,2.723a10.423,10.423,0,0,0,1.542-1.6s5.1.015,5.1-.012a5.534,5.534,0,0,0,.705,1.61s-7.345.014-7.345,0" transform="translate(-836.079 -44.726)" fill="#182987"/>
        <path id="Path_875" data-name="Path 875" d="M1117.508,3.878l.541-1.888h2.863l.457-1.9h2.292l-.487,1.862h2.54a13.877,13.877,0,0,1-2.568,5.11c.027.014-.221,1.235,1.445,1.985,0,.014-.278,1.985-.278,1.985a1.922,1.922,0,0,1-1.167-.291,10.571,10.571,0,0,1-1.681-1.472l-1.18,5.4-2.389.263,1.11-4.8a7.45,7.45,0,0,1-3,1.137c.013.028.276-1.944.276-1.944s4.832-1.415,6.32-5.443Z" transform="translate(-938.776 -0.072)" fill="#182987"/>
        <path id="Path_876" data-name="Path 876" d="M1160.268,3.346l-.345,1.847h3.248l-1.9,7.541h-3.3l-.6,2.014h7.693a3.5,3.5,0,0,0,2.473-1.443c.012-.029-1.125-1.432-1.125-1.432s-.1.847-2.891.847c-.012-.014,1.86-7.541,1.86-7.541s3.362-.153,3.918-1.1c.025-.015-1.182-1.5-1.182-1.5s-.375.694-2.332.694c-.042,0,.889-3.278.889-3.278h-2.458l-.777,3.249Z" transform="translate(-973.566 0)" fill="#182987"/>
      </g>
    </g>
  </g>
</svg>
