<svg xmlns="http://www.w3.org/2000/svg" xmlns:xlink="http://www.w3.org/1999/xlink" width="242" height="90" viewBox="0 0 242 90">
  <defs>
    <clipPath id="clip-path">
      <rect id="Rectangle_11" data-name="Rectangle 11" width="143.493" height="44" transform="translate(0 0)" fill="none"/>
    </clipPath>
  </defs>
  <g id="Group_93" data-name="Group 93" transform="translate(-645.25 -6798)">
    <g id="bg_white" transform="translate(645.25 6798)" fill="#fff" stroke="#e7f2f5" stroke-width="2">
      <rect width="242" height="90" stroke="none"/>
      <rect x="1" y="1" width="240" height="88" fill="none"/>
    </g>
    <g id="Group_21" data-name="Group 21" transform="translate(694.003 6818)">
      <g id="Group_20" data-name="Group 20" clip-path="url(#clip-path)">
        <path id="Path_730" data-name="Path 730" d="M45.052,12.352c0-7.252-1.7-10.4-4.488-11.767a5.122,5.122,0,0,0-4.3-.224,4.3,4.3,0,0,1,2.972.989c4.845,3.519-.465,17.756-3.879,24.079A51.56,51.56,0,0,1,27.473,36.52c-5.636,5.969-8.211,5.1-8.211,5.1A13.166,13.166,0,0,0,26.772,44a13.611,13.611,0,0,0,11.182-5.827c7.357-10.963,7.1-25.82,7.1-25.82" transform="translate(-11.921 0)" fill="#0092e5"/>
        <path id="Path_731" data-name="Path 731" d="M81.824,36.707a41.167,41.167,0,0,1-5.39,27.243c5.172-2.622,8.741-8.522,9.069-15.37a19.278,19.278,0,0,0-3.679-11.873" transform="translate(-47.306 -22.718)" fill="#0092e5"/>
        <path id="Path_732" data-name="Path 732" d="M20.818,33.65s7.193-10.493,5.045-14.57c-1.3-2.473-5.987-2.457-5.987-2.457A19.747,19.747,0,0,0,3.4,24.945,19.507,19.507,0,0,0,.884,41.612s1.2,4.626,4.415,4.626c6.572,0,15.519-12.588,15.519-12.588" transform="translate(0 -10.283)" fill="#0092e5"/>
        <path id="Path_733" data-name="Path 733" d="M118.54,53.5c-1.96,4.54-3.888,8.316-5.855,12.209h2.795s1.1-3.511,2.215-6.406,1.557-3.892,1.557-3.892a.366.366,0,0,1,.328-.246,44.838,44.838,0,0,1,7.8.054.462.462,0,0,1,.385.367l0-.007s2.936,8.392,3.5,10.1h3.718s-4.869-11.047-10.472-26.508c0,0-2.4,6.055-5.967,14.33m8.333.148s-2.172.082-3.333.1-3-.054-3.319-.082-.109-.478-.109-.478.672-1.616,1.152-2.787c.281-.685,2.144-5.093,2.34-5.559,0,0,.059-.15.182-.15s.178.205.178.205c.383,1.006,3.022,8.413,3.022,8.413.116.321-.113.341-.113.341" transform="translate(-69.742 -24.241)" fill="#474645"/>
        <path id="Path_734" data-name="Path 734" d="M184.133,51a10.315,10.315,0,0,1-3.671-1.838,4.472,4.472,0,0,1-1.534-3.807,4.314,4.314,0,0,1,2.66-3.711,5.857,5.857,0,0,1,2.382-.417A7.794,7.794,0,0,1,188.66,43.3h.086l.2-2.964a14.269,14.269,0,0,0-4.084-.662c-6.747,0-8.537,4.917-8.537,7.065a6.652,6.652,0,0,0,1.407,3.944c2.24,2.691,3.66,2.663,6.993,4.07,3.767,1.591,3.583,4.479,3.583,4.479a5.617,5.617,0,0,1-6.431,5.806,7.346,7.346,0,0,1-4.822-2.458l-.084.023-.091,3.332c2.932.655,6.7.747,8.65.087a7.858,7.858,0,0,0,4.371-3.383,8.818,8.818,0,0,0,1.147-3.915,7.224,7.224,0,0,0-1.949-5.135A12.373,12.373,0,0,0,184.133,51" transform="translate(-109.132 -24.552)" fill="#474645"/>
        <path id="Path_735" data-name="Path 735" d="M234.812,50.018c-1.37,4.149-2.647,7.3-4.425,12.109a.145.145,0,0,1-.134.107.155.155,0,0,1-.143-.107l-7.95-21.275h-3.889s2.319,4.876,5.474,12.75c2.634,6.572,4.757,13.1,4.757,13.1h2.062c1.108-3.489,3.833-11.206,5.2-14.557.454-1.114,4.705-11.3,4.705-11.3H237.7s-1.1,3.757-2.89,9.166" transform="translate(-135.09 -25.284)" fill="#474645"/>
        <path id="Path_736" data-name="Path 736" d="M290.873,65.225a.239.239,0,0,1-.25-.239c-.073-1.457-.106-10.745-.106-10.745a.2.2,0,0,1,.207-.227c.814-.033,8.032.168,8.032.168l0-1.685c-5.267.123-7.948-.09-7.948-.09a.253.253,0,0,1-.246-.273c-.081-1.571.116-9.233.116-9.233a.288.288,0,0,1,.081-.226.337.337,0,0,1,.171-.034c1.748,0,8.671.315,8.671.315V41.209c-4.554.331-12.167-.093-12.167-.093s.3,6.442.233,11.96c-.073,5.873-.413,13.836-.413,13.836.71-.054,3.581-.1,6.463-.1s6.237.288,6.237.288l0-1.922a52.145,52.145,0,0,1-9.085.043" transform="translate(-177.785 -25.447)" fill="#474645"/>
        <path id="Path_737" data-name="Path 737" d="M344.259,65.424c-2.5,0-4.361-.077-4.361-.077-.227,0-.249-.039-.3-.112a.777.777,0,0,1-.064-.3c-.2-2.877-.2-10.079-.2-10.079,0-3.2.367-13.467.367-13.467h-3.484c.161,4.771.212,11.8.212,11.8.146,8.268-.133,13.945-.133,13.945,2.346-.141,7.7-.15,7.7-.15,2.292-.041,7.549.131,7.549.131l.036-1.822c-1.31.075-4.513.125-7.321.13" transform="translate(-208.087 -25.617)" fill="#474645"/>
      </g>
    </g>
  </g>
</svg>
