<svg xmlns="http://www.w3.org/2000/svg" width="242" height="90" viewBox="0 0 242 90">
  <g id="Group_121" data-name="Group 121" transform="translate(-645 -7841)">
    <g id="bg_white" transform="translate(645 7841)" fill="#fff" stroke="#e7f2f5" stroke-width="2">
      <rect width="242" height="90" stroke="none"/>
      <rect x="1" y="1" width="240" height="88" fill="none"/>
    </g>
    <g id="_ボミ型" transform="translate(731.821 7861)">
      <g id="WHITE">
        <g id="H_O">
          <g id="Group_31" data-name="Group 31">
            <path id="Path_798" data-name="Path 798" d="M34.3,3.476,63.828,24.948,34.3,46.421,4.782,24.948,34.3,3.476M34.3,0,0,24.948,34.3,49.9l34.3-24.948L34.3,0Z" fill="#231815"/>
            <path id="Path_799" data-name="Path 799" d="M58.7,10.06a.878.878,0,0,0-1.165-.589l-.676.261a.866.866,0,0,0-.529,1.031,22.15,22.15,0,0,1,.6,5.016H29.777a22.479,22.479,0,0,1,.6-5.01.873.873,0,0,0-.529-1.031l-.676-.268A.874.874,0,0,0,28,10.06a26.033,26.033,0,0,0-.683,7.488,24.572,24.572,0,0,0,5.358,13.985,11.752,11.752,0,0,1,3.081,7.24,10.7,10.7,0,0,1-.583,3.617.966.966,0,0,0-.033.455,1.175,1.175,0,0,0,.831,2H50.72a1.169,1.169,0,0,0,1.172-1.172,5.876,5.876,0,0,0-.375-1.279,10.506,10.506,0,0,1-.583-3.617,11.8,11.8,0,0,1,3.081-7.24,24.526,24.526,0,0,0,5.358-13.985,26.285,26.285,0,0,0-.683-7.488ZM52.133,29.945a14.214,14.214,0,0,0-3.664,8.834,13.372,13.372,0,0,0,.5,3.717H37.727a13.658,13.658,0,0,0,.509-3.717,14.171,14.171,0,0,0-3.664-8.834A22.272,22.272,0,0,1,29.984,19.53h26.73a22.206,22.206,0,0,1-4.588,10.415Z" transform="translate(-9.014 -3.108)" fill="#231815"/>
            <circle id="Ellipse_1" data-name="Ellipse 1" cx="3.188" cy="3.188" r="3.188" transform="translate(37.346 17.749)" fill="#e83828"/>
          </g>
        </g>
      </g>
    </g>
  </g>
</svg>
