<svg xmlns="http://www.w3.org/2000/svg" xmlns:xlink="http://www.w3.org/1999/xlink" width="242" height="90" viewBox="0 0 242 90">
  <defs>
    <clipPath id="clip-path">
      <rect id="Rectangle_16" data-name="Rectangle 16" width="176.76" height="40" fill="none"/>
    </clipPath>
  </defs>
  <g id="Group_115" data-name="Group 115" transform="translate(-898 -7692)">
    <g id="bg_white" transform="translate(898 7692)" fill="#fff" stroke="#e7f2f5" stroke-width="2">
      <rect width="242" height="90" stroke="none"/>
      <rect x="1" y="1" width="240" height="88" fill="none"/>
    </g>
    <g id="Group_28" data-name="Group 28" transform="translate(930.932 7717)">
      <path id="Path_754" data-name="Path 754" d="M1.784,0,0,6.027l8.022-.11L4.637,16.858H11.1L15.38,3.574h5.906L22.4,0Z" transform="translate(0 0)" fill="#008a32"/>
      <path id="Path_755" data-name="Path 755" d="M138.014,11.9h-3.607l-1.9,7.186h3.609Z" transform="translate(-23.913 -2.148)" fill="#008a32"/>
      <path id="Path_756" data-name="Path 756" d="M139.186,8.815h-3.608l-.516,1.868h3.608Z" transform="translate(-24.374 -1.591)" fill="#008a32"/>
      <g id="Group_27" data-name="Group 27">
        <g id="Group_26" data-name="Group 26" clip-path="url(#clip-path)">
          <path id="Path_757" data-name="Path 757" d="M28.935,8.515H23.968s-6.017.5-6.017,5.861,6.534,4.02,6.534,4.02l.793-2.4s-3.985,1.062-3.985-2.062,3.677-3.352,3.677-3.352h3.022L25.954,18.4h3.61l2.561-9.88Z" transform="translate(-3.239 -1.537)" fill="#008a32"/>
          <path id="Path_758" data-name="Path 758" d="M67.147,8.515H62.181s-6.018.5-6.018,5.861S62.7,18.4,62.7,18.4l.793-2.4s-3.984,1.062-3.984-2.062,3.677-3.352,3.677-3.352h3.022L64.167,18.4h3.608l2.562-9.88Z" transform="translate(-10.135 -1.537)" fill="#008a32"/>
          <path id="Path_759" data-name="Path 759" d="M50,5.617l.008-.033H41.735c-4.6,0-5.685,3.936-6.04,4.97l-2.064,7.4h3.608l1.979-7.091.007,0A3.7,3.7,0,0,1,43.154,8.1h5.731L46.169,17.95h3.608l3.4-12.333Z" transform="translate(-6.069 -1.008)" fill="#008a32"/>
          <path id="Path_760" data-name="Path 760" d="M47.273,10.286H45.518a2.478,2.478,0,0,0-2.173,1.173L41.177,18.8h3.609Z" transform="translate(-7.431 -1.856)" fill="#dc000c"/>
          <path id="Path_761" data-name="Path 761" d="M82.284,7.938H77.906l.609-2.314H74.909l-3.235,12.25h3.609l2-7.592h2.075s1.921-.166,1.712.795c-.178.811-.393,1.649-.52,2.123l-1.269,4.675h3.608L84.128,13.2c.453-1.787,1.076-5.261-1.844-5.261" transform="translate(-12.934 -1.015)" fill="#008a32"/>
          <path id="Path_762" data-name="Path 762" d="M128.247,7.938h-4.38l.611-2.314h-3.607l-3.232,12.25h3.608l2-7.592h2.074s1.921-.166,1.712.795c-.177.811-.394,1.649-.521,2.123l-1.271,4.675h3.61L130.09,13.2c.456-1.787,1.076-5.261-1.843-5.261" transform="translate(-21.229 -1.015)" fill="#008a32"/>
          <path id="Path_763" data-name="Path 763" d="M105.112,8.626s-2.632.084-2.632,2.263a2.256,2.256,0,0,0,.626,1.61s2.8,2.367,3.386,2.826.961,1.006-.166,1.006H99.859l2.028-7.814H93.731s-6.019.5-6.019,5.861,6.535,4.02,6.535,4.02l.792-2.4s-3.985,1.062-3.985-2.062,3.68-3.352,3.68-3.352h3.022l-2.041,7.808h12.656s2.842.5,2.842-2.309-7.564-5.231-4.387-5.231h5.809l1.295-2.221Z" transform="translate(-15.829 -1.537)" fill="#008a32"/>
          <path id="Path_764" data-name="Path 764" d="M31.435,37.941c-.284-.26-.555-.5-.813-.737v-.075h.79a1.2,1.2,0,0,1-.042-.325c.206.233.411.479.62.735H31.4a2.285,2.285,0,0,0,.038.4m-4.267-3.022c.027.361.05.735.076,1.1-.026.377-.049.75-.076,1.114h1A10.257,10.257,0,0,1,27,39.787a11.129,11.129,0,0,1,.993,2.494c.141-.221.282-.442.411-.672v3.127a5.934,5.934,0,0,1,1.109-.092,6.111,6.111,0,0,1,1.109.092V40.3a10.323,10.323,0,0,1,.659.812,10.738,10.738,0,0,1,.6-1.356h1.164a5.3,5.3,0,0,1-.428.661,6.834,6.834,0,0,1-1.895,1.78A8.447,8.447,0,0,1,32.22,44.3a11.26,11.26,0,0,0,1.86-2.042v2.482a6.1,6.1,0,0,1,1.133-.092,6.382,6.382,0,0,1,1.124.092V42.319a18.932,18.932,0,0,0,1.5,1.977,9.347,9.347,0,0,1,1.4-2.221,7.866,7.866,0,0,1-2-2.314h1.675a9.015,9.015,0,0,1-.076-1.16,7.731,7.731,0,0,1,.076-1.061H36.336v-.785h2.281a7.06,7.06,0,0,1-.088-1.139,6.81,6.81,0,0,1,.088-1.137H36.336V33.6a.5.5,0,0,1,.179-.424.463.463,0,0,0,.142-.21c0-.088-.079-.142-.233-.142a15.6,15.6,0,0,1-2.437-.13c.025.518.067,1.008.093,1.474v.309h-.362c.015-.181.025-.374.038-.58A1.6,1.6,0,0,0,34,33.575c-.012-.1-.089-.168-.244-.168a14.256,14.256,0,0,1-2.193-.258c.065.7.117,1.188.144,1.473a5.957,5.957,0,0,1-.166.993,3.223,3.223,0,0,1-.207.568v-.168a7.367,7.367,0,0,1,.079-1.1h-.79V33.587a.474.474,0,0,1,.181-.411.38.38,0,0,0,.13-.222c-.027-.075-.118-.129-.259-.129a14.63,14.63,0,0,1-2.348-.13c.026.506.053.986.078,1.447v.776Zm6.912,2.621H33.074a8.286,8.286,0,0,0,.282-.785h.724Z" transform="translate(-4.872 -5.9)" fill="#1a1311"/>
          <path id="Path_765" data-name="Path 765" d="M48.853,34.427a15.913,15.913,0,0,0-.177-1.731q.7.077,2.474.077c.153,0,.234.066.257.168a.477.477,0,0,1-.152.22.544.544,0,0,0-.13.349c0,.258,0,.57.025.916h.733c-.114-.166-.23-.336-.361-.517a9,9,0,0,0,1.718-1.123,10.191,10.191,0,0,1,1.754,2.273,9.268,9.268,0,0,0-.852.466v.089a7.172,7.172,0,0,0,.09,1.189H51.318c.026.3.052.608.089.942a14.655,14.655,0,0,0,.619,3.371.59.59,0,0,0,.506.453,2.042,2.042,0,0,0,.616-.361,4.614,4.614,0,0,0,.906-.942,15.462,15.462,0,0,0,.588,3.123,4.134,4.134,0,0,0-1.044.661,3.093,3.093,0,0,1-1.533.595,1.783,1.783,0,0,1-1.483-.93,8.9,8.9,0,0,1-1.073-3.036,30.067,30.067,0,0,1-.515-3.875H42.858c.025-.4.066-.8.091-1.189-.025-.4-.066-.8-.091-1.188Zm-.126,3.205a8.351,8.351,0,0,0-.082,1.11,8.03,8.03,0,0,0,.082,1.11h-1.56v1.5c.216-.027.45-.066.71-.1.411-.052.824-.118,1.236-.207a6.23,6.23,0,0,0-.117,1.189,5.278,5.278,0,0,0,.117,1.084c-1.919.31-3.777.607-5.556.877-.157.132-.245.193-.3.193-.1,0-.17-.061-.183-.193,0-.413,0-.8.025-1.159-.037-.415-.087-.842-.154-1.282.231,0,.489-.013.774-.013.2,0,.554-.029,1.069-.075v-1.81H43.219c.027-.364.063-.735.092-1.11-.029-.361-.065-.733-.092-1.11Z" transform="translate(-7.734 -5.9)" fill="#1a1311"/>
          <path id="Path_766" data-name="Path 766" d="M64.565,32.79c.361-.014.787-.04,1.25-.078a8.831,8.831,0,0,0,2.256,1.73,11.962,11.962,0,0,0,2.541,1.126,14.711,14.711,0,0,0-1.133,2.375c-.606-.259-1.188-.529-1.729-.828a4.61,4.61,0,0,0,.079.853H61.316c.025-.259.04-.5.065-.748-.541.283-1.1.545-1.651.775a10.447,10.447,0,0,0-1.2-2.325,12.232,12.232,0,0,0,2.748-1.344,8.705,8.705,0,0,0,2.036-1.614c.452.038.865.064,1.251.078m1.02,3.011c-.337-.233-.659-.469-.967-.725-.325.257-.648.493-.966.725Zm4.758,2.723a7.528,7.528,0,0,0,0,2.171H68.537a16.632,16.632,0,0,1,1.972,2.634A11.211,11.211,0,0,0,68.382,44.7c-.17-.31-.361-.632-.58-.954-2.708.335-5.339.569-7.868.674a.833.833,0,0,1-.282.23.247.247,0,0,1-.178-.26,7.882,7.882,0,0,0-.6-2.233c.647,0,1.228.014,1.756.014L61.5,40.7H58.751c.025-.364.052-.724.075-1.087-.024-.361-.051-.723-.075-1.084ZM65.726,41.2c.31-.181.606-.349.874-.5H64.168l-.762,1.291c.67-.066,1.469-.157,2.372-.259.129-.016.271-.024.4-.052-.159-.155-.3-.31-.452-.477" transform="translate(-10.562 -5.903)" fill="#1a1311"/>
          <path id="Path_767" data-name="Path 767" d="M78.392,32.762c.156,0,.233.052.233.143a.469.469,0,0,1-.143.207.517.517,0,0,0-.18.427V34.6h1.5a4.845,4.845,0,0,0-.1,1.059v1.432c-.184.313-.378.6-.556.879a12.843,12.843,0,0,1,1.614,1.473A16.92,16.92,0,0,0,79.332,41.4c-.31-.386-.631-.761-.953-1.1v4.42a7.387,7.387,0,0,0-2.322,0v-3.1c-.206.2-.4.378-.606.545A10.991,10.991,0,0,0,74.2,39.518,8.26,8.26,0,0,0,77.114,36.9H74.42c.025-.5.054-.919.079-1.241-.025-.3-.054-.644-.079-1.059h1.613v-.491c-.025-.467-.05-.956-.078-1.472a16.093,16.093,0,0,0,2.436.127m3.339,2.543v-.992c-.038-.515-.075-1.083-.1-1.678a18.077,18.077,0,0,0,2.759.152c.18,0,.272.055.272.157a.426.426,0,0,1-.157.233.6.6,0,0,0-.2.493v1.636h1.919a9.313,9.313,0,0,0-.075,1.165,8.936,8.936,0,0,0,.075,1.151H84.3v4.338h2.036a7.2,7.2,0,0,0,0,2.43H79.242c.027-.416.066-.814.09-1.215-.025-.4-.063-.8-.09-1.215H81.73V37.621H79.9c.022-.376.061-.765.089-1.151-.027-.387-.066-.775-.089-1.165Z" transform="translate(-13.391 -5.889)" fill="#1a1311"/>
          <path id="Path_768" data-name="Path 768" d="M110.565,40.164c-2.642,3.068-5.951,3.748-9.052,4.784l-2.264-3.44c5.617-1,6.957-2.684,6.957-2.684s-2.489-1.713-3.352-2.352l2.682-2.684c.733.375,3.354,2.35,3.354,2.35a6.211,6.211,0,0,0,1.075-1.618,8.687,8.687,0,0,0,.7-1.928l-5.636-.066a18.7,18.7,0,0,1-4.945,4.62l-2.346-2.771a10.888,10.888,0,0,0,3.939-3.36,17.891,17.891,0,0,0,2.418-3.6l3.616.49s-.277,1.219-.5,1.262l7.705.042a19.342,19.342,0,0,1-4.356,10.952" transform="translate(-17.639 -4.948)" fill="#1a1311"/>
          <path id="Path_769" data-name="Path 769" d="M128.842,45.222c-.77-1.2-1.551-2.689-2.684-4.475a20.741,20.741,0,0,0-2.9-3.694l3.239-2.124,2.349,2.568a10.652,10.652,0,0,0,2.571-1.9,6,6,0,0,0,1.341-2.716l-11.9.34V29.357s16.592-.264,16.815,0c0,0-.278,5.021-2.794,7.922a31.558,31.558,0,0,1-3.908,3.468s.942,1.708,1.449,2.462Z" transform="translate(-21.81 -5.277)" fill="#1a1311"/>
          <path id="Path_770" data-name="Path 770" d="M157.076,44.635a58.616,58.616,0,0,1-2.6-6.714,49.3,49.3,0,0,1-2.011-8.14l3.271-1.094A30.5,30.5,0,0,0,157.5,35.4c.922,2.294,2.021,5.111,2.85,6.881ZM146.1,44.553l-3.292-2.312a20.077,20.077,0,0,0,3.042-6.334,25.115,25.115,0,0,0,1.443-7.444l3.492,1.2s-.328,9.348-4.685,14.888" transform="translate(-25.771 -5.137)" fill="#1a1311"/>
          <path id="Path_771" data-name="Path 771" d="M173.253,34.226a37.81,37.81,0,0,0-5.277-2.87l1.678-2.973a14.621,14.621,0,0,1,5.361,2.472Zm6.288,5.945a11.583,11.583,0,0,1-5.2,3.359c-1.2.4-6.536,1.509-6.536,1.509a13.907,13.907,0,0,0-.418-1.679c-.3-.864-.9-2.22-.9-2.22s5.621-.6,8.653-2.37c3.407-1.987,4.4-8.083,4.4-8.083l3.352,2.1a18.919,18.919,0,0,1-3.352,7.384M171.346,38.8a19.352,19.352,0,0,0-2.282-1.316c-1.214-.55-1.909-.909-3.017-1.346l1.76-3.272a11.8,11.8,0,0,1,5.447,2.854Z" transform="translate(-29.965 -5.122)" fill="#1a1311"/>
          <path id="Path_772" data-name="Path 772" d="M153.467,12.733h1.115s.558-2.9-3.569-2.9c-3.791,0-3.791,2.346-3.791,2.794v3.462s.055,2.4,3.847,2.4c4.071,0,3.513-3.185,3.513-3.185h-1s.39,2.178-2.566,2.178c-2.845,0-2.677-1.621-2.677-2.4V12.623s-.279-1.788,2.566-1.788c3.068,0,2.566,1.9,2.566,1.9" transform="translate(-26.568 -1.774)" fill="#1a1311"/>
          <path id="Path_773" data-name="Path 773" d="M163.713,9.9h-2.062a2.761,2.761,0,0,0-2.845,2.99v3.072a2.881,2.881,0,0,0,2.845,2.682h2.062a2.709,2.709,0,0,0,2.679-2.682V12.886s-.168-2.99-2.679-2.99m1.544,3.4v2.155a1.716,1.716,0,0,1-1.625,1.877h-1.7a2.016,2.016,0,0,1-1.992-1.877V13.3a1.932,1.932,0,0,1,1.992-2.094h1.7c1.759,0,1.625,2.094,1.625,2.094" transform="translate(-28.658 -1.786)" fill="#1a1311"/>
          <rect id="Rectangle_14" data-name="Rectangle 14" width="1.393" height="1.677" transform="translate(140.173 15.093)" fill="#1a1311"/>
          <rect id="Rectangle_15" data-name="Rectangle 15" width="1.393" height="1.677" transform="translate(175.366 15.093)" fill="#1a1311"/>
          <path id="Path_774" data-name="Path 774" d="M177.69,18.418h-1.373v1.564h.506a.7.7,0,0,1,.052.279.737.737,0,0,1-.5.784c-.169.055-.391.557.167.335.515-.207,1.087-.3,1.148-1.4Z" transform="translate(-31.795 -3.324)" fill="#1a1311"/>
          <path id="Path_775" data-name="Path 775" d="M183.031,16.7V6.419H181.86V17.873h7.417V16.7Z" transform="translate(-32.819 -1.159)" fill="#1a1311"/>
          <path id="Path_776" data-name="Path 776" d="M207.952,6.42v3.674a2.117,2.117,0,0,0-1.727-.8h-1.714a2.543,2.543,0,0,0-2.619,2.752v3.426a2.654,2.654,0,0,0,2.619,2.469h1.714a2.767,2.767,0,0,0,1.727-.725V17.7h1.171V6.42Zm-.3,6V15a1.584,1.584,0,0,1-1.5,1.731h-1.377A1.86,1.86,0,0,1,202.937,15v-2.58a1.782,1.782,0,0,1,1.836-1.929h1.377c1.619,0,1.5,1.929,1.5,1.929" transform="translate(-36.434 -1.159)" fill="#1a1311"/>
          <path id="Path_777" data-name="Path 777" d="M196.5,16.956c-.447,0-.755-.7-.755-1.258V10.642h2.315V9.469h-2.315V7.374h-1.17V9.469h-1.757v1.174h1.757V15.7c0,1.228.417,2.431,1.925,2.431h1.839V16.956Z" transform="translate(-34.796 -1.331)" fill="#1a1311"/>
          <path id="Path_778" data-name="Path 778" d="M8.778,4.289H.752L0,6.8H8.026Z" transform="translate(0 -0.774)" fill="#dc000c"/>
        </g>
      </g>
    </g>
  </g>
</svg>
