<svg xmlns="http://www.w3.org/2000/svg" xmlns:xlink="http://www.w3.org/1999/xlink" width="242" height="90" viewBox="0 0 242 90">
  <defs>
    <clipPath id="clip-path">
      <rect id="Rectangle_12" data-name="Rectangle 12" width="48.332" height="49.897" fill="none"/>
    </clipPath>
  </defs>
  <g id="Group_96" data-name="Group 96" transform="translate(-392.25 -6947)">
    <g id="bg_white" transform="translate(392.25 6947)" fill="#fff" stroke="#e7f2f5" stroke-width="2">
      <rect width="242" height="90" stroke="none"/>
      <rect x="1" y="1" width="240" height="88" fill="none"/>
    </g>
    <g id="Group_23" data-name="Group 23" transform="translate(488.585 6967)">
      <g id="Group_22" data-name="Group 22" clip-path="url(#clip-path)">
        <path id="Path_738" data-name="Path 738" d="M22.79,0C50.422-.345,49.5,23.345,48.99,32.833a3.47,3.47,0,0,1-3.449,3.511H43.433a3.313,3.313,0,0,1-3.2-2.124c-.366-.822-.4-1.219-1.184-1.459a2.424,2.424,0,0,0-1.851.449c-2.146,1.276-7.317,3.926-16.522,3.926-12.117,0-19.543-3.97-19.543-10.7S9.708,13.711,18.991,13.711s14.232,4.5,14.232,9.812a8.276,8.276,0,0,1-.9,3.876,5.9,5.9,0,0,1-2.45,2.363,10.974,10.974,0,0,1-5.646.579c-.8-.093-1.412-.288-1.709-.954A1.927,1.927,0,0,1,22.8,27.73a6.736,6.736,0,0,0,.968-3.415,6.619,6.619,0,0,0-6.721-6.8,6.7,6.7,0,0,0-6.716,6.72c0,3.274,3.18,9.992,13.617,9.992,9.017,0,14.677-7.426,14.677-14.944A14.4,14.4,0,0,0,23.763,4.685c-7.243,0-10.829,4.676-12.706,7.292a2.789,2.789,0,0,1-1.237,1.1,5.636,5.636,0,0,1-2.532.363H3.545a1.709,1.709,0,0,1-1.7-.851A2.006,2.006,0,0,1,2,10.851C2.449,10.034,7.964.687,22.79,0" transform="translate(-0.83 0)" fill="#c30013"/>
        <path id="Path_739" data-name="Path 739" d="M8.481,167.241H8.368a.481.481,0,0,1-.5-.309q-1.218-2.494-2.431-4.982a.49.49,0,0,0-.5-.313H3.9a.486.486,0,0,0-.493.3q-1.683,3.22-3.371,6.443a.325.325,0,0,0,.29.474h.865a.479.479,0,0,0,.488-.3c.087-.16.169-.313.252-.476a.24.24,0,0,1,.246-.148H6.436a.254.254,0,0,1,.227.116,1.744,1.744,0,0,0,1.591.814h.228c.225,0,.323-.1.323-.323v-.97c0-.228-.1-.323-.323-.323m-2.836-.858H3.039c-.134-.008-.174-.084-.113-.2.449-.859.895-1.713,1.338-2.569.071-.134.19-.131.25,0,.419.855.838,1.713,1.257,2.565.058.124.007.2-.125.2" transform="translate(0 -119.007)" fill="#1a1311"/>
        <path id="Path_740" data-name="Path 740" d="M41.355,161.636H37.038c-.226,0-.325.1-.325.325v6.564c0,.232.1.323.325.323h4.316a3.607,3.607,0,0,0,0-7.213m-.005,5.668.17,0v0H38.657c-.228,0-.325-.091-.325-.323V163.5c0-.225.1-.323.325-.323H41.52v.005l-.17-.005c.055,0,.112.005.166.008a2.062,2.062,0,0,1-.166,4.118" transform="translate(-27.03 -119.006)" fill="#1a1311"/>
        <path id="Path_741" data-name="Path 741" d="M79.61,166.994H78.48a.286.286,0,0,0-.259.127.405.405,0,0,1-.373.182H73.527c-.231,0-.323-.091-.323-.324v-.6c0-.231.092-.323.323-.323h5.038a.319.319,0,0,0,.313-.4c-.07-.3-.137-.6-.207-.9a.276.276,0,0,0-.315-.246H73.527c-.231,0-.323-.1-.323-.326V163.5c0-.225.092-.324.323-.324h5.038a.319.319,0,0,0,.313-.4c-.07-.3-.137-.6-.207-.892a.279.279,0,0,0-.315-.254H71.91c-.229,0-.324.1-.324.325v6.564c0,.232.1.323.324.323h5.753a2.506,2.506,0,0,0,2.24-1.389.326.326,0,0,0-.293-.465m-6.109-.934v0Z" transform="translate(-52.706 -119.006)" fill="#1a1311"/>
        <path id="Path_742" data-name="Path 742" d="M114.255,167.448c-.063,0-.543-.052-1.244-.886l-.006,0c-.077-.094-.056-.17.053-.22a2.332,2.332,0,0,0-.893-4.486h-5.185c-.23,0-.322.094-.322.323v6.564c0,.229.092.323.322.323h.969c.228,0,.322-.094.322-.323v-1.9s0-.011,0-.021h0c.007-.207.1-.3.32-.3h1.937a.529.529,0,0,1,.267.066,5.536,5.536,0,0,1,1.386,1.384A2.472,2.472,0,0,0,114.1,169h.132c.233,0,.327-.093.327-.323v-.9c0-.219-.088-.313-.3-.328m-2.066-2.583h-3.6c-.226,0-.323-.094-.323-.323v-.822c0-.229.1-.325.323-.325h3.621a.737.737,0,0,1-.024,1.471" transform="translate(-78.527 -119.164)" fill="#1a1311"/>
        <path id="Path_743" data-name="Path 743" d="M159.138,168.381q-1.6-3.217-3.193-6.433a.483.483,0,0,0-.5-.311H154.41a.487.487,0,0,0-.5.313q-1.23,2.518-2.456,5.031a.408.408,0,0,1-.419.26h-.166c-.23,0-.325.1-.325.323v.97c0,.227.1.323.325.323h.228a1.76,1.76,0,0,0,1.594-.814.245.245,0,0,1,.226-.116H157a.249.249,0,0,1,.255.153c.074.159.15.309.226.462a.485.485,0,0,0,.5.309h.868a.325.325,0,0,0,.289-.469m-2.952-2H153.7c-.129,0-.18-.079-.119-.2.407-.84.817-1.676,1.228-2.522.065-.131.184-.131.249,0,.419.846.838,1.682,1.254,2.522.058.124.007.2-.127.2" transform="translate(-110.84 -119.007)" fill="#1a1311"/>
        <path id="Path_744" data-name="Path 744" d="M141.952,161.636h-.968c-.23,0-.322.1-.322.325v6.564c0,.232.093.323.322.323h.968c.229,0,.323-.092.323-.323v-6.564c0-.229-.094-.325-.323-.325" transform="translate(-103.564 -119.006)" fill="#1a1311"/>
      </g>
    </g>
  </g>
</svg>
