<svg xmlns="http://www.w3.org/2000/svg" width="242" height="90" viewBox="0 0 242 90">
  <g id="Group_133" data-name="Group 133" transform="translate(-141 -8288)">
    <g id="bg_white" transform="translate(141 8288)" fill="#fff" stroke="#e7f2f5" stroke-width="2">
      <rect width="242" height="90" stroke="none"/>
      <rect x="1" y="1" width="240" height="88" fill="none"/>
    </g>
    <g id="吉田刃物株式会社logo" transform="translate(236.752 8297.974)">
      <g id="Group_54" data-name="Group 54">
        <path id="Path_926" data-name="Path 926" d="M60.742,138.69V136.9L59.4,134.465h.627l.6,1.166c.157.32.288.577.42.871h.013c.113-.275.263-.551.426-.871l.608-1.166H62.7l-1.41,2.426v1.8Z" transform="translate(-59.314 -81.187)" fill="#1d1a1a"/>
        <path id="Path_927" data-name="Path 927" d="M74.775,138.707a1.933,1.933,0,0,1-1.9-2.143,2,2,0,0,1,1.955-2.219,1.925,1.925,0,0,1,1.906,2.138,1.981,1.981,0,0,1-1.956,2.225Zm.025-.445c.865,0,1.354-.8,1.354-1.755,0-.84-.439-1.718-1.348-1.718s-1.36.847-1.36,1.762c0,.89.489,1.711,1.347,1.711Z" transform="translate(-65.112 -81.135)" fill="#1d1a1a"/>
        <path id="Path_928" data-name="Path 928" d="M87.705,137.973a1.854,1.854,0,0,0,.971.276c.558,0,.884-.288.884-.721,0-.389-.226-.62-.8-.834-.689-.251-1.116-.614-1.116-1.2a1.216,1.216,0,0,1,1.366-1.147,1.9,1.9,0,0,1,.928.207l-.15.445a1.564,1.564,0,0,0-.8-.2c-.577,0-.8.345-.8.633,0,.4.257.589.84.815.715.281,1.072.62,1.072,1.241,0,.652-.476,1.222-1.473,1.222a2.181,2.181,0,0,1-1.078-.276Z" transform="translate(-71.43 -81.135)" fill="#1d1a1a"/>
        <path id="Path_929" data-name="Path 929" d="M101.158,134.465v1.767H103.2v-1.767h.552v4.225H103.2v-1.981h-2.044v1.981h-.552v-4.225Z" transform="translate(-77.043 -81.187)" fill="#1d1a1a"/>
        <rect id="Rectangle_40" data-name="Rectangle 40" width="0.552" height="4.225" transform="translate(31.785 53.278)" fill="#1d1a1a"/>
        <path id="Path_930" data-name="Path 930" d="M124.928,134.5a7.97,7.97,0,0,1,1.166-.088,2.418,2.418,0,0,1,1.711.52,1.94,1.94,0,0,1,.6,1.523,2.26,2.26,0,0,1-.608,1.643,2.628,2.628,0,0,1-1.874.608,7.632,7.632,0,0,1-1-.05Zm.551,3.742a3.544,3.544,0,0,0,.552.025,1.622,1.622,0,0,0,1.8-1.793,1.5,1.5,0,0,0-1.712-1.629,3.1,3.1,0,0,0-.639.056Z" transform="translate(-87.508 -81.163)" fill="#1d1a1a"/>
        <path id="Path_931" data-name="Path 931" d="M139.746,137.361l-.438,1.329h-.564l1.435-4.225h.658l1.442,4.225H141.7l-.451-1.329Zm1.386-.426-.42-1.216c-.088-.276-.15-.526-.213-.771h-.019c-.056.244-.125.508-.206.765l-.414,1.223Z" transform="translate(-93.452 -81.187)" fill="#1d1a1a"/>
        <path id="Path_932" data-name="Path 932" d="M60.646,149.465v1.767h2.043v-1.767h.552v4.225h-.552v-1.981H60.646v1.981h-.552v-4.225Z" transform="translate(-59.613 -87.641)" fill="#1d1a1a"/>
        <path id="Path_933" data-name="Path 933" d="M76.134,152.361,75.7,153.69h-.564l1.436-4.225h.658l1.441,4.225h-.583l-.451-1.329Zm1.386-.426-.42-1.216c-.088-.276-.15-.526-.213-.771h-.019c-.056.244-.125.508-.206.765l-.414,1.223Z" transform="translate(-66.082 -87.641)" fill="#1d1a1a"/>
        <path id="Path_934" data-name="Path 934" d="M94.094,151.835c-.031-.589-.069-1.3-.069-1.824h-.013c-.15.489-.32,1.022-.533,1.6l-.746,2.05H92.32l-.689-2.012c-.2-.6-.364-1.141-.483-1.643h-.013c-.013.526-.044,1.228-.081,1.868l-.113,1.812h-.52l.295-4.225h.7l.721,2.044c.175.52.313.983.426,1.423h.013c.112-.426.263-.89.451-1.423l.752-2.044h.7l.263,4.225h-.539Z" transform="translate(-72.661 -87.642)" fill="#1d1a1a"/>
        <path id="Path_935" data-name="Path 935" d="M109.337,153.706a1.933,1.933,0,0,1-1.9-2.143,2,2,0,0,1,1.956-2.219,1.924,1.924,0,0,1,1.9,2.138,1.98,1.98,0,0,1-1.955,2.225Zm.025-.445c.865,0,1.354-.8,1.354-1.755,0-.84-.439-1.718-1.347-1.718s-1.361.847-1.361,1.762c0,.89.489,1.711,1.347,1.711Z" transform="translate(-79.983 -87.589)" fill="#1d1a1a"/>
        <path id="Path_936" data-name="Path 936" d="M123.652,153.69v-4.225h.6L125.6,151.6a11.345,11.345,0,0,1,.751,1.373l.019-.007c-.05-.563-.062-1.077-.062-1.73v-1.774h.513v4.225h-.551l-1.342-2.144a12.289,12.289,0,0,1-.783-1.41l-.019.006c.032.533.038,1.041.038,1.742v1.806Z" transform="translate(-86.959 -87.641)" fill="#1d1a1a"/>
        <path id="Path_937" data-name="Path 937" d="M140.764,153.706a1.933,1.933,0,0,1-1.9-2.143,2,2,0,0,1,1.956-2.219,1.925,1.925,0,0,1,1.905,2.138,1.981,1.981,0,0,1-1.955,2.225Zm.025-.445c.865,0,1.354-.8,1.354-1.755,0-.84-.439-1.718-1.347-1.718s-1.361.847-1.361,1.762c0,.89.489,1.711,1.347,1.711Z" transform="translate(-93.504 -87.589)" fill="#1d1a1a"/>
        <path id="Path_938" data-name="Path 938" d="M82.51,41.971V68.4A99.826,99.826,0,0,1,70.9,49.307l-1.647,1.04A100.343,100.343,0,0,0,82.51,71.476v8.873a137.043,137.043,0,0,1-17.868-27.09l-5.394,3.408A141.4,141.4,0,0,0,82.51,89.828q.795.843,1.615,1.685V40.952Z" transform="translate(-59.249 -40.952)" fill="#1d1a1a"/>
      </g>
    </g>
  </g>
</svg>
