<svg xmlns="http://www.w3.org/2000/svg" xmlns:xlink="http://www.w3.org/1999/xlink" width="242" height="90" viewBox="0 0 242 90">
  <defs>
    <clipPath id="clip-path">
      <rect id="Rectangle_39" data-name="Rectangle 39" width="205.306" height="10" fill="none"/>
    </clipPath>
  </defs>
  <g id="Group_102" data-name="Group 102" transform="translate(-140.25 -7096)">
    <g id="bg_white" transform="translate(140.25 7096)" fill="#fff" stroke="#e7f2f5" stroke-width="2">
      <rect width="242" height="90" stroke="none"/>
      <rect x="1" y="1" width="240" height="88" fill="none"/>
    </g>
    <g id="Group_51" data-name="Group 51" transform="translate(159.211 7136)">
      <g id="Group_50" data-name="Group 50" clip-path="url(#clip-path)">
        <path id="Path_907" data-name="Path 907" d="M105.5,6.233A3.29,3.29,0,0,1,109.072,9.6a3.54,3.54,0,0,1-3.623,3.668,3.381,3.381,0,0,1-3.524-3.525A3.491,3.491,0,0,1,105.5,6.233m.189,6.692c.819,0,2.508-.465,2.508-3.075,0-2.153-1.327-3.311-2.763-3.311-1.516,0-2.651.987-2.651,2.951,0,2.091,1.271,3.436,2.906,3.436" transform="translate(-70.905 -4.336)" fill="#1a1311"/>
        <path id="Path_908" data-name="Path 908" d="M140.557,4.343a13.737,13.737,0,0,1-.271,3.815,3.625,3.625,0,0,1-1.107,1.507c-.031.029-.144.062-.167-.047-.013-.064.068-.187.092-.22.408-.573.691-1.467.691-4V4.343c0-1.748,0-2.061-.018-2.42a.939.939,0,0,0-.164-.581c-.076-.093-.12-.107-.12-.161s.032-.089.12-.089H140.7c.164,0,.088.115.023.2a1.06,1.06,0,0,0-.152.634c-.018.359-.018.673-.018,2.42" transform="translate(-96.703 -0.759)" fill="#1a1311"/>
        <path id="Path_909" data-name="Path 909" d="M184.41,4.339c0-1.748,0-2.061-.018-2.42a2.336,2.336,0,0,0-.026-.352.535.535,0,0,0-.142-.3c-.055-.054-.069-.182.054-.182h.97c.121,0,.133.062.079.157a.575.575,0,0,0-.094.177,1.834,1.834,0,0,0-.075.5c-.018.359-.018.673-.018,2.42v.674h.036c.155-.213,1.8-2.274,2.126-2.714a2.971,2.971,0,0,0,.489-.807.258.258,0,0,0-.049-.234c-.09-.122-.036-.17.025-.17h.944c.087,0,.252-.02.24.089-.006.07-.118.113-.251.226a7.119,7.119,0,0,0-.892.964c-.226.27-1.808,2.177-2,2.457.236.323,2.128,2.734,2.5,3.161a10.592,10.592,0,0,0,1.166,1.224,1.969,1.969,0,0,0,.261.2c.088.054.089.155-.033.155,0,0-.45,0-.648-.023a1.78,1.78,0,0,1-1.1-.685c-.408-.415-2.334-2.983-2.77-3.644h-.044v1.1c0,1.078,0,1.965.044,2.435a1.668,1.668,0,0,0,.143.6c.037.07.142.224.02.224h-1.1c-.14,0-.056-.14-.033-.182a1.866,1.866,0,0,0,.152-.637c.046-.47.046-1.356.046-2.435Z" transform="translate(-128.115 -0.756)" fill="#1a1311"/>
        <path id="Path_910" data-name="Path 910" d="M216.4,6.318c0,1.078,0,1.965.045,2.435a1.824,1.824,0,0,0,.1.556,1.366,1.366,0,0,0,.1.149c.028.036.012.114-.075.114H215.46c-.019,0-.066-.008-.066-.075s.056-.094.089-.175a2.224,2.224,0,0,0,.112-.569c.046-.47.046-1.356.046-2.435V4.344c0-1.748,0-2.062-.018-2.42a1.3,1.3,0,0,0-.1-.446,1.03,1.03,0,0,0-.155-.228c-.086-.1-.043-.157.006-.157h1.186c.048,0,.088.008.072.07s-.117.166-.161.289a1.556,1.556,0,0,0-.053.472c-.018.359-.018.673-.018,2.42Z" transform="translate(-149.79 -0.76)" fill="#1a1311"/>
        <path id="Path_911" data-name="Path 911" d="M162.925,6.318c0,1.078,0,1.965.047,2.435a2.031,2.031,0,0,0,.1.556,1.353,1.353,0,0,0,.1.149c.029.036.011.114-.076.114h-1.115a.066.066,0,0,1-.065-.075c0-.066.055-.094.088-.175a2.125,2.125,0,0,0,.112-.569c.047-.47.047-1.356.047-2.435V4.344c0-1.748,0-2.062-.018-2.42a1.262,1.262,0,0,0-.1-.446,1.073,1.073,0,0,0-.15-.228c-.089-.1-.043-.157.006-.157h1.185c.047,0,.087.008.072.07s-.117.166-.162.289a1.651,1.651,0,0,0-.052.472c-.02.359-.02.673-.02,2.42Z" transform="translate(-112.588 -0.76)" fill="#1a1311"/>
        <path id="Path_912" data-name="Path 912" d="M256.128,5.962c0,1.078,0,1.965.045,2.435s.123.543.189.624c.052.063.056.195-.054.195h-1.146c-.132,0-.057-.171-.033-.195a1.21,1.21,0,0,0,.189-.624c.046-.47.046-1.356.046-2.435V1.22l-1.317-.013c-.564.011-.818.13-.951.346a.11.11,0,0,1-.14.027c-.038-.025-.04-.085-.033-.15a6.955,6.955,0,0,1,.172-.85l5.42.014c.045,0,.045.067.045.135,0,.153,0,.41-.012.656,0,.074-.026.144-.08.14s-.089-.082-.151-.155c-.146-.164-.576-.151-1.031-.164l-1.159.013Z" transform="translate(-175.943 -0.404)" fill="#1a1311"/>
        <path id="Path_913" data-name="Path 913" d="M74.776,5.962c0,1.078,0,1.965.047,2.435s.123.543.189.624c.051.063.054.195-.055.195H73.812c-.132,0-.057-.171-.033-.195a1.2,1.2,0,0,0,.189-.624c.047-.47.047-1.356.047-2.435V1.22L72.7,1.207c-.565.011-.819.13-.95.346a.114.114,0,0,1-.143.027c-.038-.025-.039-.085-.033-.15a6.948,6.948,0,0,1,.171-.85l5.421.014c.045,0,.045.067.045.135,0,.153,0,.41-.012.656,0,.074-.025.144-.079.14s-.09-.082-.153-.155c-.144-.164-.575-.151-1.029-.164l-1.161.013Z" transform="translate(-49.787 -0.404)" fill="#1a1311"/>
        <path id="Path_914" data-name="Path 914" d="M285.958.58c2.044,0,3.57,1.593,3.57,4.206,0,2.512-1.436,4.585-3.625,4.585-2.49,0-3.524-2.388-3.524-4.407,0-1.817,1.071-4.384,3.579-4.384m.193,8.366c.816,0,2.5-.583,2.5-3.846,0-2.693-1.328-4.141-2.763-4.141-1.514,0-2.65,1.235-2.65,3.69,0,2.614,1.273,4.3,2.908,4.3" transform="translate(-196.437 -0.404)" fill="#1a1311"/>
        <path id="Path_915" data-name="Path 915" d="M320.138,7.829a2.357,2.357,0,0,0,.216,1.276c.088.1.1.25-.076.25h-.829c-.1,0-.155-.13-.032-.224.152-.122.176-.405.176-1.425l-.045-6.427c0-.123.009-.211.009-.279,0-.118.023-.22.144-.22a.228.228,0,0,1,.167.056c.063.079.132.181.183.243.135.19,1.46,2,2.858,3.847.9,1.188,1.89,2.556,2.18,2.926l-.1-5.7c-.007-.616-.062-.911-.234-1.057-.15-.126-.033-.222.075-.222h.754c.027,0,.164-.007.164.1,0,.055-.088.12-.114.161a2.207,2.207,0,0,0-.11.927l-.018,6.573c0,.287,0,.471-.011.59a.166.166,0,0,1-.293.107c-.1-.1-.274-.391-.426-.58-.1-.112-1.422-1.8-2.386-3.078-1.055-1.4-2.081-2.816-2.369-3.218Z" transform="translate(-222.154 -0.542)" fill="#1a1311"/>
        <path id="Path_916" data-name="Path 916" d="M355.548,6.666a2.806,2.806,0,0,0-.21-1.177c-.062-.18-1.278-2.648-1.6-3.23a2.938,2.938,0,0,0-.618-.829.917.917,0,0,0-.194-.124c-.079-.038-.1-.215.091-.215h1.333c.14,0,.029.146.009.17a.489.489,0,0,0-.077.213,1.129,1.129,0,0,0,.119.436c.143.325,1.507,3.218,1.67,3.545.174-.471,1.327-2.927,1.509-3.3a1.288,1.288,0,0,0,.155-.572.422.422,0,0,0-.052-.241c-.094-.125-.141-.253.027-.253h1.04c.156,0,.183.128.03.24-.037.027-.081.045-.12.075a1.924,1.924,0,0,0-.479.572,38.171,38.171,0,0,0-1.737,3.567,3.309,3.309,0,0,0-.134,1.121v.964c0,.18.027.65.027,1.122,0,.569.228.569.228.7,0,.108-.072.114-.086.114h-1.1c-.088,0-.11-.088-.055-.127.141-.107.178-.366.195-.692.029-.47.029-.943.029-1.122Z" transform="translate(-245.474 -0.76)" fill="#1a1311"/>
        <path id="Path_917" data-name="Path 917" d="M383.949,1.018c.109-.37.145-.438.2-.438s.09.055.2.4c.135.427,1.561,5.058,2.116,6.765a3.838,3.838,0,0,0,.528,1.119.829.829,0,0,0,.162.167c.089.068.109.184.029.184-.447,0-1.171.006-1.171.006-.146,0-.087-.109-.068-.149a.406.406,0,0,0-.007-.341l-.844-2.76c-.02-.045-.037-.067-.082-.067H383.06c-.045,0-.073.033-.09.092l-.546,1.983a4.75,4.75,0,0,0-.147.8.338.338,0,0,0,.076.243c.015.016.076.094.04.152s-.116.043-.131.043h-.8c-.02,0-.069.018-.059-.059s.057-.082.119-.182a5.434,5.434,0,0,0,.367-.993ZM384.9,5.5c.044,0,.044-.032.036-.077L384.067,2.4c-.044-.169-.09-.169-.135,0l-.8,3.028c-.02.057,0,.077.025.077Z" transform="translate(-265.32 -0.404)" fill="#1a1311"/>
        <path id="Path_918" data-name="Path 918" d="M106.91.686c0,.057.029.067.055.067h3.852c.029,0,.054-.01.054-.067v.561c0-.044-.025-.068-.054-.068h-3.852c-.026,0-.055.013-.055.068Z" transform="translate(-74.372 -0.477)" fill="#1a1311"/>
        <path id="Path_919" data-name="Path 919" d="M13.284,13.242a3.521,3.521,0,1,1-3.52-3.521,3.52,3.52,0,0,1,3.52,3.521" transform="translate(-4.342 -6.763)" fill="#1a1311"/>
        <path id="Path_920" data-name="Path 920" d="M10.7.125A1.523,1.523,0,0,1,9.888.36C9.274.435,8.115.435,6.71.435H4.132C2.726.435,1.567.435.954.36A2.723,2.723,0,0,1,.268.208.385.385,0,0,1,.146.125C.056.024,0,.042,0,.169V2.133c0,.2.056.086.146-.014a1.537,1.537,0,0,1,.807-.236c.614-.072,1.773-.072,3.178-.072H6.71c1.405,0,2.564,0,3.178.072a1.541,1.541,0,0,1,.807.236c.09.1.146.216.146.014V.112c0-.2-.056-.088-.146.013" transform="translate(0 0)" fill="#1a1311"/>
        <rect id="Rectangle_37" data-name="Rectangle 37" width="1.83" height="0.351" transform="translate(137.137 5.865)" fill="#1a1311"/>
        <path id="Path_921" data-name="Path 921" d="M474.724,4.454l.552.591a.549.549,0,0,1-.359.079c-.239.5-.711,1.422-1.013,1.909,1.156.886,1.221,1.549,1.221,1.947a1,1,0,0,1-1.071,1.167c0-.32-.119-.36-.559-.408V9.611h.72c.335,0,.43-.3.43-.7a2.537,2.537,0,0,0-.927-1.851c.193-.5.513-1.437.711-2.077h-1.173V11.52a.4.4,0,0,1-.358.159h-.065V4.542l.52.231H474.4Zm4.583.766.6.487a.5.5,0,0,1-.327.128c-.032,3.33-.1,5.149-.416,5.516a.973.973,0,0,1-.821.327c0-.264-.057-.352-.807-.439v-.159c.313.023.76.039.975.039.159,0,.207-.016.288-.1.254-.288.311-2.1.342-5.269h-3.058a5.847,5.847,0,0,1-1.173,1.461l-.127-.089a8.162,8.162,0,0,0,1.38-2.825l.736.254c-.033.1-.1.145-.289.128a7.6,7.6,0,0,1-.415.87h2.858ZM478,10.187h-2.045v.439c0,.016-.054.159-.4.159V8.837l.717.064c-.016.112-.087.159-.32.183v.9h.824V8.333H475.34l-.057-.2h1.494V7.089h-.623a3.547,3.547,0,0,1-.615.782l-.128-.08a6.136,6.136,0,0,0,.679-1.708l.671.223c-.032.088-.1.12-.271.112-.064.159-.144.32-.223.471H477.6l.327-.407.616.43c-.064.137-.153.176-.369.176h-.981V8.135h.591l.32-.407.613.432c-.063.127-.151.173-.366.173h-1.158V9.986H478V8.837l.718.055c-.015.112-.087.162-.328.184v1.406c0,.015-.054.158-.39.158Z" transform="translate(-328.926 -2.988)" fill="#1a1311"/>
        <path id="Path_922" data-name="Path 922" d="M513.79,7.62a.63.63,0,0,1-.335.158v3a.552.552,0,0,1-.415.135v-.535H512v.862c0,.041-.143.153-.344.153h-.071V8.1a6,6,0,0,1-.51.813l-.127-.112a10.5,10.5,0,0,0,1.084-3.5h-.965l-.057-.207h1.981l.342-.425.648.447c-.064.127-.151.184-.367.184H512.49a10.567,10.567,0,0,1-.568,2.083l.176.08h.863l.215-.285ZM512,10.182h1.039V7.658H512Zm3.792-2.348c-.024.088-.087.137-.287.137a23.041,23.041,0,0,1-1.2,2.936c.311-.039.679-.087,1.046-.143a3.4,3.4,0,0,0-.406-.831l.1-.047a1.875,1.875,0,0,1,.87,1.356c0,.232-.1.384-.232.384a.245.245,0,0,1-.176-.1,2.033,2.033,0,0,0-.1-.6c-.4.12-.918.271-1.573.455a.274.274,0,0,1-.176.166l-.247-.543.686-.07a31.641,31.641,0,0,0,1.031-3.3Zm-2.211.137a2.347,2.347,0,0,1,.5.261c.159-.526.327-1.26.463-1.907l.694.193c-.024.1-.087.135-.271.135a13.079,13.079,0,0,1-.735,1.692.831.831,0,0,1,.327.6c0,.176-.1.3-.232.3a.25.25,0,0,1-.174-.079,2.349,2.349,0,0,0-.639-1.134Zm.049-1.988h2.818c.2-.487.44-1.166.584-1.661l.749.254c-.032.088-.12.12-.295.1a14.047,14.047,0,0,1-.839,1.3h.775l.342-.432.648.454c-.064.127-.159.177-.374.177h-4.351Zm.639-1.622c.767.367,1.014.823,1.014,1.134,0,.215-.12.359-.264.359a.288.288,0,0,1-.2-.095,2.579,2.579,0,0,0-.64-1.334Zm1.524,3.576a2.68,2.68,0,0,1,.48.249,15.862,15.862,0,0,0,.526-1.845l.711.208c-.024.1-.088.135-.271.135a9.516,9.516,0,0,1-.816,1.622.816.816,0,0,1,.313.574c0,.184-.1.32-.239.32a.3.3,0,0,1-.185-.089A2.122,2.122,0,0,0,515.722,8Zm2.306-.112c-.031.088-.087.137-.285.13a20.221,20.221,0,0,1-1.239,2.872c.345-.032.767-.071,1.189-.127a4.546,4.546,0,0,0-.405-.862l.1-.049a2.061,2.061,0,0,1,.926,1.469c0,.249-.112.4-.247.4a.276.276,0,0,1-.193-.1,2.75,2.75,0,0,0-.134-.7c-.352.112-.839.256-1.453.424a.234.234,0,0,1-.184.166l-.239-.567c.1-.007.246-.016.423-.031a27.816,27.816,0,0,0,1.06-3.232Z" transform="translate(-355.442 -3.007)" fill="#1a1311"/>
        <path id="Path_923" data-name="Path 923" d="M557.606,8.179c-.064.121-.152.176-.376.176h-2.394a5.252,5.252,0,0,0,2.841,1.286l-.017.087a.5.5,0,0,0-.27.423c-.144-.04-.272-.08-.4-.128l-.071.017v1.836c0,.024-.127.161-.43.161v-.369h-1.613v.328s-.064.152-.423.152V9.488l.464.224h1.333a4.5,4.5,0,0,1-1.612-1.358h-1.453a5.884,5.884,0,0,1-1.757,1.358h1.39l.215-.288.63.456a.656.656,0,0,1-.342.159v1.8a.511.511,0,0,1-.425.158v-.335h-1.556V12c0,.009-.072.145-.422.145v-2.2c-.223.088-.457.175-.7.256l-.08-.144a6.432,6.432,0,0,0,.783-.351V9.488l.207.1a5.944,5.944,0,0,0,1.486-1.236h-2.316l-.049-.2h2.523a4.97,4.97,0,0,0,.6-.95l.7.255c-.04.1-.127.112-.311.1a4.4,4.4,0,0,1-.407.6h3.225l.352-.448Zm-6.267-1.07v.335c0,.008-.062.144-.422.144V5.058l.463.206h1.437l.215-.277.63.447a.683.683,0,0,1-.342.158V7.252a.5.5,0,0,1-.425.169V7.108Zm1.556-1.637h-1.556V6.909h1.556Zm0,4.439h-1.556v1.556h1.556Zm1.981-2.8v.272c0,.007-.072.144-.423.144V5.058l.464.206h1.493l.223-.285.631.455a.7.7,0,0,1-.344.158V7.3a.527.527,0,0,1-.43.151V7.108Zm1.613-1.637h-1.613V6.909h1.613Zm-1.613,6h1.613V9.911h-1.613Z" transform="translate(-382.7 -3.463)" fill="#1a1311"/>
        <path id="Path_924" data-name="Path 924" d="M593.564,7.61h-1.789v4.335c0,.016-.032.183-.43.183V5.022l.479.24h1.668l.208-.272.6.424a.593.593,0,0,1-.312.15V7.889a.535.535,0,0,1-.422.151Zm0-2.149h-1.789v.855h1.789ZM591.774,7.41h1.789V6.524h-1.789Zm4.566,1.534a.566.566,0,0,1-.3.143v2.092c0,.024-.127.158-.432.158v-.493h-2.132V11.3c0,.017-.073.151-.43.151V8.566l.462.215h2.027l.207-.27Zm-2.865,1.7h2.132V8.989h-2.132Zm4.016-5.692.638.479a.644.644,0,0,1-.352.159v5.836c0,.383-.112.631-.814.7,0-.384-.288-.415-.94-.472v-.112h1.133c.15,0,.183-.024.183-.119V7.61h-1.868v.254s-.057.143-.423.143V5.039l.462.223h1.749Zm-.152.51h-1.868v.855h1.868ZM595.472,7.41h1.868V6.524h-1.868Z" transform="translate(-411.369 -3.444)" fill="#1a1311"/>
        <path id="Path_925" data-name="Path 925" d="M630.292,7.748l-.047-.2a7.594,7.594,0,0,1-1.237,4.485l-.128-.08a10.164,10.164,0,0,0,.934-4.965V4.883l.528.239h4.812l.223-.281.647.448a.729.729,0,0,1-.351.16V6.813c0,.025-.144.152-.439.152V6.671h-4.982v.32c0,.173,0,.358-.007.55h4.909l.342-.392.664.416c-.064.127-.159.183-.383.183H632.63a10.451,10.451,0,0,1-.894,1.181c.832-.007,1.877-.038,2.978-.071a5.054,5.054,0,0,0-1.013-.646l.031-.1c1.462.278,1.933.886,1.933,1.214a.2.2,0,0,1-.191.215.366.366,0,0,1-.151-.042,2.4,2.4,0,0,0-.408-.471c-.934.1-2.22.208-3.977.359a.265.265,0,0,1-.2.162l-.319-.609c.145.01.862,0,1.023,0a10.012,10.012,0,0,0,.638-1.189Zm5.428,3.433.679.471c-.063.12-.151.183-.383.183h-6.083l-.047-.2h2.946v-1.2H630.54l-.056-.2h2.347V9.344l.766.064c-.007.12-.088.168-.335.208v.622h1.58l.328-.423.647.447c-.063.119-.158.176-.382.176h-2.173v1.2h2.108Zm-.485-5.86h-4.982V6.463h4.982Z" transform="translate(-437.48 -3.368)" fill="#1a1311"/>
        <rect id="Rectangle_38" data-name="Rectangle 38" width="1.829" height="0.351" transform="translate(203.477 5.865)" fill="#1a1311"/>
      </g>
    </g>
  </g>
</svg>
