<svg xmlns="http://www.w3.org/2000/svg" xmlns:xlink="http://www.w3.org/1999/xlink" width="242" height="90" viewBox="0 0 242 90">
  <defs>
    <clipPath id="clip-path">
      <rect id="Rectangle_13" data-name="Rectangle 13" width="125.565" height="43.909" fill="none"/>
    </clipPath>
  </defs>
  <g id="Group_104" data-name="Group 104" transform="translate(-392.25 -7245)">
    <g id="bg_white" transform="translate(392.25 7245)" fill="#fff" stroke="#e7f2f5" stroke-width="2">
      <rect width="242" height="90" stroke="none"/>
      <rect x="1" y="1" width="240" height="88" fill="none"/>
    </g>
    <g id="Group_25" data-name="Group 25" transform="translate(450.467 7268)">
      <g id="Group_24" data-name="Group 24" clip-path="url(#clip-path)">
        <path id="Path_745" data-name="Path 745" d="M2.182,22.745c.329-.485.478.457.815,0,1.054,0,1.795.457,2.782,0,.872.041,1.918-.037,2.9,0a1.38,1.38,0,0,1,.5,1.338c-1.334,1.6-3.1,2.359-4.224,4.124a2.323,2.323,0,0,0,.3,1.881l.115-.128a1.665,1.665,0,0,0,1.647-.3c1.037-.284,1.07-1.688,2.066-2.066a34.116,34.116,0,0,1,4.651-4.754c.436.016.387-.441.823-.412.387-.753,1.309-.263,1.968-.424.609.21.889.905,1.119,1.449a2.477,2.477,0,0,0,.527,1.659c-.115,1.049.56,1.5.617,2.482-.3.741-1.35.58-1.539,1.342a7.53,7.53,0,0,1,1.63-.119c.181-.009.419.1.519-.1a23.924,23.924,0,0,1,5.68,1.149c.387.223.675.638,1.136.626.527.51,1.087.926,1.136,1.754a2.279,2.279,0,0,1-.733,2.375.448.448,0,0,0-.494.2l-.1-.107c-.132,0-.264-.016-.313.107a1.516,1.516,0,0,0-1.136-.317A10.141,10.141,0,0,0,22.5,33.175c-.412-.078-.9-.313-1.218-.222-.123,0-.247.037-.312-.107-.388.115-.881.157-1.046.638-.181.927,1.079.655,1.153,1.424a7.482,7.482,0,0,1,1.334.947,1.371,1.371,0,0,1,.412,1.556c-.47.757-1.359.51-2.075.7-.609.4-1.506.144-2.264.2l-.2.412a4.827,4.827,0,0,0,3,1.56c.181.44.733-.037.914.424a15.307,15.307,0,0,0,5.277-.214c.42-.292,1.153.181,1.433-.42.922.1,1.523-.568,2.387-.617.346-.333.8-.765.724-1.144a6.326,6.326,0,0,0,.115-2.865c0-.523-.445-1-.231-1.457-.181-.272-.411-.7-.609-1.041a3.746,3.746,0,0,0-1.539-2.182,7.628,7.628,0,0,0-3.532-2.263c-.453-.54-1.284-.177-1.737-.708-.6.012-1-.441-1.548-.424a6.751,6.751,0,0,1-1.243-4.343c-.091-.325.1-.687,0-.914.2-.16-.025-.506.288-.625a1.963,1.963,0,0,1,.741-1.355c.42-.238.872.029,1.342,0a2.571,2.571,0,0,0,1.021.745l2.906,3.2v.193c.634.47.782,1.317,1.449,1.848A7.969,7.969,0,0,0,32.313,27.9c.626.535,1.259-.128,1.86-.214.313-.227.074-.593.223-.819-.387-.461-.823-1.153-1.457-1.243a13.777,13.777,0,0,0-1.646-1.132c-.84,0-1.1-.786-1.852-.939a10.55,10.55,0,0,1-1.968-2.058,1.139,1.139,0,0,1,.107-1.132c.576-.223,1.112-.869,1.737-.63,1.087-.375,0-1.046-.091-1.642-.8-1.074-2.264-.461-3.326-.935-2.091-.025-5.269.844-6.5-1.548-.107-.881-.313-1.774.633-2.276.428-.1.684.239,1.145.111a2.633,2.633,0,0,0,1.317.214c2.083-2.054,5.055-1.939,7.558-2.886l.107.107c.338-.346.881-.185,1.227-.535a2.087,2.087,0,0,0,1.342-.621,4.124,4.124,0,0,0,.518-2.276c-.181-1.7-1.506-2.754-2.8-3.923a11.757,11.757,0,0,1-1.836-1.128,14.169,14.169,0,0,0-2.9-1.14A9.236,9.236,0,0,0,23.125.114l-.082.111a1.124,1.124,0,0,0-1.35,0c-.65.066-1.252.692-1.869,1.029A5.623,5.623,0,0,1,17.75,3.02a9.236,9.236,0,0,1-1.852.918c-2.182,2-3.959,4.734-6.084,6.4a2.838,2.838,0,0,1-.938.938c-.651.6-.906,1.255-1.646,1.848-.461.148-.165.795-.725.737-.692.992-1.9,1.976-2.667,2.881C3.2,17.2,3.014,18,2.182,18.2A12.217,12.217,0,0,1,.215,20.045L0,21.288c.247.107-.016.263,0,.4a3.772,3.772,0,0,0,2.181,1.058m8.982-7.137c1.054-.3,1.967-1.05,3.1-1.235a1.012,1.012,0,0,1,1.243-.317c.371-.35.56.333,1.029.115a3.231,3.231,0,0,1,.914,1.647,4.376,4.376,0,0,1-.7,2.181c-.65,0-1.029.65-1.77.4-.881.613-2.058.457-2.988.918-.387-.453-.584.448-.938,0-1.679.494-3.507.638-5.054,1.453l-.091.111-.124-.111c-.675.128-1.276.823-2.058.412-.3-.194-.758-.511-.84-.823a19.658,19.658,0,0,1,8.282-4.754" transform="translate(0 0)" fill="#1a1311"/>
        <path id="Path_746" data-name="Path 746" d="M46.381,127.1l-.181-1.548c-.387-.152-.148-.555-.214-.844-.593-1.737-.469-3.745-1.12-5.454a7.489,7.489,0,0,0-1.876-4.034c-.14.362-.362.05-.626.1-.181.383-.733.358-.716.831a10.554,10.554,0,0,0-.708,2.075c-.378.342-.173.963-.535,1.321a43.539,43.539,0,0,0-.5,4.458,6.417,6.417,0,0,0,1.037,2.886c.223,1.193,1.243,1.95,2.05,2.782.238,0,.485-.058.642.2.214-.025.527.095.708-.091.56.144,1.128-.329,1.548-.823.14-.35.107-.856.42-1.029.164-.342-.395-.605.074-.832" transform="translate(-29.776 -85.981)" fill="#1a1311"/>
        <path id="Path_747" data-name="Path 747" d="M175.379,42.685c.988-.169,1.778-.819,2.783-1.025a4.074,4.074,0,0,1,4.033.938c.527.42.865,1.185,1.647,1.231.222.691,1.573.984,1.037,1.951-.321.589-.988.918-1.351,1.359-.123-.016-.247.029-.313-.095-.823.44-1.8,0-2.692,0-.165.156-.321.4-.6.292a.487.487,0,0,0-.214.527,5.956,5.956,0,0,1,1.96,1.437c.049.449-.132.893,0,1.239-.667,1.078-1.309,2.177-2.058,3.206-.148.4-.107.893-.412,1.235a3.421,3.421,0,0,1,.1,1.14c.148.21.478.309.411.626l1.351.1c1.342-.465,2-1.976,3.4-2.268.206.239.535.317.42.7a1.712,1.712,0,0,0-.724,1.766c.4.329.625.877,1.234.93.717.758,1.992.247,2.89.626a.655.655,0,0,1,.716-.309c.544-.317.659-.679,1.021-1.128a9.059,9.059,0,0,1,0-2.585.655.655,0,0,1,0-.712c-.5-.725.625-.914.848-1.264.189.276.692.086.716.539.14.025.346-.1.42.087a5.43,5.43,0,0,0,2.28.218c.437-.407.181-1.058.4-1.564a2.456,2.456,0,0,0-1.86-.823c-.9-.7-2.223-.646-2.9-1.655a2.868,2.868,0,0,1-.1-1.017c.46-.7,1.26-.584,1.959-.728.28-.4.84-.14,1.243-.206.3,0,.568-.432.831-.21.272-.279,1.062-.14.823-.823.157-.893-.971-.412-1.358-.815-1.094-.288-2.1-.309-3.186-.548a1.373,1.373,0,0,0-.946-.3c-.173.053-.272-.091-.4-.206-.461.016-.823-.478-1.136-.617a3.5,3.5,0,0,1-.633-2.478,1.652,1.652,0,0,1,1.868-.823c.255-.173.272-.4.42-.61-.058-.708-.634-.7-1.029-1.251a3.375,3.375,0,0,1-2.173-2.07c.23-.263-.041-.889.518-.819,1.754-1.968,4.4-2.832,6.29-4.635.091-.272.461-.519.33-.733.387-.152.378-.518.486-.839a4.81,4.81,0,0,0,.214-1.535l-.3-.3a3.471,3.471,0,0,0-2.478-2.1c-.8-.469-1.819-.646-2.569-1.021-.716-.128-.922-.765-1.662-.815-2-.679-2.734,1.367-4.026,2.272-.355.539-.824.56-1.359.918-.823.934-2.009,1.453-2.667,2.383-.461.272-.881.881-1.45,1.033.214.7-.831.338-.625,1.042L175.273,33.1c-1.367,1.688-3.326,2.593-4.347,4.445-.864.758-1.185,1.927-1.86,2.886-.42.745-.741,1.721-1.153,2.585-.412,1.091-1.235,2.19-1.112,3.4.272.177.758.544,1.03.095,1.391-.35,2.593-1.614,3.828-2.577h.3c.576-.663,1.655-.272,2.181-.832a3.138,3.138,0,0,0,1.243-.42" transform="translate(-124.462 -17.742)" fill="#1a1311"/>
        <path id="Path_748" data-name="Path 748" d="M289.472,44.73l-.3.107c-.47-.053-1.078-.387-1.449-.107-.963-.153-1.161,1.095-1.754,1.642a13.27,13.27,0,0,1-1.539,4.026v1.568c0,.1-.025.239.09.292-.115.078-.09.2-.09.308.337.544.716.05,1.235.214,1.153-.959,2.5-1,3.507-2.074.905-.194,1.572-.955,2.568-.91.7-.325.749-.988,1.243-1.449a2.271,2.271,0,0,0-1.013-2.062c-.387.066-.749-.074-.823-.432a11.791,11.791,0,0,0-1.672-1.124" transform="translate(-212.244 -33.296)" fill="#1a1311"/>
        <path id="Path_749" data-name="Path 749" d="M257.705,72.307a2.956,2.956,0,0,0,2.494-.313c.132-.008.3.255.4,0,.634-.124.519-.939.947-1.321a1.919,1.919,0,0,0-.716-.725c-1.029-.222-2.223-.572-3.005.3-.2.28-.074.8-.123,1.025-.47.28,0,.688,0,1.034" transform="translate(-192.15 -52.003)" fill="#1a1311"/>
        <path id="Path_750" data-name="Path 750" d="M292.933,97.68c-.445-.7-1.095-.692-1.737-1.136-.3.14-.667-.259-1.054-.21-.56-.374-1.284-.432-1.852-.806-.765,0-.939-.807-1.63-.943.066-.391-.617-.342-.222-.712-.535-.93.856-.687,1.029-1.264.461-.16,1.029-.02,1.342-.5l.115.095c.329-.02.7,0,.922-.321a4.931,4.931,0,0,0,2.807-.605c.626-.42.486-1.177.495-1.852-.239-.3-.379-.646-.832-.725-1.844-.169-3.1-1.774-4.849-2.173a2.189,2.189,0,0,0-1.556,1.243,5.885,5.885,0,0,0-1.021,3.61c-.626,1.436.3,2.766,0,4.338a2.953,2.953,0,0,1,0,2.276c.3.259-.247.432-.189.712.016.415-.486.712-.33,1.041-.28.424-.378.918-.626,1.338a2.067,2.067,0,0,0-.09,2.17l.09-.1c.2-.058.313.1.42.223.864-.235,1.523,0,2.355-.223a9.344,9.344,0,0,0,3.326-.943,5.431,5.431,0,0,0,2.569-1.523c.518-.885,1.276-2.017.518-3.013" transform="translate(-211.473 -64.57)" fill="#1a1311"/>
        <path id="Path_751" data-name="Path 751" d="M428.645,48.719c-.1-.757-.584-1.613-.1-2.363-.008-.7.824-1.05.519-1.864a16.442,16.442,0,0,0-3.318-2.165c-.329-.272-.519-.206-.823-.518-.856.1-1.91-.251-2.593.313-.379-.189-.774.317-1.21.317a5.8,5.8,0,0,1-2.379-.317l.082-.1a8.455,8.455,0,0,0-1.02-1.235c.09-.934-.288-2.058.519-2.68L418.2,38a6.99,6.99,0,0,1,2.8-2.478,2.593,2.593,0,0,1,2.272.728c.716,1.042,1.984.593,3,.49.724-.309.947-1.2,1.235-1.864a8.377,8.377,0,0,0-5.672-3.684c-2.338-.23-1.317,2.536-2.783,3.482-.362-.14-.576.325-.856,0l-.107.115c-.181-.07-.313-.276-.617-.206-1.7-1.626-3.227-3.116-5.458-3.511-1.136.589-2.4,1.572-2.346,2.993-.47.811.008,1.65-.428,2.486V38.7c-.082.457.6.692.2,1.144a7.428,7.428,0,0,1,1.951,2.988c-.074.494-.165,1.115-.717,1.35-.675-.009-1.218.494-1.745.625-.116-.012-.255.025-.313-.111-.066.062-.123.136-.222.111v.28c.354.144.815.054,1.136.235.971-.033,2.165.552,2.906-.107a16.951,16.951,0,0,1,2.478-1.033c.329-.189.947-.066,1.243-.1a6.384,6.384,0,0,1,2.989.2c.65.177,1.5-.066,2.058.3.782,1.317.181,2.984-.5,4.219a1.851,1.851,0,0,1-2.074-.576,13.508,13.508,0,0,0-2.791-1.469c-.305-.263-.881.1-1.128-.313-.724.231-1.515,0-2.4.21-1.63-.1-3.005,1.255-4.215,2.264-.025.535-.815.621-.527,1.136-.256,1.708,1.284,3.087,2.5,4.128a3.075,3.075,0,0,0,.914,1.251c.4,1.041-.856.683-1.136,1.35.4,1.193,1.951,1.9,1.672,3.388-.206.4-.461.959-.947,1.041-.823.893-2.132.856-3.186.827a.535.535,0,0,0-.329.93c.4.214.84,1.342,1.457.617a7.187,7.187,0,0,0,1.869-.1,8.021,8.021,0,0,0,1.852-.214c1.021.107,2.429-.173,3.4,0a32,32,0,0,0,3.606-.087c.256.379.33-.3.626-.119.255-.4.963-.519.724-1.227-.321-.041-.362-.371-.321-.626-.453.189-.453-.354-.724-.511-.725.21-1.227-.033-1.951.21-1.112-.485-2.313.218-3.1-1.041a2.278,2.278,0,0,1,.42-1.762l.1.107c.551-.856,1.951-.437,2.585-1.14.577.054.4-.663.725-.819l-.124-.514c-1.209-.712-3.268.255-4.124-1.243-.2-.383.263-.84.634-1.029.535-.074.848.4,1.35.424.938-.461,2.182-.276,3-1.041.494-.971-.238-2.453,1.013-3.1.527-.206.469.555.832.518l1.762,1.959v.309a4.515,4.515,0,0,0,4.446,1.354c1.144-.276,1.432-1.445,1.959-2.28,0-1.033.5-2.116-.42-2.9m-16.407,2.9c-.914.267-1.433-.807-1.852-1.255a2.458,2.458,0,0,1,.4-2.268c.379-.445.749-.214,1.136-.733a2.842,2.842,0,0,1,3.186.733,6.142,6.142,0,0,1-2.873,3.523" transform="translate(-303.636 -23.187)" fill="#1a1311"/>
        <path id="Path_752" data-name="Path 752" d="M391.1,48.623c-.074-.539-.165-1.259-.716-1.449-.988-1.14-2.494-1.482-3.7-2.363l-.947-.309c-.321.317-.675-.247-.914.193.108,1.49.074,3.021.823,4.24.815.831,1.811,1.815,3.186,1.56.132-.119.42-.231.511-.107a1.391,1.391,0,0,1,.634-.222,1.922,1.922,0,0,0,1.12-1.544" transform="translate(-287.17 -33.209)" fill="#1a1311"/>
        <path id="Path_753" data-name="Path 753" d="M374.683,89.924c.091-.638-.173-1.259-.115-1.758-.37-.28-.082-.832-.428-1.124-.379-1.251-1.745-.345-2.132.309.066.506-.617.815-.222,1.313a8.693,8.693,0,0,0,.947,5.59c.313,1.26,1.358.193,2.14.634.568-.23,1.408.079,1.7-.634a4.2,4.2,0,0,0-.559-2.367c-.643-.572-.774-1.358-1.326-1.963" transform="translate(-277.343 -64.487)" fill="#1a1311"/>
      </g>
    </g>
  </g>
</svg>
