<svg xmlns="http://www.w3.org/2000/svg" width="325" height="63" viewBox="0 0 325 63">
  <g id="step" transform="translate(-193 -1705)">
    <g id="step-2" data-name="step" transform="translate(-62 -334)">
      <rect id="bdr" width="80" height="1" transform="translate(255 2039)" fill="#03728d"/>
      <path id="Path_945" data-name="Path 945" d="M5.664-4.219a11.8,11.8,0,0,1,1.323.063,4.761,4.761,0,0,1,.93.188,1.849,1.849,0,0,1,.6.31,1.349,1.349,0,0,1,.347.422,1.572,1.572,0,0,1,.159.53,5.132,5.132,0,0,1,.037.635A3.221,3.221,0,0,1,9-1.428a1.638,1.638,0,0,1-.217.549,1.611,1.611,0,0,1-.425.444A2.477,2.477,0,0,1,7.676-.1a5.246,5.246,0,0,1-1,.208A11.487,11.487,0,0,1,5.313.176H4.063A12.314,12.314,0,0,1,2.832.122a5.224,5.224,0,0,1-.908-.164,2.221,2.221,0,0,1-.63-.278,1.417,1.417,0,0,1-.4-.4,1.459,1.459,0,0,1-.208-.518A3.255,3.255,0,0,1,.63-1.875h.938a1.537,1.537,0,0,0,.127.688.8.8,0,0,0,.42.374,2.408,2.408,0,0,0,.769.156q.476.032,1.179.032h1.25A9.824,9.824,0,0,0,6.675-.7a2.687,2.687,0,0,0,.864-.249A1,1,0,0,0,7.993-1.4a1.548,1.548,0,0,0,.132-.671,2.058,2.058,0,0,0-.09-.659.77.77,0,0,0-.356-.42,2.051,2.051,0,0,0-.75-.222,9.736,9.736,0,0,0-1.265-.066H4.375A14.572,14.572,0,0,1,2.9-3.5a6.022,6.022,0,0,1-1.028-.183,2.18,2.18,0,0,1-.664-.3A1.276,1.276,0,0,1,.833-4.39,1.43,1.43,0,0,1,.664-4.9a4.422,4.422,0,0,1-.039-.608,3.112,3.112,0,0,1,.061-.635,1.415,1.415,0,0,1,.227-.53,1.606,1.606,0,0,1,.454-.422,2.69,2.69,0,0,1,.74-.31,6.625,6.625,0,0,1,1.086-.188q.635-.063,1.494-.063h.938q.7,0,1.23.051a5.091,5.091,0,0,1,.908.161A2.358,2.358,0,0,1,8.4-7.17a1.35,1.35,0,0,1,.4.391A1.459,1.459,0,0,1,9-6.265a3.218,3.218,0,0,1,.059.64H8.125A1.537,1.537,0,0,0,8-6.313a.8.8,0,0,0-.42-.374,2.415,2.415,0,0,0-.771-.156q-.479-.032-1.182-.032H4.688a14.743,14.743,0,0,0-1.543.066,3.294,3.294,0,0,0-.957.222.959.959,0,0,0-.488.42,1.423,1.423,0,0,0-.137.659,2.478,2.478,0,0,0,.034.435.8.8,0,0,0,.139.334.819.819,0,0,0,.3.242,1.987,1.987,0,0,0,.5.161,5.581,5.581,0,0,0,.764.09q.452.027,1.077.027ZM16.281-2.5a5.166,5.166,0,0,1-.117,1.2,1.652,1.652,0,0,1-.393.769,1.536,1.536,0,0,1-.725.41A4.293,4.293,0,0,1,13.938,0a5,5,0,0,1-1.074-.1,1.573,1.573,0,0,1-.7-.332,1.3,1.3,0,0,1-.386-.625,3.453,3.453,0,0,1-.117-.977V-4.854H10.5v-.771h1.157V-7.163h.938v1.538h3.53v.771h-3.53v2.822a2.837,2.837,0,0,0,.071.723.67.67,0,0,0,.227.371.772.772,0,0,0,.413.137q.256.02.627.02.293,0,.525-.01a1.687,1.687,0,0,0,.405-.061.79.79,0,0,0,.3-.156.742.742,0,0,0,.2-.3,1.932,1.932,0,0,0,.11-.481A6.275,6.275,0,0,0,15.5-2.5ZM21,.107a8.353,8.353,0,0,1-1.592-.129,2.511,2.511,0,0,1-1.064-.447,1.79,1.79,0,0,1-.6-.85,4.115,4.115,0,0,1-.186-1.338,5.282,5.282,0,0,1,.186-1.526,2.024,2.024,0,0,1,.6-.959,2.347,2.347,0,0,1,1.064-.5A7.652,7.652,0,0,1,21-5.781a6.014,6.014,0,0,1,1.16.1A3.061,3.061,0,0,1,23-5.4a1.841,1.841,0,0,1,.566.449,2.289,2.289,0,0,1,.342.554,2.468,2.468,0,0,1,.171.681,7,7,0,0,1,.046.825l-.078.313H18.5a3.67,3.67,0,0,0,.127,1.057,1.055,1.055,0,0,0,.42.6,1.748,1.748,0,0,0,.771.242A11.381,11.381,0,0,0,21-.625q.645,0,1.067-.037A2.339,2.339,0,0,0,22.738-.8a.666.666,0,0,0,.349-.286.989.989,0,0,0,.1-.476h.938a1.727,1.727,0,0,1-.159.774,1.2,1.2,0,0,1-.525.518,2.986,2.986,0,0,1-.964.288A10.13,10.13,0,0,1,21,.107ZM21-5q-.469,0-.837.02a3.625,3.625,0,0,0-.645.085,1.535,1.535,0,0,0-.471.19,1.114,1.114,0,0,0-.315.293,1.192,1.192,0,0,0-.176.474A4.129,4.129,0,0,0,18.5-3.2h4.688a2.629,2.629,0,0,0-.122-.9,1.217,1.217,0,0,0-.386-.535A1.523,1.523,0,0,0,22-4.922,5.5,5.5,0,0,0,21-5Zm8.313-.781A7.652,7.652,0,0,1,30.9-5.64a2.44,2.44,0,0,1,1.064.483,1.933,1.933,0,0,1,.6.916A4.74,4.74,0,0,1,32.75-2.8a4.562,4.562,0,0,1-.186,1.411,1.873,1.873,0,0,1-.6.894A2.466,2.466,0,0,1,30.9-.029a7.917,7.917,0,0,1-1.592.137A7.125,7.125,0,0,1,28.194.034a3.792,3.792,0,0,1-.735-.183,1.514,1.514,0,0,1-.435-.237.941.941,0,0,1-.212-.239v2.5h-.937v-7.5h.938V-5.1a1,1,0,0,1,.212-.217,1.527,1.527,0,0,1,.435-.222,4.014,4.014,0,0,1,.735-.171A7.626,7.626,0,0,1,29.313-5.781Zm0,.781q-.469,0-.835.024a3.312,3.312,0,0,0-.645.1,1.387,1.387,0,0,0-.471.22,1.077,1.077,0,0,0-.315.386,2.031,2.031,0,0,0-.178.6,5.585,5.585,0,0,0-.056.854,5.723,5.723,0,0,0,.056.864,2.036,2.036,0,0,0,.178.6,1.077,1.077,0,0,0,.315.386,1.387,1.387,0,0,0,.471.22,3.2,3.2,0,0,0,.645.1q.366.022.835.022.547,0,.945-.034a3.176,3.176,0,0,0,.676-.122,1.207,1.207,0,0,0,.452-.244,1.037,1.037,0,0,0,.269-.4A2.135,2.135,0,0,0,31.781-2q.032-.339.032-.8t-.032-.8a2.173,2.173,0,0,0-.127-.586,1.034,1.034,0,0,0-.269-.4,1.26,1.26,0,0,0-.452-.249,2.964,2.964,0,0,0-.676-.127Q29.859-5,29.313-5ZM42.349-7.656a8.422,8.422,0,0,1,1.448.1,3.121,3.121,0,0,1,.969.317,1.6,1.6,0,0,1,.586.535,2.324,2.324,0,0,1,.3.757,5.4,5.4,0,0,1,.112.981q.017.547.017,1.211t-.017,1.211a5.4,5.4,0,0,1-.112.981,2.324,2.324,0,0,1-.3.757,1.6,1.6,0,0,1-.586.535A3.121,3.121,0,0,1,43.8.051a8.422,8.422,0,0,1-1.448.1h-1.88a8.422,8.422,0,0,1-1.448-.1,3.121,3.121,0,0,1-.969-.317A1.62,1.62,0,0,1,37.463-.8a2.291,2.291,0,0,1-.3-.757,5.266,5.266,0,0,1-.11-.981q-.015-.547-.015-1.211t.015-1.211a5.266,5.266,0,0,1,.11-.981,2.291,2.291,0,0,1,.3-.757,1.62,1.62,0,0,1,.588-.535,3.121,3.121,0,0,1,.969-.317,8.422,8.422,0,0,1,1.448-.1Zm0,7.031q.625,0,1.05-.037a2.468,2.468,0,0,0,.7-.149.953.953,0,0,0,.43-.322,1.412,1.412,0,0,0,.22-.557,5.137,5.137,0,0,0,.081-.852q.012-.505.012-1.208t-.012-1.208a5.137,5.137,0,0,0-.081-.852,1.412,1.412,0,0,0-.22-.557.954.954,0,0,0-.427-.322,2.443,2.443,0,0,0-.7-.149q-.427-.037-1.052-.037h-1.88q-.625,0-1.052.037a2.474,2.474,0,0,0-.706.149.953.953,0,0,0-.43.322,1.412,1.412,0,0,0-.22.557,5,5,0,0,0-.078.852q-.01.505-.01,1.208t.012,1.208a5.137,5.137,0,0,0,.081.852,1.437,1.437,0,0,0,.217.557.937.937,0,0,0,.427.322,2.474,2.474,0,0,0,.706.149q.427.037,1.052.037ZM49.875-7.5h1.25V0h-.937V-6.719L48-4.844l-.469-.625Z" transform="translate(269 2064)" fill="#03728d"/>
      <path id="Path_946" data-name="Path 946" d="M14.144-7.664c0-1.7.032-2.448.032-2.528,0-.112-.016-.128-.128-.128-.08,0-.64.032-2.24.032H8.352A13.038,13.038,0,0,0,8.416-11.6a5.572,5.572,0,0,1,.1-1.2,1.227,1.227,0,0,0,.08-.3c0-.08-.048-.144-.176-.16-.352-.048-.72-.08-1.072-.1a10.034,10.034,0,0,1,.1,1.584q0,.744-.048,1.488H4.3c-1.6,0-2.144-.032-2.24-.032-.112,0-.128.016-.128.128,0,.08.032.768.032,2.464v6.016c0,1.7-.032,2.352-.032,2.432,0,.112.016.128.128.128h.784c.112,0,.128-.016.128-.128,0-.08-.032-.752-.032-2.352v-7.76H7.3a7.5,7.5,0,0,1-.464,1.856,7.391,7.391,0,0,1-3.7,3.888A2.193,2.193,0,0,1,3.68-3.1c.1.128.144.192.208.192.048,0,.112-.048.224-.128A8.141,8.141,0,0,0,7.728-7.248a6.075,6.075,0,0,0,.288-.864,9.232,9.232,0,0,0,3.9,4.992c.112.08.176.128.24.128s.112-.064.208-.208a2.072,2.072,0,0,1,.56-.56,8.831,8.831,0,0,1-4.56-5.632h4.8V-.88c0,.464-.16.592-.72.608-.32,0-.944-.032-1.456-.08a2.018,2.018,0,0,1,.32.752c.08.32.1.32.4.32,1.344,0,1.792-.1,2.048-.3A1.222,1.222,0,0,0,14.176-.64c0-.512-.032-1.28-.032-2.56Zm10.464-.464c.08-.048.128-.1.128-.144,0-.08-.048-.128-.176-.176a8.18,8.18,0,0,0-.976-.224A4.117,4.117,0,0,1,22.912-7.6a14.666,14.666,0,0,1-6.064,4.128,1.876,1.876,0,0,1,.416.544c.08.176.128.256.208.256a.639.639,0,0,0,.256-.1A21.513,21.513,0,0,0,19.9-3.92c0,.224.016.624.016,1.36v1.1c0,2.128-.032,2.464-.032,2.56s.016.112.128.112h.72c.112,0,.128-.016.128-.112V.272h6.208v.752c0,.112.016.128.144.128h.7c.112,0,.128-.016.128-.128,0-.08-.032-.416-.032-2.528V-2.752c0-.64.016-1.008.016-1.216a23.659,23.659,0,0,0,2.384,1.216.755.755,0,0,0,.224.08c.08,0,.112-.08.192-.272a1.742,1.742,0,0,1,.4-.64,14.1,14.1,0,0,1-6.688-4.5ZM27.072-.576H20.864V-3.392h6.208ZM22.128-4.24c-.848,0-1.376,0-1.7-.016A13.829,13.829,0,0,0,24-7.472a12.213,12.213,0,0,0,3.552,3.216c-.32.016-.848.016-1.744.016Zm8.256-6.48c0-.432.032-.656.032-.736,0-.112-.016-.128-.128-.128-.08,0-.64.032-2.208.032H24.352v-.128a3.453,3.453,0,0,1,.08-1.12.617.617,0,0,0,.1-.288c0-.064-.08-.112-.208-.128-.3-.032-.656-.064-1.04-.08a6.872,6.872,0,0,1,.112,1.632v.112H19.9c-1.568,0-2.128-.032-2.208-.032-.112,0-.128.016-.128.128,0,.1.032.3.032.816v.512c0,1.376-.032,1.552-.032,1.648,0,.112.016.128.128.128h.736c.112,0,.128-.016.128-.128V-10.7H29.424V-8.48c0,.112.016.128.128.128h.736c.112,0,.128-.016.128-.128,0-.08-.032-.272-.032-1.648ZM22.352-9.248c0-.08-.032-.112-.144-.192a4.42,4.42,0,0,0-.832-.448,3.685,3.685,0,0,1-.608.848A8.331,8.331,0,0,1,18.08-7.216a1.777,1.777,0,0,1,.464.512c.1.16.144.224.208.224a.567.567,0,0,0,.256-.1A10.406,10.406,0,0,0,21.68-8.64a2.148,2.148,0,0,1,.448-.4C22.256-9.1,22.352-9.168,22.352-9.248ZM25.9-9.44c-.176.128-.192.144-.112.24a11.007,11.007,0,0,0,3.472,2.624.557.557,0,0,0,.224.1c.064,0,.112-.08.192-.256a2.273,2.273,0,0,1,.4-.592A9.316,9.316,0,0,1,26.5-9.712c-.064-.08-.1-.08-.208,0Zm11.5-2.672c-1.1,0-1.424-.032-1.5-.032-.112,0-.128.016-.128.128v.752c0,.112.016.128.128.128.08,0,.4-.032,1.5-.032H39.68C39.456-6.192,37.12-2.1,32.992-.016A1.963,1.963,0,0,1,33.6.528c.112.16.16.224.224.224S33.952.7,34.08.64a12.965,12.965,0,0,0,6.176-9.216A13.476,13.476,0,0,0,46.16.64a.459.459,0,0,0,.224.112c.064,0,.112-.064.208-.224a2.539,2.539,0,0,1,.576-.64,12.924,12.924,0,0,1-6.352-9.936A13.791,13.791,0,0,1,40.672-12c0-.112-.048-.144-.144-.144s-.416.032-1.5.032ZM56.016-9.664c.032-.592.032-1.168.032-1.744a4.006,4.006,0,0,1,.1-1.28.782.782,0,0,0,.128-.368c0-.08-.08-.128-.24-.16a8.522,8.522,0,0,0-1.152-.112,11.989,11.989,0,0,1,.112,1.9c0,.592,0,1.184-.016,1.76H52.192c-1.616,0-2.16-.032-2.24-.032-.112,0-.128.016-.128.128v.752c0,.112.016.128.128.128.08,0,.624-.032,2.24-.032h2.736a13.512,13.512,0,0,1-.736,3.792A8.983,8.983,0,0,1,49.072,0a2.149,2.149,0,0,1,.64.544c.112.128.16.192.24.192a.523.523,0,0,0,.24-.1A9.784,9.784,0,0,0,55.12-4.528a14.056,14.056,0,0,0,.848-4.192H60.7a42.125,42.125,0,0,1-.512,7.168c-.176.992-.576,1.216-1.152,1.216a11.492,11.492,0,0,1-2.48-.24,2.559,2.559,0,0,1,.272.752c.048.336.048.336.368.368a9.652,9.652,0,0,0,1.888.112c1.28,0,1.792-.464,2.1-1.888a44.272,44.272,0,0,0,.544-6.928c0-.448,0-.928.032-1.392,0-.112-.032-.144-.144-.144-.1,0-.624.032-2.256.032Z" transform="translate(263 2087)" fill="#03728d"/>
      <rect id="bdr-2" data-name="bdr" width="80" height="1" transform="translate(255 2101)" fill="#03728d"/>
    </g>
    <g id="arw" transform="translate(-823.5 848)">
      <line id="bdr-3" data-name="bdr" x2="16" transform="translate(1109.5 888.5)" fill="none" stroke="#03728d" stroke-linecap="round" stroke-linejoin="round" stroke-width="1"/>
      <path id="arw-2" data-name="arw" d="M544.439,61.6l4,4,4-4" transform="translate(1059.9 1436.939) rotate(-90)" fill="none" stroke="#03728d" stroke-linecap="round" stroke-linejoin="round" stroke-width="1"/>
    </g>
    <g id="step-3" data-name="step" transform="translate(61 -334)">
      <rect id="bdr-4" data-name="bdr" width="80" height="1" transform="translate(255 2039)" fill="#cddfea"/>
      <path id="Path_947" data-name="Path 947" d="M5.664-4.219a11.8,11.8,0,0,1,1.323.063,4.761,4.761,0,0,1,.93.188,1.849,1.849,0,0,1,.6.31,1.349,1.349,0,0,1,.347.422,1.572,1.572,0,0,1,.159.53,5.132,5.132,0,0,1,.037.635A3.221,3.221,0,0,1,9-1.428a1.638,1.638,0,0,1-.217.549,1.611,1.611,0,0,1-.425.444A2.477,2.477,0,0,1,7.676-.1a5.246,5.246,0,0,1-1,.208A11.487,11.487,0,0,1,5.313.176H4.063A12.314,12.314,0,0,1,2.832.122a5.224,5.224,0,0,1-.908-.164,2.221,2.221,0,0,1-.63-.278,1.417,1.417,0,0,1-.4-.4,1.459,1.459,0,0,1-.208-.518A3.255,3.255,0,0,1,.63-1.875h.938a1.537,1.537,0,0,0,.127.688.8.8,0,0,0,.42.374,2.408,2.408,0,0,0,.769.156q.476.032,1.179.032h1.25A9.824,9.824,0,0,0,6.675-.7a2.687,2.687,0,0,0,.864-.249A1,1,0,0,0,7.993-1.4a1.548,1.548,0,0,0,.132-.671,2.058,2.058,0,0,0-.09-.659.77.77,0,0,0-.356-.42,2.051,2.051,0,0,0-.75-.222,9.736,9.736,0,0,0-1.265-.066H4.375A14.572,14.572,0,0,1,2.9-3.5a6.022,6.022,0,0,1-1.028-.183,2.18,2.18,0,0,1-.664-.3A1.276,1.276,0,0,1,.833-4.39,1.43,1.43,0,0,1,.664-4.9a4.422,4.422,0,0,1-.039-.608,3.112,3.112,0,0,1,.061-.635,1.415,1.415,0,0,1,.227-.53,1.606,1.606,0,0,1,.454-.422,2.69,2.69,0,0,1,.74-.31,6.625,6.625,0,0,1,1.086-.188q.635-.063,1.494-.063h.938q.7,0,1.23.051a5.091,5.091,0,0,1,.908.161A2.358,2.358,0,0,1,8.4-7.17a1.35,1.35,0,0,1,.4.391A1.459,1.459,0,0,1,9-6.265a3.218,3.218,0,0,1,.059.64H8.125A1.537,1.537,0,0,0,8-6.313a.8.8,0,0,0-.42-.374,2.415,2.415,0,0,0-.771-.156q-.479-.032-1.182-.032H4.688a14.743,14.743,0,0,0-1.543.066,3.294,3.294,0,0,0-.957.222.959.959,0,0,0-.488.42,1.423,1.423,0,0,0-.137.659,2.478,2.478,0,0,0,.034.435.8.8,0,0,0,.139.334.819.819,0,0,0,.3.242,1.987,1.987,0,0,0,.5.161,5.581,5.581,0,0,0,.764.09q.452.027,1.077.027ZM16.281-2.5a5.166,5.166,0,0,1-.117,1.2,1.652,1.652,0,0,1-.393.769,1.536,1.536,0,0,1-.725.41A4.293,4.293,0,0,1,13.938,0a5,5,0,0,1-1.074-.1,1.573,1.573,0,0,1-.7-.332,1.3,1.3,0,0,1-.386-.625,3.453,3.453,0,0,1-.117-.977V-4.854H10.5v-.771h1.157V-7.163h.938v1.538h3.53v.771h-3.53v2.822a2.837,2.837,0,0,0,.071.723.67.67,0,0,0,.227.371.772.772,0,0,0,.413.137q.256.02.627.02.293,0,.525-.01a1.687,1.687,0,0,0,.405-.061.79.79,0,0,0,.3-.156.742.742,0,0,0,.2-.3,1.932,1.932,0,0,0,.11-.481A6.275,6.275,0,0,0,15.5-2.5ZM21,.107a8.353,8.353,0,0,1-1.592-.129,2.511,2.511,0,0,1-1.064-.447,1.79,1.79,0,0,1-.6-.85,4.115,4.115,0,0,1-.186-1.338,5.282,5.282,0,0,1,.186-1.526,2.024,2.024,0,0,1,.6-.959,2.347,2.347,0,0,1,1.064-.5A7.652,7.652,0,0,1,21-5.781a6.014,6.014,0,0,1,1.16.1A3.061,3.061,0,0,1,23-5.4a1.841,1.841,0,0,1,.566.449,2.289,2.289,0,0,1,.342.554,2.468,2.468,0,0,1,.171.681,7,7,0,0,1,.046.825l-.078.313H18.5a3.67,3.67,0,0,0,.127,1.057,1.055,1.055,0,0,0,.42.6,1.748,1.748,0,0,0,.771.242A11.381,11.381,0,0,0,21-.625q.645,0,1.067-.037A2.339,2.339,0,0,0,22.738-.8a.666.666,0,0,0,.349-.286.989.989,0,0,0,.1-.476h.938a1.727,1.727,0,0,1-.159.774,1.2,1.2,0,0,1-.525.518,2.986,2.986,0,0,1-.964.288A10.13,10.13,0,0,1,21,.107ZM21-5q-.469,0-.837.02a3.625,3.625,0,0,0-.645.085,1.535,1.535,0,0,0-.471.19,1.114,1.114,0,0,0-.315.293,1.192,1.192,0,0,0-.176.474A4.129,4.129,0,0,0,18.5-3.2h4.688a2.629,2.629,0,0,0-.122-.9,1.217,1.217,0,0,0-.386-.535A1.523,1.523,0,0,0,22-4.922,5.5,5.5,0,0,0,21-5Zm8.313-.781A7.652,7.652,0,0,1,30.9-5.64a2.44,2.44,0,0,1,1.064.483,1.933,1.933,0,0,1,.6.916A4.74,4.74,0,0,1,32.75-2.8a4.562,4.562,0,0,1-.186,1.411,1.873,1.873,0,0,1-.6.894A2.466,2.466,0,0,1,30.9-.029a7.917,7.917,0,0,1-1.592.137A7.125,7.125,0,0,1,28.194.034a3.792,3.792,0,0,1-.735-.183,1.514,1.514,0,0,1-.435-.237.941.941,0,0,1-.212-.239v2.5h-.937v-7.5h.938V-5.1a1,1,0,0,1,.212-.217,1.527,1.527,0,0,1,.435-.222,4.014,4.014,0,0,1,.735-.171A7.626,7.626,0,0,1,29.313-5.781Zm0,.781q-.469,0-.835.024a3.312,3.312,0,0,0-.645.1,1.387,1.387,0,0,0-.471.22,1.077,1.077,0,0,0-.315.386,2.031,2.031,0,0,0-.178.6,5.585,5.585,0,0,0-.056.854,5.723,5.723,0,0,0,.056.864,2.036,2.036,0,0,0,.178.6,1.077,1.077,0,0,0,.315.386,1.387,1.387,0,0,0,.471.22,3.2,3.2,0,0,0,.645.1q.366.022.835.022.547,0,.945-.034a3.176,3.176,0,0,0,.676-.122,1.207,1.207,0,0,0,.452-.244,1.037,1.037,0,0,0,.269-.4A2.135,2.135,0,0,0,31.781-2q.032-.339.032-.8t-.032-.8a2.173,2.173,0,0,0-.127-.586,1.034,1.034,0,0,0-.269-.4,1.26,1.26,0,0,0-.452-.249,2.964,2.964,0,0,0-.676-.127Q29.859-5,29.313-5ZM42.349-7.656a8.422,8.422,0,0,1,1.448.1,3.121,3.121,0,0,1,.969.317,1.6,1.6,0,0,1,.586.535,2.324,2.324,0,0,1,.3.757,5.4,5.4,0,0,1,.112.981q.017.547.017,1.211t-.017,1.211a5.4,5.4,0,0,1-.112.981,2.324,2.324,0,0,1-.3.757,1.6,1.6,0,0,1-.586.535A3.121,3.121,0,0,1,43.8.051a8.422,8.422,0,0,1-1.448.1h-1.88a8.422,8.422,0,0,1-1.448-.1,3.121,3.121,0,0,1-.969-.317A1.62,1.62,0,0,1,37.463-.8a2.291,2.291,0,0,1-.3-.757,5.266,5.266,0,0,1-.11-.981q-.015-.547-.015-1.211t.015-1.211a5.266,5.266,0,0,1,.11-.981,2.291,2.291,0,0,1,.3-.757,1.62,1.62,0,0,1,.588-.535,3.121,3.121,0,0,1,.969-.317,8.422,8.422,0,0,1,1.448-.1Zm0,7.031q.625,0,1.05-.037a2.468,2.468,0,0,0,.7-.149.953.953,0,0,0,.43-.322,1.412,1.412,0,0,0,.22-.557,5.137,5.137,0,0,0,.081-.852q.012-.505.012-1.208t-.012-1.208a5.137,5.137,0,0,0-.081-.852,1.412,1.412,0,0,0-.22-.557.954.954,0,0,0-.427-.322,2.443,2.443,0,0,0-.7-.149q-.427-.037-1.052-.037h-1.88q-.625,0-1.052.037a2.474,2.474,0,0,0-.706.149.953.953,0,0,0-.43.322,1.412,1.412,0,0,0-.22.557,5,5,0,0,0-.078.852q-.01.505-.01,1.208t.012,1.208a5.137,5.137,0,0,0,.081.852,1.437,1.437,0,0,0,.217.557.937.937,0,0,0,.427.322,2.474,2.474,0,0,0,.706.149q.427.037,1.052.037Zm5.183-.312q0-.293.015-.583a4.007,4.007,0,0,1,.066-.557,2.451,2.451,0,0,1,.151-.5,1.342,1.342,0,0,1,.273-.413,1.4,1.4,0,0,1,.432-.3,1.956,1.956,0,0,1,.625-.151l5-.469a2.239,2.239,0,0,0,.41-.068.563.563,0,0,0,.291-.188.961.961,0,0,0,.173-.408,3.629,3.629,0,0,0,.059-.737,3.15,3.15,0,0,0-.059-.659,1.093,1.093,0,0,0-.2-.444A.859.859,0,0,0,54.4-6.68a2.384,2.384,0,0,0-.579-.137A7.558,7.558,0,0,0,53-6.868q-.474-.007-1.1-.007-.859,0-1.448.032a6.329,6.329,0,0,0-.972.115A1.669,1.669,0,0,0,48.9-6.5a.83.83,0,0,0-.3.369,1.635,1.635,0,0,0-.112.544q-.017.317-.017.747h-.937a4.628,4.628,0,0,1,.129-1.184,2.133,2.133,0,0,1,.381-.793,1.7,1.7,0,0,1,.623-.483,3.3,3.3,0,0,1,.857-.249,7.877,7.877,0,0,1,1.084-.09q.6-.012,1.3-.012t1.277.022a7.818,7.818,0,0,1,1.025.1,3.211,3.211,0,0,1,.784.229,1.525,1.525,0,0,1,.549.413,1.691,1.691,0,0,1,.322.647,3.593,3.593,0,0,1,.1.933,4.871,4.871,0,0,1-.068.852,1.876,1.876,0,0,1-.244.667,1.31,1.31,0,0,1-.479.454,1.931,1.931,0,0,1-.771.215l-5,.469a1.559,1.559,0,0,0-.547.132.586.586,0,0,0-.278.31,1.638,1.638,0,0,0-.1.559q-.012.347-.012.874h7.344V0H47.531Z" transform="translate(267 2064)" fill="#738489"/>
      <path id="Path_948" data-name="Path 948" d="M14.144-7.664c0-1.7.032-2.448.032-2.528,0-.112-.016-.128-.128-.128-.08,0-.64.032-2.24.032H8.352A13.038,13.038,0,0,0,8.416-11.6a5.572,5.572,0,0,1,.1-1.2,1.227,1.227,0,0,0,.08-.3c0-.08-.048-.144-.176-.16-.352-.048-.72-.08-1.072-.1a10.034,10.034,0,0,1,.1,1.584q0,.744-.048,1.488H4.3c-1.6,0-2.144-.032-2.24-.032-.112,0-.128.016-.128.128,0,.08.032.768.032,2.464v6.016c0,1.7-.032,2.352-.032,2.432,0,.112.016.128.128.128h.784c.112,0,.128-.016.128-.128,0-.08-.032-.752-.032-2.352v-7.76H7.3a7.5,7.5,0,0,1-.464,1.856,7.391,7.391,0,0,1-3.7,3.888A2.193,2.193,0,0,1,3.68-3.1c.1.128.144.192.208.192.048,0,.112-.048.224-.128A8.141,8.141,0,0,0,7.728-7.248a6.075,6.075,0,0,0,.288-.864,9.232,9.232,0,0,0,3.9,4.992c.112.08.176.128.24.128s.112-.064.208-.208a2.072,2.072,0,0,1,.56-.56,8.831,8.831,0,0,1-4.56-5.632h4.8V-.88c0,.464-.16.592-.72.608-.32,0-.944-.032-1.456-.08a2.018,2.018,0,0,1,.32.752c.08.32.1.32.4.32,1.344,0,1.792-.1,2.048-.3A1.222,1.222,0,0,0,14.176-.64c0-.512-.032-1.28-.032-2.56Zm10.464-.464c.08-.048.128-.1.128-.144,0-.08-.048-.128-.176-.176a8.18,8.18,0,0,0-.976-.224A4.117,4.117,0,0,1,22.912-7.6a14.666,14.666,0,0,1-6.064,4.128,1.876,1.876,0,0,1,.416.544c.08.176.128.256.208.256a.639.639,0,0,0,.256-.1A21.513,21.513,0,0,0,19.9-3.92c0,.224.016.624.016,1.36v1.1c0,2.128-.032,2.464-.032,2.56s.016.112.128.112h.72c.112,0,.128-.016.128-.112V.272h6.208v.752c0,.112.016.128.144.128h.7c.112,0,.128-.016.128-.128,0-.08-.032-.416-.032-2.528V-2.752c0-.64.016-1.008.016-1.216a23.659,23.659,0,0,0,2.384,1.216.755.755,0,0,0,.224.08c.08,0,.112-.08.192-.272a1.742,1.742,0,0,1,.4-.64,14.1,14.1,0,0,1-6.688-4.5ZM27.072-.576H20.864V-3.392h6.208ZM22.128-4.24c-.848,0-1.376,0-1.7-.016A13.829,13.829,0,0,0,24-7.472a12.213,12.213,0,0,0,3.552,3.216c-.32.016-.848.016-1.744.016Zm8.256-6.48c0-.432.032-.656.032-.736,0-.112-.016-.128-.128-.128-.08,0-.64.032-2.208.032H24.352v-.128a3.453,3.453,0,0,1,.08-1.12.617.617,0,0,0,.1-.288c0-.064-.08-.112-.208-.128-.3-.032-.656-.064-1.04-.08a6.872,6.872,0,0,1,.112,1.632v.112H19.9c-1.568,0-2.128-.032-2.208-.032-.112,0-.128.016-.128.128,0,.1.032.3.032.816v.512c0,1.376-.032,1.552-.032,1.648,0,.112.016.128.128.128h.736c.112,0,.128-.016.128-.128V-10.7H29.424V-8.48c0,.112.016.128.128.128h.736c.112,0,.128-.016.128-.128,0-.08-.032-.272-.032-1.648ZM22.352-9.248c0-.08-.032-.112-.144-.192a4.42,4.42,0,0,0-.832-.448,3.685,3.685,0,0,1-.608.848A8.331,8.331,0,0,1,18.08-7.216a1.777,1.777,0,0,1,.464.512c.1.16.144.224.208.224a.567.567,0,0,0,.256-.1A10.406,10.406,0,0,0,21.68-8.64a2.148,2.148,0,0,1,.448-.4C22.256-9.1,22.352-9.168,22.352-9.248ZM25.9-9.44c-.176.128-.192.144-.112.24a11.007,11.007,0,0,0,3.472,2.624.557.557,0,0,0,.224.1c.064,0,.112-.08.192-.256a2.273,2.273,0,0,1,.4-.592A9.316,9.316,0,0,1,26.5-9.712c-.064-.08-.1-.08-.208,0ZM47.024-.48c0-.112-.016-.128-.128-.128-.08,0-.528.032-1.936.032H43.488v-1.76h.624c1.456,0,1.92.032,2.016.032.112,0,.128-.016.128-.128v-.56c0-.112-.016-.128-.128-.128-.1,0-.56.032-2.016.032h-.624v-1.68h.624c1.456,0,1.92.032,2,.032.112,0,.128-.016.128-.144v-.544c0-.112-.016-.128-.128-.128-.08,0-.544.032-2,.032h-.624V-7.168h1.088c1.3,0,1.728.032,1.808.032.112,0,.128-.016.128-.128V-7.84c0-.112-.016-.128-.128-.128-.08,0-.512.032-1.808.032h-.944c.16-.336.288-.64.4-.9a1.16,1.16,0,0,1,.24-.4.274.274,0,0,0,.128-.192c0-.1-.064-.144-.192-.192-.208-.064-.464-.144-.784-.224a4.219,4.219,0,0,1-.208.832c-.128.336-.288.688-.48,1.072H40.672a14.985,14.985,0,0,0,1.216-2.432H46.1v1.376c0,.112.016.128.128.128h.656c.112,0,.128-.016.128-.128,0-.08-.032-.192-.032-1.2v-.368c0-.272.032-.432.032-.512,0-.112-.016-.128-.128-.128-.08,0-.624.032-2.192.032H42.176c.08-.256.16-.5.224-.736a2.069,2.069,0,0,1,.256-.752c.1-.112.144-.16.144-.256,0-.08-.048-.128-.224-.176l-.912-.176a6.381,6.381,0,0,1-.208,1.392c-.064.24-.128.464-.208.7H40.5c-1.568,0-2.1-.032-2.176-.032-.112,0-.128.016-.128.128,0,.08.032.24.032.576v.32c0,1.024-.032,1.136-.032,1.216,0,.112.016.128.128.128h.64c.112,0,.128-.016.128-.128v-1.408h1.888A12.544,12.544,0,0,1,37.76-5.584a1.6,1.6,0,0,1,.352.528c.048.112.1.16.144.16s.1-.048.16-.112c.368-.4.72-.784,1.04-1.184-.016.512-.032.992-.032,1.616v4c0,1.152-.032,1.488-.032,1.568,0,.112.016.128.128.128h.64c.112,0,.128-.016.128-.128V.208H44.96c1.408,0,1.856.032,1.936.032.112,0,.128-.016.128-.128Zm-4.384-.1H40.288v-1.76H42.64Zm0-2.512H40.288v-1.68H42.64Zm0-2.432H40.288V-7.168H42.64Zm-4.608-6.4c0-.112-.016-.128-.144-.128-.08,0-.432.032-1.6.032h-1.52c-1.168,0-1.52-.032-1.616-.032-.112,0-.128.016-.128.128v.656c0,.112.016.128.128.128.1,0,.448-.032,1.616-.032h.4A12.737,12.737,0,0,1,32.512-5.04a2.106,2.106,0,0,1,.368.576c.064.128.112.192.16.192s.112-.064.176-.16a16.674,16.674,0,0,0,.96-1.472V-3.12c0,2.464-.032,2.928-.032,3.008,0,.112.016.128.128.128H34.9c.112,0,.128-.016.128-.128V-1.536h1.76V-.9c0,.1.016.112.128.112h.608c.112,0,.128-.016.128-.112s-.032-.416-.032-2.816V-5.184c0-1.392.032-1.808.032-1.888,0-.112-.016-.128-.128-.128-.08,0-.384.032-1.12.032H34.832a15.588,15.588,0,0,0,1.248-4h.208c1.168,0,1.52.032,1.6.032.128,0,.144-.016.144-.128ZM36.784-2.352h-1.76v-4h1.76ZM57.136-12.48c-1.456,0-1.92-.032-2.016-.032-.112,0-.128.016-.128.128v.64c0,.112.016.128.128.128.1,0,.56-.032,2.016-.032h.672a7.537,7.537,0,0,1-.368,1.984c-.608-.272-1.232-.5-1.792-.688-.112-.048-.16-.032-.224.1l-.192.416c-.08.16-.1.192.016.224a19.874,19.874,0,0,1,1.872.752,5.8,5.8,0,0,1-3.072,2.736,1.481,1.481,0,0,1,.48.464c.1.16.144.208.224.208a.734.734,0,0,0,.256-.1A6.6,6.6,0,0,0,57.92-8.48c.48.256.944.512,1.344.752.112.064.16.064.256-.128l.208-.432c.08-.16.112-.192,0-.24-.464-.256-.96-.512-1.472-.768a9.021,9.021,0,0,0,.48-2.352h2.816a16.756,16.756,0,0,1-.432,4.24.773.773,0,0,1-.784.432A6.938,6.938,0,0,1,58.96-7.12a1.877,1.877,0,0,1,.224.656c.048.32.064.32.3.352a10.111,10.111,0,0,0,1.072.048A1.412,1.412,0,0,0,62-6.96a18.108,18.108,0,0,0,.5-4.384c.016-.336.016-.656.064-1.024,0-.112-.032-.144-.144-.144-.08,0-.576.032-2.048.032Zm-3.36,9.872c0-.72.032-1.056.032-1.152,0-.112-.016-.112-.128-.112-.08,0-.384.032-1.376.032H51.12c-.976,0-1.28-.032-1.36-.032-.128,0-.144,0-.144.112,0,.1.032.464.032,1.424v.96c0,1.952-.032,2.256-.032,2.336,0,.112.016.128.144.128h.64c.112,0,.128-.016.128-.128V.128h2.384V.64c0,.112.016.128.128.128h.64c.112,0,.128-.016.128-.128,0-.08-.032-.432-.032-2.272ZM52.912-.656H50.528v-2.4h2.384Zm4.736-2.576a2,2,0,0,1,.08-.752.54.54,0,0,0,.064-.192c0-.064-.048-.1-.192-.128a7.326,7.326,0,0,0-.9-.1,10.412,10.412,0,0,1,.064,1.232V-.384c0,.688.256.928.576,1.056a4.029,4.029,0,0,0,1.472.176A3.093,3.093,0,0,0,60.464.576c.528-.288.656-.752.784-1.728.016-.272.016-.3-.256-.4a2.124,2.124,0,0,1-.592-.32c-.016.864-.08,1.424-.432,1.68a2.071,2.071,0,0,1-1.12.16,2.48,2.48,0,0,1-.9-.1c-.256-.112-.3-.208-.3-.64Zm-3.3-7.024c0-.112-.016-.128-.128-.128-.1,0-.448.032-1.664.032H50.7c-1.2,0-1.584-.032-1.664-.032-.1,0-.112.016-.112.128v.672c0,.112.016.128.112.128.08,0,.464-.032,1.664-.032H52.56c1.216,0,1.568.032,1.664.032.112,0,.128-.016.128-.128Zm-.48-2.144c0-.112-.016-.128-.128-.128-.08,0-.368.032-1.392.032H51.1c-1.008,0-1.3-.032-1.392-.032-.112,0-.128.016-.128.128v.64c0,.112.016.128.128.128.1,0,.384-.032,1.392-.032h1.248c1.024,0,1.312.032,1.392.032.112,0,.128-.016.128-.128Zm-.256,6.464c0-.112-.016-.128-.128-.128-.08,0-.352.032-1.3.032H51.184c-.944,0-1.216-.032-1.3-.032-.112,0-.128.016-.128.128v.624c0,.112.016.128.128.128.08,0,.352-.032,1.3-.032h1.008c.944,0,1.216.032,1.3.032.112,0,.128-.016.128-.128Zm0-2.144c0-.112-.016-.128-.128-.128-.08,0-.352.032-1.3.032H51.184c-.944,0-1.216-.032-1.3-.032-.112,0-.128.016-.128.128v.624c0,.112.016.128.128.128.08,0,.352-.032,1.3-.032h1.008c.944,0,1.216.032,1.3.032.112,0,.128-.016.128-.128Zm1.7,4.32c-.208-.064-.24-.048-.256.08a8.749,8.749,0,0,1-.864,2.832c-.048.1-.048.128.16.24l.384.192c.192.08.208.08.272-.032a10.311,10.311,0,0,0,.9-3.008c.016-.112,0-.128-.16-.176Zm5.968,0c-.208.1-.224.112-.16.192A10.219,10.219,0,0,1,62.544-.832c.048.112.064.112.272,0l.384-.192c.192-.112.208-.112.176-.224A11.792,11.792,0,0,0,61.9-3.9c-.08-.112-.1-.112-.272-.016ZM57.536-5.648c-.144.144-.16.144-.048.224a7.923,7.923,0,0,1,1.936,1.68c.08.1.112.064.272-.1l.3-.3c.16-.16.16-.192.064-.288A12.456,12.456,0,0,0,58.1-6c-.112-.08-.128-.064-.256.064Z" transform="translate(263 2087)" fill="#738489"/>
      <rect id="bdr-5" data-name="bdr" width="80" height="1" transform="translate(255 2101)" fill="#cddfea"/>
    </g>
    <g id="arw-3" data-name="arw" transform="translate(-700.5 848)">
      <line id="bdr-6" data-name="bdr" x2="16" transform="translate(1109.5 888.5)" fill="none" stroke="#03728d" stroke-linecap="round" stroke-linejoin="round" stroke-width="1"/>
      <path id="arw-4" data-name="arw" d="M544.439,61.6l4,4,4-4" transform="translate(1059.9 1436.939) rotate(-90)" fill="none" stroke="#03728d" stroke-linecap="round" stroke-linejoin="round" stroke-width="1"/>
    </g>
    <g id="step-4" data-name="step" transform="translate(192 -334)">
      <rect id="bdr-7" data-name="bdr" width="80" height="1" transform="translate(246 2039)" fill="#cddfea"/>
      <path id="Path_949" data-name="Path 949" d="M5.664-4.219a11.8,11.8,0,0,1,1.323.063,4.761,4.761,0,0,1,.93.188,1.849,1.849,0,0,1,.6.31,1.349,1.349,0,0,1,.347.422,1.572,1.572,0,0,1,.159.53,5.132,5.132,0,0,1,.037.635A3.221,3.221,0,0,1,9-1.428a1.638,1.638,0,0,1-.217.549,1.611,1.611,0,0,1-.425.444A2.477,2.477,0,0,1,7.676-.1a5.246,5.246,0,0,1-1,.208A11.487,11.487,0,0,1,5.313.176H4.063A12.314,12.314,0,0,1,2.832.122a5.224,5.224,0,0,1-.908-.164,2.221,2.221,0,0,1-.63-.278,1.417,1.417,0,0,1-.4-.4,1.459,1.459,0,0,1-.208-.518A3.255,3.255,0,0,1,.63-1.875h.938a1.537,1.537,0,0,0,.127.688.8.8,0,0,0,.42.374,2.408,2.408,0,0,0,.769.156q.476.032,1.179.032h1.25A9.824,9.824,0,0,0,6.675-.7a2.687,2.687,0,0,0,.864-.249A1,1,0,0,0,7.993-1.4a1.548,1.548,0,0,0,.132-.671,2.058,2.058,0,0,0-.09-.659.77.77,0,0,0-.356-.42,2.051,2.051,0,0,0-.75-.222,9.736,9.736,0,0,0-1.265-.066H4.375A14.572,14.572,0,0,1,2.9-3.5a6.022,6.022,0,0,1-1.028-.183,2.18,2.18,0,0,1-.664-.3A1.276,1.276,0,0,1,.833-4.39,1.43,1.43,0,0,1,.664-4.9a4.422,4.422,0,0,1-.039-.608,3.112,3.112,0,0,1,.061-.635,1.415,1.415,0,0,1,.227-.53,1.606,1.606,0,0,1,.454-.422,2.69,2.69,0,0,1,.74-.31,6.625,6.625,0,0,1,1.086-.188q.635-.063,1.494-.063h.938q.7,0,1.23.051a5.091,5.091,0,0,1,.908.161A2.358,2.358,0,0,1,8.4-7.17a1.35,1.35,0,0,1,.4.391A1.459,1.459,0,0,1,9-6.265a3.218,3.218,0,0,1,.059.64H8.125A1.537,1.537,0,0,0,8-6.313a.8.8,0,0,0-.42-.374,2.415,2.415,0,0,0-.771-.156q-.479-.032-1.182-.032H4.688a14.743,14.743,0,0,0-1.543.066,3.294,3.294,0,0,0-.957.222.959.959,0,0,0-.488.42,1.423,1.423,0,0,0-.137.659,2.478,2.478,0,0,0,.034.435.8.8,0,0,0,.139.334.819.819,0,0,0,.3.242,1.987,1.987,0,0,0,.5.161,5.581,5.581,0,0,0,.764.09q.452.027,1.077.027ZM16.281-2.5a5.166,5.166,0,0,1-.117,1.2,1.652,1.652,0,0,1-.393.769,1.536,1.536,0,0,1-.725.41A4.293,4.293,0,0,1,13.938,0a5,5,0,0,1-1.074-.1,1.573,1.573,0,0,1-.7-.332,1.3,1.3,0,0,1-.386-.625,3.453,3.453,0,0,1-.117-.977V-4.854H10.5v-.771h1.157V-7.163h.938v1.538h3.53v.771h-3.53v2.822a2.837,2.837,0,0,0,.071.723.67.67,0,0,0,.227.371.772.772,0,0,0,.413.137q.256.02.627.02.293,0,.525-.01a1.687,1.687,0,0,0,.405-.061.79.79,0,0,0,.3-.156.742.742,0,0,0,.2-.3,1.932,1.932,0,0,0,.11-.481A6.275,6.275,0,0,0,15.5-2.5ZM21,.107a8.353,8.353,0,0,1-1.592-.129,2.511,2.511,0,0,1-1.064-.447,1.79,1.79,0,0,1-.6-.85,4.115,4.115,0,0,1-.186-1.338,5.282,5.282,0,0,1,.186-1.526,2.024,2.024,0,0,1,.6-.959,2.347,2.347,0,0,1,1.064-.5A7.652,7.652,0,0,1,21-5.781a6.014,6.014,0,0,1,1.16.1A3.061,3.061,0,0,1,23-5.4a1.841,1.841,0,0,1,.566.449,2.289,2.289,0,0,1,.342.554,2.468,2.468,0,0,1,.171.681,7,7,0,0,1,.046.825l-.078.313H18.5a3.67,3.67,0,0,0,.127,1.057,1.055,1.055,0,0,0,.42.6,1.748,1.748,0,0,0,.771.242A11.381,11.381,0,0,0,21-.625q.645,0,1.067-.037A2.339,2.339,0,0,0,22.738-.8a.666.666,0,0,0,.349-.286.989.989,0,0,0,.1-.476h.938a1.727,1.727,0,0,1-.159.774,1.2,1.2,0,0,1-.525.518,2.986,2.986,0,0,1-.964.288A10.13,10.13,0,0,1,21,.107ZM21-5q-.469,0-.837.02a3.625,3.625,0,0,0-.645.085,1.535,1.535,0,0,0-.471.19,1.114,1.114,0,0,0-.315.293,1.192,1.192,0,0,0-.176.474A4.129,4.129,0,0,0,18.5-3.2h4.688a2.629,2.629,0,0,0-.122-.9,1.217,1.217,0,0,0-.386-.535A1.523,1.523,0,0,0,22-4.922,5.5,5.5,0,0,0,21-5Zm8.313-.781A7.652,7.652,0,0,1,30.9-5.64a2.44,2.44,0,0,1,1.064.483,1.933,1.933,0,0,1,.6.916A4.74,4.74,0,0,1,32.75-2.8a4.562,4.562,0,0,1-.186,1.411,1.873,1.873,0,0,1-.6.894A2.466,2.466,0,0,1,30.9-.029a7.917,7.917,0,0,1-1.592.137A7.125,7.125,0,0,1,28.194.034a3.792,3.792,0,0,1-.735-.183,1.514,1.514,0,0,1-.435-.237.941.941,0,0,1-.212-.239v2.5h-.937v-7.5h.938V-5.1a1,1,0,0,1,.212-.217,1.527,1.527,0,0,1,.435-.222,4.014,4.014,0,0,1,.735-.171A7.626,7.626,0,0,1,29.313-5.781Zm0,.781q-.469,0-.835.024a3.312,3.312,0,0,0-.645.1,1.387,1.387,0,0,0-.471.22,1.077,1.077,0,0,0-.315.386,2.031,2.031,0,0,0-.178.6,5.585,5.585,0,0,0-.056.854,5.723,5.723,0,0,0,.056.864,2.036,2.036,0,0,0,.178.6,1.077,1.077,0,0,0,.315.386,1.387,1.387,0,0,0,.471.22,3.2,3.2,0,0,0,.645.1q.366.022.835.022.547,0,.945-.034a3.176,3.176,0,0,0,.676-.122,1.207,1.207,0,0,0,.452-.244,1.037,1.037,0,0,0,.269-.4A2.135,2.135,0,0,0,31.781-2q.032-.339.032-.8t-.032-.8a2.173,2.173,0,0,0-.127-.586,1.034,1.034,0,0,0-.269-.4,1.26,1.26,0,0,0-.452-.249,2.964,2.964,0,0,0-.676-.127Q29.859-5,29.313-5ZM42.349-7.656a8.422,8.422,0,0,1,1.448.1,3.121,3.121,0,0,1,.969.317,1.6,1.6,0,0,1,.586.535,2.324,2.324,0,0,1,.3.757,5.4,5.4,0,0,1,.112.981q.017.547.017,1.211t-.017,1.211a5.4,5.4,0,0,1-.112.981,2.324,2.324,0,0,1-.3.757,1.6,1.6,0,0,1-.586.535A3.121,3.121,0,0,1,43.8.051a8.422,8.422,0,0,1-1.448.1h-1.88a8.422,8.422,0,0,1-1.448-.1,3.121,3.121,0,0,1-.969-.317A1.62,1.62,0,0,1,37.463-.8a2.291,2.291,0,0,1-.3-.757,5.266,5.266,0,0,1-.11-.981q-.015-.547-.015-1.211t.015-1.211a5.266,5.266,0,0,1,.11-.981,2.291,2.291,0,0,1,.3-.757,1.62,1.62,0,0,1,.588-.535,3.121,3.121,0,0,1,.969-.317,8.422,8.422,0,0,1,1.448-.1Zm0,7.031q.625,0,1.05-.037a2.468,2.468,0,0,0,.7-.149.953.953,0,0,0,.43-.322,1.412,1.412,0,0,0,.22-.557,5.137,5.137,0,0,0,.081-.852q.012-.505.012-1.208t-.012-1.208a5.137,5.137,0,0,0-.081-.852,1.412,1.412,0,0,0-.22-.557.954.954,0,0,0-.427-.322,2.443,2.443,0,0,0-.7-.149q-.427-.037-1.052-.037h-1.88q-.625,0-1.052.037a2.474,2.474,0,0,0-.706.149.953.953,0,0,0-.43.322,1.412,1.412,0,0,0-.22.557,5,5,0,0,0-.078.852q-.01.505-.01,1.208t.012,1.208a5.137,5.137,0,0,0,.081.852,1.437,1.437,0,0,0,.217.557.937.937,0,0,0,.427.322,2.474,2.474,0,0,0,.706.149q.427.037,1.052.037ZM54.094-4.219a1.907,1.907,0,0,0,.41-.039.578.578,0,0,0,.291-.154.727.727,0,0,0,.173-.33,2.221,2.221,0,0,0,.059-.566,3.15,3.15,0,0,0-.059-.659,1.093,1.093,0,0,0-.2-.444A.859.859,0,0,0,54.4-6.68a2.384,2.384,0,0,0-.579-.137A7.558,7.558,0,0,0,53-6.868q-.474-.007-1.1-.007-.859,0-1.448.022a8.352,8.352,0,0,0-.972.083A1.978,1.978,0,0,0,48.9-6.6a.7.7,0,0,0-.3.281,1.014,1.014,0,0,0-.112.422q-.017.249-.017.586h-.937a3.31,3.31,0,0,1,.129-1,1.68,1.68,0,0,1,.381-.667,1.657,1.657,0,0,1,.623-.4,3.791,3.791,0,0,1,.857-.2A10.071,10.071,0,0,1,50.6-7.646q.6-.01,1.3-.01t1.277.022a7.818,7.818,0,0,1,1.025.1,3.211,3.211,0,0,1,.784.229,1.525,1.525,0,0,1,.549.413,1.691,1.691,0,0,1,.322.647,3.593,3.593,0,0,1,.1.933,3.252,3.252,0,0,1-.046.6,1.348,1.348,0,0,1-.142.413.89.89,0,0,1-.242.278,1.7,1.7,0,0,1-.352.2,1.205,1.205,0,0,1,.352.225,1.11,1.11,0,0,1,.242.334,1.768,1.768,0,0,1,.142.464,3.634,3.634,0,0,1,.046.618,3.593,3.593,0,0,1-.1.933,1.691,1.691,0,0,1-.322.647,1.525,1.525,0,0,1-.549.413,3.211,3.211,0,0,1-.784.229,7.818,7.818,0,0,1-1.025.1q-.574.022-1.277.022T50.6.146A8.865,8.865,0,0,1,49.521.068a3.68,3.68,0,0,1-.857-.217,1.656,1.656,0,0,1-.623-.427,1.822,1.822,0,0,1-.381-.708,3.723,3.723,0,0,1-.129-1.06h.938q0,.371.02.642a1.256,1.256,0,0,0,.112.461.726.726,0,0,0,.3.31,1.835,1.835,0,0,0,.588.188,7.462,7.462,0,0,0,.972.093q.588.024,1.448.024.625,0,1.1-.007a7.558,7.558,0,0,0,.82-.051A2.384,2.384,0,0,0,54.4-.82a.859.859,0,0,0,.369-.269,1.093,1.093,0,0,0,.2-.444,3.15,3.15,0,0,0,.059-.659,2.949,2.949,0,0,0-.059-.657.881.881,0,0,0-.173-.378A.526.526,0,0,0,54.5-3.4a1.907,1.907,0,0,0-.41-.039H50.656v-.781Z" transform="translate(258 2064)" fill="#738489"/>
      <path id="Path_950" data-name="Path 950" d="M12.448-6.016c1.584,0,2.128.032,2.208.032.112,0,.128-.016.128-.128v-.64c0-.112-.016-.128-.128-.128-.08,0-.624.032-2.208.032H10.176a20.481,20.481,0,0,0,.16-2.384h1.776c1.536,0,2.032.032,2.128.032.112,0,.128-.016.128-.128v-.64c0-.112-.016-.128-.128-.128-.1,0-.592.032-2.128.032h-.64c.448-.672.848-1.36,1.136-1.9a1.017,1.017,0,0,1,.288-.416c.112-.064.192-.144.192-.24,0-.08-.064-.144-.16-.192a8.1,8.1,0,0,0-.944-.32,3.5,3.5,0,0,1-.256.816c-.288.624-.736,1.424-1.232,2.256H8.08c-1.536,0-2.048-.032-2.144-.032-.112,0-.112.016-.112.128v.64c0,.112,0,.128.112.128.1,0,.608-.032,2.144-.032H9.392A15.463,15.463,0,0,1,9.28-6.848H7.712C6.128-6.848,5.6-6.88,5.52-6.88c-.112,0-.128.016-.128.128v.64c0,.112.016.128.128.128.08,0,.608-.032,2.192-.032H9.136C8.656-4.08,7.488-2.976,5.28-2.08a1.664,1.664,0,0,1,.464.48c.112.176.144.256.224.256a.557.557,0,0,0,.224-.1,6.156,6.156,0,0,0,3.712-4,7.84,7.84,0,0,0,4.32,4.064c.288.112.32.1.432-.208a1.647,1.647,0,0,1,.384-.592,7.506,7.506,0,0,1-4.624-3.84Zm-8.208.56c0-.992.032-1.408.032-1.488,0-.112-.016-.128-.128-.128-.1,0-.336.032-1.152.032H2.128c-.832,0-1.04-.032-1.1-.032-.112,0-.128.016-.128.128v.7c0,.112.016.128.128.128.064,0,.272-.032,1.1-.032H3.312v3.952A10.981,10.981,0,0,1,1.84-.88a8.125,8.125,0,0,1-.992.592A5.936,5.936,0,0,0,1.312.56.231.231,0,0,0,1.5.688c.064,0,.128-.032.192-.144a1.615,1.615,0,0,1,.336-.32A18.351,18.351,0,0,0,3.76-1.344,3,3,0,0,0,5.248.24,10.815,10.815,0,0,0,9.184.752c1.632,0,3.6-.064,5.68-.192.32-.016.32-.016.368-.352a1.676,1.676,0,0,1,.3-.736c-2.368.24-4.672.336-6.72.336a9,9,0,0,1-3.2-.4A2.488,2.488,0,0,1,4.24-2.176ZM1.664-12.3c-.176.112-.176.144-.1.24a14.348,14.348,0,0,1,1.76,2.272c.064.112.112.112.288-.016l.416-.32c.16-.128.16-.176.1-.272A15.174,15.174,0,0,0,2.32-12.608c-.08-.064-.128-.064-.256.032Zm5.36-.336c-.144.064-.176.112-.1.208a9.547,9.547,0,0,1,1.1,1.824c.064.128.08.16.288.048l.4-.208c.192-.1.224-.128.176-.24a10.651,10.651,0,0,0-1.152-1.84c-.08-.1-.08-.1-.256-.016ZM29.584-2.352c0-.736.032-1.072.032-1.168s-.016-.112-.112-.112S28.9-3.6,27.44-3.6H24.1c-1.472,0-1.984-.032-2.08-.032-.112,0-.128.016-.128.112s.032.432.032,1.328v1.184C21.92.5,21.888.88,21.888.96c0,.112.016.128.128.128h.72c.112,0,.128-.016.128-.128V.24h5.76V.912c0,.1.016.112.128.112H29.5c.1,0,.112-.016.112-.112s-.032-.48-.032-1.968Zm-.96,1.776h-5.76V-2.784h5.76ZM18.592-1.52c0,1.7-.032,2.432-.032,2.512,0,.112.016.128.112.128h.768c.112,0,.128-.016.128-.128,0-.08-.032-.816-.032-2.512V-9.712c.352-.768.64-1.536.912-2.3a1.777,1.777,0,0,1,.3-.624.329.329,0,0,0,.128-.24c0-.064-.048-.112-.192-.176a5.6,5.6,0,0,0-.944-.272,4.577,4.577,0,0,1-.208,1.088,16.661,16.661,0,0,1-3.088,5.76,1.751,1.751,0,0,1,.4.624c.048.112.08.176.128.176s.112-.064.208-.176a17.143,17.143,0,0,0,1.424-2.08c-.016.816-.016,1.728-.016,2.352Zm12.544-8.528c0-.112-.016-.128-.144-.128-.08,0-.608.032-2.24.032H23.1c-1.632,0-2.16-.032-2.24-.032-.112,0-.128.016-.128.128v.672c0,.112.016.128.128.128.08,0,.608-.032,2.24-.032h5.648c1.632,0,2.16.032,2.24.032.128,0,.144-.016.144-.128Zm-1.712-2.16c0-.112-.016-.128-.144-.128-.08,0-.528.032-1.952.032H24.336c-1.424,0-1.872-.032-1.968-.032-.112,0-.128.016-.128.128v.656c0,.1.016.112.128.112.1,0,.544-.032,1.968-.032h2.992c1.424,0,1.872.032,1.952.032.128,0,.144-.016.144-.112ZM29.28-5.68c0-.112-.016-.128-.128-.128-.08,0-.528.032-1.936.032H24.3c-1.408,0-1.872-.032-1.952-.032-.112,0-.128.016-.128.128v.624c0,.112.016.128.128.128.08,0,.544-.032,1.952-.032h2.912c1.408,0,1.856.032,1.936.032.112,0,.128-.016.128-.128Zm0-2.16c0-.112-.016-.128-.128-.128-.08,0-.528.032-1.936.032H24.3c-1.408,0-1.872-.032-1.952-.032-.112,0-.128.016-.128.128v.624c0,.112.016.128.128.128.08,0,.544-.032,1.952-.032h2.912c1.408,0,1.856.032,1.936.032.112,0,.128-.016.128-.128ZM41.888-5.2h2.48c1.552,0,2.08.032,2.16.032.112,0,.128-.016.128-.144v-.672c0-.112-.016-.128-.128-.128-.08,0-.608.032-2.16.032h-8.72c-1.552,0-2.064-.032-2.16-.032-.112,0-.128.016-.128.128v.672c0,.128.016.144.128.144.1,0,.608-.032,2.16-.032h2A5.343,5.343,0,0,1,36.56-1.68,7,7,0,0,1,32.992.208,2.456,2.456,0,0,1,33.5.784c.1.176.128.256.224.256a1.364,1.364,0,0,0,.24-.064,7.015,7.015,0,0,0,3.424-2.144A6.328,6.328,0,0,0,38.656-5.2H40.9v3.872c0,.96.064,1.3.32,1.616.3.352.944.448,2.432.448,1.6,0,2.16-.16,2.672-.512.4-.288.592-.816.672-1.9.016-.272.016-.272-.272-.352a2,2,0,0,1-.64-.32C46.048-1.216,45.952-.72,45.6-.48a3.268,3.268,0,0,1-1.68.272c-1.04,0-1.712-.032-1.872-.24-.16-.192-.16-.512-.16-1.1Zm4.48-5.344c0-.448.032-.688.032-.768,0-.112-.016-.128-.128-.128-.08,0-.64.032-2.208.032H40.352v-.224a4.534,4.534,0,0,1,.064-1.136.682.682,0,0,0,.1-.288c0-.064-.08-.112-.192-.128a9.251,9.251,0,0,0-1.04-.1,7.108,7.108,0,0,1,.112,1.648v.224H35.9c-1.568,0-2.128-.032-2.208-.032-.112,0-.128.016-.128.128,0,.08.032.32.032.88V-9.9c0,1.424-.032,1.616-.032,1.712,0,.112.016.128.128.128h.736c.112,0,.128-.016.128-.128v-2.352H45.408v2.352c0,.112.016.128.128.128h.736c.112,0,.128-.016.128-.128,0-.1-.032-.3-.032-1.712Zm-2.4,1.888c0-.128-.016-.144-.112-.144-.08,0-.576.032-2.08.032H38.192c-1.5,0-2-.032-2.08-.032-.112,0-.128.016-.128.144V-8c0,.112.016.128.128.128.08,0,.576-.032,2.08-.032h3.584c1.5,0,2,.032,2.08.032.1,0,.112-.016.112-.128Zm8.656-3.664c-1.584,0-2.128-.032-2.208-.032-.112,0-.128.016-.128.128v.752c0,.128.016.144.128.144.08,0,.624-.032,2.208-.032h7.9a27.244,27.244,0,0,1-3.936,2.848c-.288-.032-.624-.064-.944-.112a11.124,11.124,0,0,1,.144,2.288v5.088c0,.7-.336.976-.88.976a19.063,19.063,0,0,1-2.16-.08,1.916,1.916,0,0,1,.336.784c.08.336.08.336.4.336,1.472,0,2.4,0,2.864-.432a1.478,1.478,0,0,0,.512-1.344c0-.368-.032-.912-.032-2.016v-4.5a32.122,32.122,0,0,0,4.72-3.408A2.711,2.711,0,0,1,62.1-11.3a.254.254,0,0,0,.176-.272c0-.144-.08-.224-.384-.528-.256-.256-.4-.336-.48-.336a.379.379,0,0,0-.16.048,1.149,1.149,0,0,1-.432.064Z" transform="translate(254 2087)" fill="#738489"/>
      <rect id="bdr-8" data-name="bdr" width="80" height="1" transform="translate(246 2101)" fill="#cddfea"/>
    </g>
  </g>
</svg>
