<svg xmlns="http://www.w3.org/2000/svg" width="894" height="63" viewBox="0 0 894 63">
  <g id="step" transform="translate(-193 -1705)">
    <g id="step-2" data-name="step" transform="translate(-62 -334)">
      <rect id="bdr" width="260" height="1" transform="translate(255 2039)" fill="#03728d"/>
      <path id="Path_939" data-name="Path 939" d="M8.5-6.328a17.7,17.7,0,0,1,1.985.1,7.141,7.141,0,0,1,1.4.282,2.773,2.773,0,0,1,.9.465,2.023,2.023,0,0,1,.52.634,2.358,2.358,0,0,1,.238.795,7.7,7.7,0,0,1,.055.952,4.832,4.832,0,0,1-.092.963,2.457,2.457,0,0,1-.326.824,2.416,2.416,0,0,1-.637.667,3.716,3.716,0,0,1-1.025.5,7.87,7.87,0,0,1-1.5.311A17.231,17.231,0,0,1,7.969.264H6.094A18.472,18.472,0,0,1,4.248.183,7.837,7.837,0,0,1,2.886-.062,3.331,3.331,0,0,1,1.941-.48a2.125,2.125,0,0,1-.6-.593,2.189,2.189,0,0,1-.311-.776,4.882,4.882,0,0,1-.088-.963H2.351a2.305,2.305,0,0,0,.19,1.033,1.2,1.2,0,0,0,.63.56,3.612,3.612,0,0,0,1.154.234q.714.048,1.769.048H7.969a14.736,14.736,0,0,0,2.043-.117,4.031,4.031,0,0,0,1.3-.374,1.5,1.5,0,0,0,.681-.67,2.322,2.322,0,0,0,.2-1.007,3.087,3.087,0,0,0-.135-.989,1.155,1.155,0,0,0-.535-.63,3.076,3.076,0,0,0-1.124-.333,14.6,14.6,0,0,0-1.9-.1H6.563a21.858,21.858,0,0,1-2.208-.1,9.032,9.032,0,0,1-1.542-.275,3.27,3.27,0,0,1-1-.447,1.914,1.914,0,0,1-.568-.612A2.145,2.145,0,0,1,1-7.35a6.633,6.633,0,0,1-.059-.912,4.668,4.668,0,0,1,.092-.952,2.123,2.123,0,0,1,.341-.795,2.408,2.408,0,0,1,.681-.634,4.034,4.034,0,0,1,1.11-.465,9.938,9.938,0,0,1,1.63-.282q.952-.1,2.241-.1H8.438q1.055,0,1.846.077a7.637,7.637,0,0,1,1.362.242,3.538,3.538,0,0,1,.948.41,2.026,2.026,0,0,1,.6.586,2.189,2.189,0,0,1,.311.773,4.827,4.827,0,0,1,.088.959H12.188A2.305,2.305,0,0,0,12-9.47a1.2,1.2,0,0,0-.63-.56,3.623,3.623,0,0,0-1.157-.234q-.718-.048-1.772-.048H7.031a22.114,22.114,0,0,0-2.314.1,4.94,4.94,0,0,0-1.436.333,1.439,1.439,0,0,0-.732.63,2.134,2.134,0,0,0-.205.989A3.717,3.717,0,0,0,2.4-7.61a1.2,1.2,0,0,0,.209.5,1.228,1.228,0,0,0,.443.363A2.98,2.98,0,0,0,3.8-6.5a8.372,8.372,0,0,0,1.146.135q.677.04,1.615.04ZM24.422-3.75a7.749,7.749,0,0,1-.176,1.8A2.477,2.477,0,0,1,23.656-.8a2.3,2.3,0,0,1-1.088.615A6.44,6.44,0,0,1,20.906,0a7.494,7.494,0,0,1-1.611-.146,2.36,2.36,0,0,1-1.055-.5,1.956,1.956,0,0,1-.579-.937,5.18,5.18,0,0,1-.176-1.465V-7.28H15.75V-8.437h1.736v-2.307h1.406v2.307h5.3V-7.28h-5.3v4.233A4.256,4.256,0,0,0,19-1.963a1,1,0,0,0,.341.557,1.158,1.158,0,0,0,.619.205q.385.029.941.029.439,0,.787-.015a2.531,2.531,0,0,0,.608-.092,1.185,1.185,0,0,0,.443-.234,1.113,1.113,0,0,0,.3-.443,2.9,2.9,0,0,0,.165-.721A9.413,9.413,0,0,0,23.25-3.75ZM31.5.161a12.53,12.53,0,0,1-2.388-.194,3.766,3.766,0,0,1-1.6-.67,2.685,2.685,0,0,1-.894-1.274,6.173,6.173,0,0,1-.278-2.007,7.923,7.923,0,0,1,.278-2.289,3.037,3.037,0,0,1,.894-1.439,3.521,3.521,0,0,1,1.6-.747A11.479,11.479,0,0,1,31.5-8.672a9.021,9.021,0,0,1,1.74.146A4.592,4.592,0,0,1,34.5-8.1a2.761,2.761,0,0,1,.85.674,3.433,3.433,0,0,1,.513.831,3.7,3.7,0,0,1,.256,1.022,10.505,10.505,0,0,1,.07,1.238l-.117.469H27.75a5.5,5.5,0,0,0,.19,1.586,1.583,1.583,0,0,0,.63.9,2.621,2.621,0,0,0,1.157.363A17.071,17.071,0,0,0,31.5-.937q.967,0,1.6-.055A3.509,3.509,0,0,0,34.107-1.2a1,1,0,0,0,.524-.428,1.483,1.483,0,0,0,.15-.714h1.406a2.59,2.59,0,0,1-.238,1.161,1.793,1.793,0,0,1-.787.776,4.479,4.479,0,0,1-1.447.432A15.2,15.2,0,0,1,31.5.161Zm0-7.661q-.7,0-1.256.029a5.437,5.437,0,0,0-.967.128,2.3,2.3,0,0,0-.707.286,1.672,1.672,0,0,0-.472.439,1.788,1.788,0,0,0-.264.71,6.193,6.193,0,0,0-.084,1.1h7.031A3.943,3.943,0,0,0,34.6-6.149a1.826,1.826,0,0,0-.579-.8A2.285,2.285,0,0,0,33-7.383,8.253,8.253,0,0,0,31.5-7.5ZM43.969-8.672a11.479,11.479,0,0,1,2.388.212,3.66,3.66,0,0,1,1.6.725,2.9,2.9,0,0,1,.894,1.373A7.111,7.111,0,0,1,49.125-4.2a6.843,6.843,0,0,1-.278,2.117,2.809,2.809,0,0,1-.894,1.34,3.7,3.7,0,0,1-1.6.7,11.876,11.876,0,0,1-2.388.205,10.687,10.687,0,0,1-1.677-.11,5.687,5.687,0,0,1-1.1-.275,2.27,2.27,0,0,1-.652-.355,1.412,1.412,0,0,1-.319-.359v3.75H38.813V-8.437h1.406v.784a1.5,1.5,0,0,1,.319-.326,2.29,2.29,0,0,1,.652-.333,6.021,6.021,0,0,1,1.1-.256A11.438,11.438,0,0,1,43.969-8.672Zm0,1.172q-.7,0-1.252.037a4.968,4.968,0,0,0-.967.15,2.081,2.081,0,0,0-.707.33,1.615,1.615,0,0,0-.472.579,3.047,3.047,0,0,0-.267.9,8.378,8.378,0,0,0-.084,1.282,8.584,8.584,0,0,0,.084,1.3,3.054,3.054,0,0,0,.267.9,1.615,1.615,0,0,0,.472.579,2.081,2.081,0,0,0,.707.33,4.8,4.8,0,0,0,.967.146q.549.033,1.252.033.82,0,1.417-.051A4.764,4.764,0,0,0,46.4-1.172a1.811,1.811,0,0,0,.677-.366,1.556,1.556,0,0,0,.4-.6,3.2,3.2,0,0,0,.19-.872q.048-.509.048-1.2t-.048-1.2a3.26,3.26,0,0,0-.19-.879,1.551,1.551,0,0,0-.4-.6,1.891,1.891,0,0,0-.677-.374,4.446,4.446,0,0,0-1.014-.19Q44.789-7.5,43.969-7.5Zm19.554-3.984a12.632,12.632,0,0,1,2.172.157,4.682,4.682,0,0,1,1.454.476,2.4,2.4,0,0,1,.879.8,3.486,3.486,0,0,1,.45,1.135,8.092,8.092,0,0,1,.168,1.472q.026.82.026,1.816t-.026,1.816a8.092,8.092,0,0,1-.168,1.472,3.486,3.486,0,0,1-.45,1.135,2.4,2.4,0,0,1-.879.8,4.682,4.682,0,0,1-1.454.476,12.632,12.632,0,0,1-2.172.157H60.7A12.632,12.632,0,0,1,58.531.077,4.682,4.682,0,0,1,57.078-.4a2.43,2.43,0,0,1-.883-.8,3.436,3.436,0,0,1-.454-1.135,7.9,7.9,0,0,1-.165-1.472q-.022-.82-.022-1.816t.022-1.816a7.9,7.9,0,0,1,.165-1.472,3.436,3.436,0,0,1,.454-1.135,2.43,2.43,0,0,1,.883-.8,4.682,4.682,0,0,1,1.454-.476,12.632,12.632,0,0,1,2.172-.157Zm0,10.547q.938,0,1.575-.055a3.7,3.7,0,0,0,1.055-.223A1.429,1.429,0,0,0,66.8-1.7a2.119,2.119,0,0,0,.33-.835,7.707,7.707,0,0,0,.121-1.278q.018-.758.018-1.813t-.018-1.813a7.707,7.707,0,0,0-.121-1.278,2.119,2.119,0,0,0-.33-.835,1.431,1.431,0,0,0-.641-.483,3.664,3.664,0,0,0-1.055-.223q-.641-.055-1.578-.055H60.7q-.937,0-1.578.055a3.711,3.711,0,0,0-1.058.223,1.429,1.429,0,0,0-.645.483,2.119,2.119,0,0,0-.33.835,7.492,7.492,0,0,0-.117,1.278q-.015.758-.015,1.813t.018,1.813A7.707,7.707,0,0,0,57.1-2.534a2.156,2.156,0,0,0,.326.835,1.4,1.4,0,0,0,.641.483,3.711,3.711,0,0,0,1.058.223q.641.055,1.578.055ZM74.813-11.25h1.875V0H75.281V-10.078L72-7.266,71.3-8.2Z" transform="translate(300 2077)" fill="#03728d"/>
      <path id="Path_940" data-name="Path 940" d="M15.912-8.622c0-1.908.036-2.754.036-2.844,0-.126-.018-.144-.144-.144-.09,0-.72.036-2.52.036H9.4a14.667,14.667,0,0,0,.072-1.476,6.269,6.269,0,0,1,.108-1.35,1.38,1.38,0,0,0,.09-.342c0-.09-.054-.162-.2-.18-.4-.054-.81-.09-1.206-.108a11.288,11.288,0,0,1,.108,1.782q0,.837-.054,1.674H4.842c-1.8,0-2.412-.036-2.52-.036-.126,0-.144.018-.144.144,0,.09.036.864.036,2.772v6.768C2.214-.018,2.178.72,2.178.81c0,.126.018.144.144.144H3.2c.126,0,.144-.018.144-.144,0-.09-.036-.846-.036-2.646v-8.73h4.9a8.436,8.436,0,0,1-.522,2.088A8.315,8.315,0,0,1,3.528-4.1a2.467,2.467,0,0,1,.612.612c.108.144.162.216.234.216.054,0,.126-.054.252-.144A9.159,9.159,0,0,0,8.694-8.154a6.834,6.834,0,0,0,.324-.972A10.386,10.386,0,0,0,13.41-3.51c.126.09.2.144.27.144s.126-.072.234-.234a2.331,2.331,0,0,1,.63-.63,9.935,9.935,0,0,1-5.13-6.336h5.4V-.99c0,.522-.18.666-.81.684-.36,0-1.062-.036-1.638-.09a2.27,2.27,0,0,1,.36.846c.09.36.108.36.45.36,1.512,0,2.016-.108,2.3-.342A1.375,1.375,0,0,0,15.948-.72c0-.576-.036-1.44-.036-2.88Zm11.772-.522c.09-.054.144-.108.144-.162,0-.09-.054-.144-.2-.2a9.2,9.2,0,0,0-1.1-.252,4.631,4.631,0,0,1-.756,1.206,16.5,16.5,0,0,1-6.822,4.644,2.11,2.11,0,0,1,.468.612c.09.2.144.288.234.288a.719.719,0,0,0,.288-.108,24.2,24.2,0,0,0,2.448-1.3c0,.252.018.7.018,1.53v1.242c0,2.394-.036,2.772-.036,2.88s.018.126.144.126h.81c.126,0,.144-.018.144-.126V.306h6.984v.846c0,.126.018.144.162.144h.792c.126,0,.144-.018.144-.144,0-.09-.036-.468-.036-2.844V-3.1c0-.72.018-1.134.018-1.368A26.617,26.617,0,0,0,34.218-3.1a.85.85,0,0,0,.252.09c.09,0,.126-.09.216-.306a1.96,1.96,0,0,1,.45-.72A15.864,15.864,0,0,1,27.612-9.09Zm2.772,8.5H23.472V-3.816h6.984ZM24.894-4.77c-.954,0-1.548,0-1.908-.018A15.557,15.557,0,0,0,27-8.406a13.739,13.739,0,0,0,4,3.618c-.36.018-.954.018-1.962.018Zm9.288-7.29c0-.486.036-.738.036-.828,0-.126-.018-.144-.144-.144-.09,0-.72.036-2.484.036H27.4v-.144a3.884,3.884,0,0,1,.09-1.26.694.694,0,0,0,.108-.324c0-.072-.09-.126-.234-.144-.342-.036-.738-.072-1.17-.09a7.731,7.731,0,0,1,.126,1.836V-13H22.392c-1.764,0-2.394-.036-2.484-.036-.126,0-.144.018-.144.144,0,.108.036.342.036.918v.576c0,1.548-.036,1.746-.036,1.854,0,.126.018.144.144.144h.828c.126,0,.144-.018.144-.144v-2.5H33.1v2.5c0,.126.018.144.144.144h.828c.126,0,.144-.018.144-.144,0-.09-.036-.306-.036-1.854ZM25.146-10.4c0-.09-.036-.126-.162-.216a4.972,4.972,0,0,0-.936-.5,4.145,4.145,0,0,1-.684.954A9.372,9.372,0,0,1,20.34-8.118a2,2,0,0,1,.522.576c.108.18.162.252.234.252a.638.638,0,0,0,.288-.108A11.707,11.707,0,0,0,24.39-9.72a2.417,2.417,0,0,1,.5-.45C25.038-10.242,25.146-10.314,25.146-10.4Zm4-.216c-.2.144-.216.162-.126.27A12.383,12.383,0,0,0,32.922-7.4a.626.626,0,0,0,.252.108c.072,0,.126-.09.216-.288a2.557,2.557,0,0,1,.45-.666,10.48,10.48,0,0,1-4.032-2.682c-.072-.09-.108-.09-.234,0Zm12.942-3.006c-1.242,0-1.6-.036-1.692-.036-.126,0-.144.018-.144.144v.846c0,.126.018.144.144.144.09,0,.45-.036,1.692-.036H44.64c-.252,5.6-2.88,10.206-7.524,12.546A2.209,2.209,0,0,1,37.8.594c.126.18.18.252.252.252S38.2.792,38.34.72A14.586,14.586,0,0,0,45.288-9.648,15.161,15.161,0,0,0,51.93.72a.516.516,0,0,0,.252.126c.072,0,.126-.072.234-.252a2.856,2.856,0,0,1,.648-.72A14.54,14.54,0,0,1,45.918-11.3a15.515,15.515,0,0,1-.162-2.2c0-.126-.054-.162-.162-.162s-.468.036-1.692.036Zm20.934,2.754c.036-.666.036-1.314.036-1.962a4.507,4.507,0,0,1,.108-1.44.88.88,0,0,0,.144-.414c0-.09-.09-.144-.27-.18a9.587,9.587,0,0,0-1.3-.126,13.487,13.487,0,0,1,.126,2.142c0,.666,0,1.332-.018,1.98H58.716c-1.818,0-2.43-.036-2.52-.036-.126,0-.144.018-.144.144v.846c0,.126.018.144.144.144.09,0,.7-.036,2.52-.036h3.078a15.2,15.2,0,0,1-.828,4.266A10.106,10.106,0,0,1,55.206,0a2.418,2.418,0,0,1,.72.612c.126.144.18.216.27.216a.588.588,0,0,0,.27-.108A11.007,11.007,0,0,0,62.01-5.094a15.813,15.813,0,0,0,.954-4.716h5.328a47.392,47.392,0,0,1-.576,8.064c-.2,1.116-.648,1.368-1.3,1.368a12.929,12.929,0,0,1-2.79-.27A2.879,2.879,0,0,1,63.936.2c.054.378.054.378.414.414a10.858,10.858,0,0,0,2.124.126c1.44,0,2.016-.522,2.358-2.124a49.807,49.807,0,0,0,.612-7.794c0-.5,0-1.044.036-1.566,0-.126-.036-.162-.162-.162-.108,0-.7.036-2.538.036Z" transform="translate(398 2078)" fill="#03728d"/>
      <rect id="bdr-2" data-name="bdr" width="260" height="1" transform="translate(255 2101)" fill="#03728d"/>
    </g>
    <g id="arw" transform="translate(-636 848)">
      <line id="bdr-3" data-name="bdr" x2="16" transform="translate(1109.5 888.5)" fill="none" stroke="#03728d" stroke-linecap="round" stroke-linejoin="round" stroke-width="1"/>
      <path id="arw-2" data-name="arw" d="M544.439,61.6l4,4,4-4" transform="translate(1059.9 1436.939) rotate(-90)" fill="none" stroke="#03728d" stroke-linecap="round" stroke-linejoin="round" stroke-width="1"/>
    </g>
    <g id="step-3" data-name="step" transform="translate(255 -334)">
      <rect id="bdr-4" data-name="bdr" width="260" height="1" transform="translate(255 2039)" fill="#cddfea"/>
      <path id="Path_941" data-name="Path 941" d="M8.5-6.328a17.7,17.7,0,0,1,1.985.1,7.141,7.141,0,0,1,1.4.282,2.773,2.773,0,0,1,.9.465,2.023,2.023,0,0,1,.52.634,2.358,2.358,0,0,1,.238.795,7.7,7.7,0,0,1,.055.952,4.832,4.832,0,0,1-.092.963,2.457,2.457,0,0,1-.326.824,2.416,2.416,0,0,1-.637.667,3.716,3.716,0,0,1-1.025.5,7.87,7.87,0,0,1-1.5.311A17.231,17.231,0,0,1,7.969.264H6.094A18.472,18.472,0,0,1,4.248.183,7.837,7.837,0,0,1,2.886-.062,3.331,3.331,0,0,1,1.941-.48a2.125,2.125,0,0,1-.6-.593,2.189,2.189,0,0,1-.311-.776,4.882,4.882,0,0,1-.088-.963H2.351a2.305,2.305,0,0,0,.19,1.033,1.2,1.2,0,0,0,.63.56,3.612,3.612,0,0,0,1.154.234q.714.048,1.769.048H7.969a14.736,14.736,0,0,0,2.043-.117,4.031,4.031,0,0,0,1.3-.374,1.5,1.5,0,0,0,.681-.67,2.322,2.322,0,0,0,.2-1.007,3.087,3.087,0,0,0-.135-.989,1.155,1.155,0,0,0-.535-.63,3.076,3.076,0,0,0-1.124-.333,14.6,14.6,0,0,0-1.9-.1H6.563a21.858,21.858,0,0,1-2.208-.1,9.032,9.032,0,0,1-1.542-.275,3.27,3.27,0,0,1-1-.447,1.914,1.914,0,0,1-.568-.612A2.145,2.145,0,0,1,1-7.35a6.633,6.633,0,0,1-.059-.912,4.668,4.668,0,0,1,.092-.952,2.123,2.123,0,0,1,.341-.795,2.408,2.408,0,0,1,.681-.634,4.034,4.034,0,0,1,1.11-.465,9.938,9.938,0,0,1,1.63-.282q.952-.1,2.241-.1H8.438q1.055,0,1.846.077a7.637,7.637,0,0,1,1.362.242,3.538,3.538,0,0,1,.948.41,2.026,2.026,0,0,1,.6.586,2.189,2.189,0,0,1,.311.773,4.827,4.827,0,0,1,.088.959H12.188A2.305,2.305,0,0,0,12-9.47a1.2,1.2,0,0,0-.63-.56,3.623,3.623,0,0,0-1.157-.234q-.718-.048-1.772-.048H7.031a22.114,22.114,0,0,0-2.314.1,4.94,4.94,0,0,0-1.436.333,1.439,1.439,0,0,0-.732.63,2.134,2.134,0,0,0-.205.989A3.717,3.717,0,0,0,2.4-7.61a1.2,1.2,0,0,0,.209.5,1.228,1.228,0,0,0,.443.363A2.98,2.98,0,0,0,3.8-6.5a8.372,8.372,0,0,0,1.146.135q.677.04,1.615.04ZM24.422-3.75a7.749,7.749,0,0,1-.176,1.8A2.477,2.477,0,0,1,23.656-.8a2.3,2.3,0,0,1-1.088.615A6.44,6.44,0,0,1,20.906,0a7.494,7.494,0,0,1-1.611-.146,2.36,2.36,0,0,1-1.055-.5,1.956,1.956,0,0,1-.579-.937,5.18,5.18,0,0,1-.176-1.465V-7.28H15.75V-8.437h1.736v-2.307h1.406v2.307h5.3V-7.28h-5.3v4.233A4.256,4.256,0,0,0,19-1.963a1,1,0,0,0,.341.557,1.158,1.158,0,0,0,.619.205q.385.029.941.029.439,0,.787-.015a2.531,2.531,0,0,0,.608-.092,1.185,1.185,0,0,0,.443-.234,1.113,1.113,0,0,0,.3-.443,2.9,2.9,0,0,0,.165-.721A9.413,9.413,0,0,0,23.25-3.75ZM31.5.161a12.53,12.53,0,0,1-2.388-.194,3.766,3.766,0,0,1-1.6-.67,2.685,2.685,0,0,1-.894-1.274,6.173,6.173,0,0,1-.278-2.007,7.923,7.923,0,0,1,.278-2.289,3.037,3.037,0,0,1,.894-1.439,3.521,3.521,0,0,1,1.6-.747A11.479,11.479,0,0,1,31.5-8.672a9.021,9.021,0,0,1,1.74.146A4.592,4.592,0,0,1,34.5-8.1a2.761,2.761,0,0,1,.85.674,3.433,3.433,0,0,1,.513.831,3.7,3.7,0,0,1,.256,1.022,10.505,10.505,0,0,1,.07,1.238l-.117.469H27.75a5.5,5.5,0,0,0,.19,1.586,1.583,1.583,0,0,0,.63.9,2.621,2.621,0,0,0,1.157.363A17.071,17.071,0,0,0,31.5-.937q.967,0,1.6-.055A3.509,3.509,0,0,0,34.107-1.2a1,1,0,0,0,.524-.428,1.483,1.483,0,0,0,.15-.714h1.406a2.59,2.59,0,0,1-.238,1.161,1.793,1.793,0,0,1-.787.776,4.479,4.479,0,0,1-1.447.432A15.2,15.2,0,0,1,31.5.161Zm0-7.661q-.7,0-1.256.029a5.437,5.437,0,0,0-.967.128,2.3,2.3,0,0,0-.707.286,1.672,1.672,0,0,0-.472.439,1.788,1.788,0,0,0-.264.71,6.193,6.193,0,0,0-.084,1.1h7.031A3.943,3.943,0,0,0,34.6-6.149a1.826,1.826,0,0,0-.579-.8A2.285,2.285,0,0,0,33-7.383,8.253,8.253,0,0,0,31.5-7.5ZM43.969-8.672a11.479,11.479,0,0,1,2.388.212,3.66,3.66,0,0,1,1.6.725,2.9,2.9,0,0,1,.894,1.373A7.111,7.111,0,0,1,49.125-4.2a6.843,6.843,0,0,1-.278,2.117,2.809,2.809,0,0,1-.894,1.34,3.7,3.7,0,0,1-1.6.7,11.876,11.876,0,0,1-2.388.205,10.687,10.687,0,0,1-1.677-.11,5.687,5.687,0,0,1-1.1-.275,2.27,2.27,0,0,1-.652-.355,1.412,1.412,0,0,1-.319-.359v3.75H38.813V-8.437h1.406v.784a1.5,1.5,0,0,1,.319-.326,2.29,2.29,0,0,1,.652-.333,6.021,6.021,0,0,1,1.1-.256A11.438,11.438,0,0,1,43.969-8.672Zm0,1.172q-.7,0-1.252.037a4.968,4.968,0,0,0-.967.15,2.081,2.081,0,0,0-.707.33,1.615,1.615,0,0,0-.472.579,3.047,3.047,0,0,0-.267.9,8.378,8.378,0,0,0-.084,1.282,8.584,8.584,0,0,0,.084,1.3,3.054,3.054,0,0,0,.267.9,1.615,1.615,0,0,0,.472.579,2.081,2.081,0,0,0,.707.33,4.8,4.8,0,0,0,.967.146q.549.033,1.252.033.82,0,1.417-.051A4.764,4.764,0,0,0,46.4-1.172a1.811,1.811,0,0,0,.677-.366,1.556,1.556,0,0,0,.4-.6,3.2,3.2,0,0,0,.19-.872q.048-.509.048-1.2t-.048-1.2a3.26,3.26,0,0,0-.19-.879,1.551,1.551,0,0,0-.4-.6,1.891,1.891,0,0,0-.677-.374,4.446,4.446,0,0,0-1.014-.19Q44.789-7.5,43.969-7.5Zm19.554-3.984a12.632,12.632,0,0,1,2.172.157,4.682,4.682,0,0,1,1.454.476,2.4,2.4,0,0,1,.879.8,3.486,3.486,0,0,1,.45,1.135,8.092,8.092,0,0,1,.168,1.472q.026.82.026,1.816t-.026,1.816a8.092,8.092,0,0,1-.168,1.472,3.486,3.486,0,0,1-.45,1.135,2.4,2.4,0,0,1-.879.8,4.682,4.682,0,0,1-1.454.476,12.632,12.632,0,0,1-2.172.157H60.7A12.632,12.632,0,0,1,58.531.077,4.682,4.682,0,0,1,57.078-.4a2.43,2.43,0,0,1-.883-.8,3.436,3.436,0,0,1-.454-1.135,7.9,7.9,0,0,1-.165-1.472q-.022-.82-.022-1.816t.022-1.816a7.9,7.9,0,0,1,.165-1.472,3.436,3.436,0,0,1,.454-1.135,2.43,2.43,0,0,1,.883-.8,4.682,4.682,0,0,1,1.454-.476,12.632,12.632,0,0,1,2.172-.157Zm0,10.547q.938,0,1.575-.055a3.7,3.7,0,0,0,1.055-.223A1.429,1.429,0,0,0,66.8-1.7a2.119,2.119,0,0,0,.33-.835,7.707,7.707,0,0,0,.121-1.278q.018-.758.018-1.813t-.018-1.813a7.707,7.707,0,0,0-.121-1.278,2.119,2.119,0,0,0-.33-.835,1.431,1.431,0,0,0-.641-.483,3.664,3.664,0,0,0-1.055-.223q-.641-.055-1.578-.055H60.7q-.937,0-1.578.055a3.711,3.711,0,0,0-1.058.223,1.429,1.429,0,0,0-.645.483,2.119,2.119,0,0,0-.33.835,7.492,7.492,0,0,0-.117,1.278q-.015.758-.015,1.813t.018,1.813A7.707,7.707,0,0,0,57.1-2.534a2.156,2.156,0,0,0,.326.835,1.4,1.4,0,0,0,.641.483,3.711,3.711,0,0,0,1.058.223q.641.055,1.578.055ZM71.3-1.406q0-.439.022-.875a6.011,6.011,0,0,1,.1-.835,3.676,3.676,0,0,1,.227-.751,2.013,2.013,0,0,1,.41-.619,2.1,2.1,0,0,1,.648-.443,2.934,2.934,0,0,1,.938-.227l7.5-.7a3.359,3.359,0,0,0,.615-.1.844.844,0,0,0,.436-.282,1.441,1.441,0,0,0,.26-.612,5.443,5.443,0,0,0,.088-1.106,4.725,4.725,0,0,0-.088-.989,1.639,1.639,0,0,0-.293-.667,1.289,1.289,0,0,0-.553-.4,3.576,3.576,0,0,0-.868-.205,11.337,11.337,0,0,0-1.23-.077q-.71-.011-1.648-.011-1.289,0-2.172.048a9.494,9.494,0,0,0-1.458.172,2.5,2.5,0,0,0-.883.337,1.245,1.245,0,0,0-.45.553,2.453,2.453,0,0,0-.168.817Q72.7-7.91,72.7-7.266H71.3a6.942,6.942,0,0,1,.194-1.776,3.2,3.2,0,0,1,.571-1.19A2.55,2.55,0,0,1,73-10.957a4.943,4.943,0,0,1,1.285-.374,11.815,11.815,0,0,1,1.626-.135q.9-.018,1.952-.018t1.915.033a11.726,11.726,0,0,1,1.538.15,4.817,4.817,0,0,1,1.176.344,2.287,2.287,0,0,1,.824.619,2.536,2.536,0,0,1,.483.97,5.389,5.389,0,0,1,.157,1.4,7.307,7.307,0,0,1-.1,1.278,2.814,2.814,0,0,1-.366,1,1.964,1.964,0,0,1-.718.681,2.9,2.9,0,0,1-1.157.322l-7.5.7a2.338,2.338,0,0,0-.82.2.88.88,0,0,0-.417.465,2.457,2.457,0,0,0-.15.839q-.018.52-.018,1.311H83.719V0H71.3Z" transform="translate(297 2077)" fill="#738489"/>
      <path id="Path_942" data-name="Path 942" d="M15.912-8.622c0-1.908.036-2.754.036-2.844,0-.126-.018-.144-.144-.144-.09,0-.72.036-2.52.036H9.4a14.667,14.667,0,0,0,.072-1.476,6.269,6.269,0,0,1,.108-1.35,1.38,1.38,0,0,0,.09-.342c0-.09-.054-.162-.2-.18-.4-.054-.81-.09-1.206-.108a11.288,11.288,0,0,1,.108,1.782q0,.837-.054,1.674H4.842c-1.8,0-2.412-.036-2.52-.036-.126,0-.144.018-.144.144,0,.09.036.864.036,2.772v6.768C2.214-.018,2.178.72,2.178.81c0,.126.018.144.144.144H3.2c.126,0,.144-.018.144-.144,0-.09-.036-.846-.036-2.646v-8.73h4.9a8.436,8.436,0,0,1-.522,2.088A8.315,8.315,0,0,1,3.528-4.1a2.467,2.467,0,0,1,.612.612c.108.144.162.216.234.216.054,0,.126-.054.252-.144A9.159,9.159,0,0,0,8.694-8.154a6.834,6.834,0,0,0,.324-.972A10.386,10.386,0,0,0,13.41-3.51c.126.09.2.144.27.144s.126-.072.234-.234a2.331,2.331,0,0,1,.63-.63,9.935,9.935,0,0,1-5.13-6.336h5.4V-.99c0,.522-.18.666-.81.684-.36,0-1.062-.036-1.638-.09a2.27,2.27,0,0,1,.36.846c.09.36.108.36.45.36,1.512,0,2.016-.108,2.3-.342A1.375,1.375,0,0,0,15.948-.72c0-.576-.036-1.44-.036-2.88Zm11.772-.522c.09-.054.144-.108.144-.162,0-.09-.054-.144-.2-.2a9.2,9.2,0,0,0-1.1-.252,4.631,4.631,0,0,1-.756,1.206,16.5,16.5,0,0,1-6.822,4.644,2.11,2.11,0,0,1,.468.612c.09.2.144.288.234.288a.719.719,0,0,0,.288-.108,24.2,24.2,0,0,0,2.448-1.3c0,.252.018.7.018,1.53v1.242c0,2.394-.036,2.772-.036,2.88s.018.126.144.126h.81c.126,0,.144-.018.144-.126V.306h6.984v.846c0,.126.018.144.162.144h.792c.126,0,.144-.018.144-.144,0-.09-.036-.468-.036-2.844V-3.1c0-.72.018-1.134.018-1.368A26.617,26.617,0,0,0,34.218-3.1a.85.85,0,0,0,.252.09c.09,0,.126-.09.216-.306a1.96,1.96,0,0,1,.45-.72A15.864,15.864,0,0,1,27.612-9.09Zm2.772,8.5H23.472V-3.816h6.984ZM24.894-4.77c-.954,0-1.548,0-1.908-.018A15.557,15.557,0,0,0,27-8.406a13.739,13.739,0,0,0,4,3.618c-.36.018-.954.018-1.962.018Zm9.288-7.29c0-.486.036-.738.036-.828,0-.126-.018-.144-.144-.144-.09,0-.72.036-2.484.036H27.4v-.144a3.884,3.884,0,0,1,.09-1.26.694.694,0,0,0,.108-.324c0-.072-.09-.126-.234-.144-.342-.036-.738-.072-1.17-.09a7.731,7.731,0,0,1,.126,1.836V-13H22.392c-1.764,0-2.394-.036-2.484-.036-.126,0-.144.018-.144.144,0,.108.036.342.036.918v.576c0,1.548-.036,1.746-.036,1.854,0,.126.018.144.144.144h.828c.126,0,.144-.018.144-.144v-2.5H33.1v2.5c0,.126.018.144.144.144h.828c.126,0,.144-.018.144-.144,0-.09-.036-.306-.036-1.854ZM25.146-10.4c0-.09-.036-.126-.162-.216a4.972,4.972,0,0,0-.936-.5,4.145,4.145,0,0,1-.684.954A9.372,9.372,0,0,1,20.34-8.118a2,2,0,0,1,.522.576c.108.18.162.252.234.252a.638.638,0,0,0,.288-.108A11.707,11.707,0,0,0,24.39-9.72a2.417,2.417,0,0,1,.5-.45C25.038-10.242,25.146-10.314,25.146-10.4Zm4-.216c-.2.144-.216.162-.126.27A12.383,12.383,0,0,0,32.922-7.4a.626.626,0,0,0,.252.108c.072,0,.126-.09.216-.288a2.557,2.557,0,0,1,.45-.666,10.48,10.48,0,0,1-4.032-2.682c-.072-.09-.108-.09-.234,0ZM52.9-.54c0-.126-.018-.144-.144-.144-.09,0-.594.036-2.178.036H48.924v-1.98h.7c1.638,0,2.16.036,2.268.036.126,0,.144-.018.144-.144v-.63c0-.126-.018-.144-.144-.144-.108,0-.63.036-2.268.036h-.7v-1.89h.7c1.638,0,2.16.036,2.25.036.126,0,.144-.018.144-.162V-6.1c0-.126-.018-.144-.144-.144-.09,0-.612.036-2.25.036h-.7V-8.064h1.224c1.458,0,1.944.036,2.034.036.126,0,.144-.018.144-.144V-8.82c0-.126-.018-.144-.144-.144-.09,0-.576.036-2.034.036H49.086c.18-.378.324-.72.45-1.008a1.305,1.305,0,0,1,.27-.45.308.308,0,0,0,.144-.216c0-.108-.072-.162-.216-.216-.234-.072-.522-.162-.882-.252a4.746,4.746,0,0,1-.234.936c-.144.378-.324.774-.54,1.206H45.756a16.858,16.858,0,0,0,1.368-2.736h4.734v1.548c0,.126.018.144.144.144h.738c.126,0,.144-.018.144-.144,0-.09-.036-.216-.036-1.35v-.414c0-.306.036-.486.036-.576,0-.126-.018-.144-.144-.144-.09,0-.7.036-2.466.036H47.448c.09-.288.18-.558.252-.828a2.328,2.328,0,0,1,.288-.846c.108-.126.162-.18.162-.288,0-.09-.054-.144-.252-.2l-1.026-.2a7.179,7.179,0,0,1-.234,1.566c-.072.27-.144.522-.234.792h-.846c-1.764,0-2.358-.036-2.448-.036-.126,0-.144.018-.144.144,0,.09.036.27.036.648v.36c0,1.152-.036,1.278-.036,1.368,0,.126.018.144.144.144h.72c.126,0,.144-.018.144-.144v-1.584H46.1A14.112,14.112,0,0,1,42.48-6.282a1.8,1.8,0,0,1,.4.594c.054.126.108.18.162.18s.108-.054.18-.126c.414-.45.81-.882,1.17-1.332-.018.576-.036,1.116-.036,1.818v4.5c0,1.3-.036,1.674-.036,1.764,0,.126.018.144.144.144h.72c.126,0,.144-.018.144-.144V.234H50.58c1.584,0,2.088.036,2.178.036.126,0,.144-.018.144-.144ZM47.97-.648H45.324v-1.98H47.97Zm0-2.826H45.324v-1.89H47.97Zm0-2.736H45.324V-8.064H47.97Zm-5.184-7.2c0-.126-.018-.144-.162-.144-.09,0-.486.036-1.8.036h-1.71c-1.314,0-1.71-.036-1.818-.036-.126,0-.144.018-.144.144v.738c0,.126.018.144.144.144.108,0,.5-.036,1.818-.036h.45A14.329,14.329,0,0,1,36.576-5.67a2.369,2.369,0,0,1,.414.648c.072.144.126.216.18.216s.126-.072.2-.18a18.761,18.761,0,0,0,1.08-1.656V-3.51c0,2.772-.036,3.294-.036,3.384,0,.126.018.144.144.144h.7c.126,0,.144-.018.144-.144v-1.6h1.98v.72c0,.108.018.126.144.126h.684c.126,0,.144-.018.144-.126s-.036-.468-.036-3.168V-5.832c0-1.566.036-2.034.036-2.124,0-.126-.018-.144-.144-.144-.09,0-.432.036-1.26.036H39.186a17.536,17.536,0,0,0,1.4-4.5h.234c1.314,0,1.71.036,1.8.036.144,0,.162-.018.162-.144Zm-1.4,10.764H39.4v-4.5h1.98Zm22.9-11.394c-1.638,0-2.16-.036-2.268-.036-.126,0-.144.018-.144.144v.72c0,.126.018.144.144.144.108,0,.63-.036,2.268-.036h.756a8.479,8.479,0,0,1-.414,2.232c-.684-.306-1.386-.558-2.016-.774-.126-.054-.18-.036-.252.108l-.216.468c-.09.18-.108.216.018.252a22.359,22.359,0,0,1,2.106.846A6.525,6.525,0,0,1,60.8-6.894a1.666,1.666,0,0,1,.54.522c.108.18.162.234.252.234a.825.825,0,0,0,.288-.108A7.424,7.424,0,0,0,65.16-9.54c.54.288,1.062.576,1.512.846.126.072.18.072.288-.144l.234-.486c.09-.18.126-.216,0-.27-.522-.288-1.08-.576-1.656-.864a10.149,10.149,0,0,0,.54-2.646h3.168a18.851,18.851,0,0,1-.486,4.77.869.869,0,0,1-.882.486A7.805,7.805,0,0,1,66.33-8.01a2.112,2.112,0,0,1,.252.738c.054.36.072.36.342.4a11.374,11.374,0,0,0,1.206.054A1.588,1.588,0,0,0,69.75-7.83a20.371,20.371,0,0,0,.558-4.932c.018-.378.018-.738.072-1.152,0-.126-.036-.162-.162-.162-.09,0-.648.036-2.3.036ZM60.5-2.934c0-.81.036-1.188.036-1.3,0-.126-.018-.126-.144-.126-.09,0-.432.036-1.548.036H57.51c-1.1,0-1.44-.036-1.53-.036-.144,0-.162,0-.162.126,0,.108.036.522.036,1.6v1.08c0,2.2-.036,2.538-.036,2.628,0,.126.018.144.162.144h.72c.126,0,.144-.018.144-.144V.144h2.682V.72c0,.126.018.144.144.144h.72c.126,0,.144-.018.144-.144,0-.09-.036-.486-.036-2.556Zm-.972,2.2H56.844v-2.7h2.682Zm5.328-2.9a2.251,2.251,0,0,1,.09-.846.607.607,0,0,0,.072-.216c0-.072-.054-.108-.216-.144a8.242,8.242,0,0,0-1.008-.108,11.713,11.713,0,0,1,.072,1.386V-.432c0,.774.288,1.044.648,1.188a4.532,4.532,0,0,0,1.656.2A3.48,3.48,0,0,0,68.022.648C68.616.324,68.76-.2,68.9-1.3c.018-.306.018-.342-.288-.45a2.39,2.39,0,0,1-.666-.36c-.018.972-.09,1.6-.486,1.89a2.33,2.33,0,0,1-1.26.18A2.79,2.79,0,0,1,65.2-.144c-.288-.126-.342-.234-.342-.72Zm-3.708-7.9c0-.126-.018-.144-.144-.144-.108,0-.5.036-1.872.036H57.042c-1.35,0-1.782-.036-1.872-.036-.108,0-.126.018-.126.144v.756c0,.126.018.144.126.144.09,0,.522-.036,1.872-.036H59.13c1.368,0,1.764.036,1.872.036.126,0,.144-.018.144-.144Zm-.54-2.412c0-.126-.018-.144-.144-.144-.09,0-.414.036-1.566.036h-1.4c-1.134,0-1.458-.036-1.566-.036-.126,0-.144.018-.144.144v.72c0,.126.018.144.144.144.108,0,.432-.036,1.566-.036h1.4c1.152,0,1.476.036,1.566.036.126,0,.144-.018.144-.144Zm-.288,7.272c0-.126-.018-.144-.144-.144-.09,0-.4.036-1.458.036H57.582c-1.062,0-1.368-.036-1.458-.036-.126,0-.144.018-.144.144v.7c0,.126.018.144.144.144.09,0,.4-.036,1.458-.036h1.134c1.062,0,1.368.036,1.458.036.126,0,.144-.018.144-.144Zm0-2.412c0-.126-.018-.144-.144-.144-.09,0-.4.036-1.458.036H57.582c-1.062,0-1.368-.036-1.458-.036-.126,0-.144.018-.144.144v.7c0,.126.018.144.144.144.09,0,.4-.036,1.458-.036h1.134c1.062,0,1.368.036,1.458.036.126,0,.144-.018.144-.144Zm1.908,4.86c-.234-.072-.27-.054-.288.09a9.842,9.842,0,0,1-.972,3.186c-.054.108-.054.144.18.27l.432.216c.216.09.234.09.306-.036a11.6,11.6,0,0,0,1.008-3.384c.018-.126,0-.144-.18-.2Zm6.714,0c-.234.108-.252.126-.18.216a11.5,11.5,0,0,1,1.6,3.078c.054.126.072.126.306,0l.432-.216c.216-.126.234-.126.2-.252a13.266,13.266,0,0,0-1.656-2.988c-.09-.126-.108-.126-.306-.018ZM64.728-6.354c-.162.162-.18.162-.054.252a8.913,8.913,0,0,1,2.178,1.89c.09.108.126.072.306-.108l.342-.342c.18-.18.18-.216.072-.324A14.012,14.012,0,0,0,65.358-6.75c-.126-.09-.144-.072-.288.072Z" transform="translate(402 2078)" fill="#738489"/>
      <rect id="bdr-5" data-name="bdr" width="260" height="1" transform="translate(255 2101)" fill="#cddfea"/>
    </g>
    <g id="arw-3" data-name="arw" transform="translate(-319 848)">
      <line id="bdr-6" data-name="bdr" x2="16" transform="translate(1109.5 888.5)" fill="none" stroke="#03728d" stroke-linecap="round" stroke-linejoin="round" stroke-width="1"/>
      <path id="arw-4" data-name="arw" d="M544.439,61.6l4,4,4-4" transform="translate(1059.9 1436.939) rotate(-90)" fill="none" stroke="#03728d" stroke-linecap="round" stroke-linejoin="round" stroke-width="1"/>
    </g>
    <g id="step-4" data-name="step" transform="translate(572 -334)">
      <rect id="bdr-7" data-name="bdr" width="260" height="1" transform="translate(255 2039)" fill="#cddfea"/>
      <path id="Path_943" data-name="Path 943" d="M8.5-6.328a17.7,17.7,0,0,1,1.985.1,7.141,7.141,0,0,1,1.4.282,2.773,2.773,0,0,1,.9.465,2.023,2.023,0,0,1,.52.634,2.358,2.358,0,0,1,.238.795,7.7,7.7,0,0,1,.055.952,4.832,4.832,0,0,1-.092.963,2.457,2.457,0,0,1-.326.824,2.416,2.416,0,0,1-.637.667,3.716,3.716,0,0,1-1.025.5,7.87,7.87,0,0,1-1.5.311A17.231,17.231,0,0,1,7.969.264H6.094A18.472,18.472,0,0,1,4.248.183,7.837,7.837,0,0,1,2.886-.062,3.331,3.331,0,0,1,1.941-.48a2.125,2.125,0,0,1-.6-.593,2.189,2.189,0,0,1-.311-.776,4.882,4.882,0,0,1-.088-.963H2.351a2.305,2.305,0,0,0,.19,1.033,1.2,1.2,0,0,0,.63.56,3.612,3.612,0,0,0,1.154.234q.714.048,1.769.048H7.969a14.736,14.736,0,0,0,2.043-.117,4.031,4.031,0,0,0,1.3-.374,1.5,1.5,0,0,0,.681-.67,2.322,2.322,0,0,0,.2-1.007,3.087,3.087,0,0,0-.135-.989,1.155,1.155,0,0,0-.535-.63,3.076,3.076,0,0,0-1.124-.333,14.6,14.6,0,0,0-1.9-.1H6.563a21.858,21.858,0,0,1-2.208-.1,9.032,9.032,0,0,1-1.542-.275,3.27,3.27,0,0,1-1-.447,1.914,1.914,0,0,1-.568-.612A2.145,2.145,0,0,1,1-7.35a6.633,6.633,0,0,1-.059-.912,4.668,4.668,0,0,1,.092-.952,2.123,2.123,0,0,1,.341-.795,2.408,2.408,0,0,1,.681-.634,4.034,4.034,0,0,1,1.11-.465,9.938,9.938,0,0,1,1.63-.282q.952-.1,2.241-.1H8.438q1.055,0,1.846.077a7.637,7.637,0,0,1,1.362.242,3.538,3.538,0,0,1,.948.41,2.026,2.026,0,0,1,.6.586,2.189,2.189,0,0,1,.311.773,4.827,4.827,0,0,1,.088.959H12.188A2.305,2.305,0,0,0,12-9.47a1.2,1.2,0,0,0-.63-.56,3.623,3.623,0,0,0-1.157-.234q-.718-.048-1.772-.048H7.031a22.114,22.114,0,0,0-2.314.1,4.94,4.94,0,0,0-1.436.333,1.439,1.439,0,0,0-.732.63,2.134,2.134,0,0,0-.205.989A3.717,3.717,0,0,0,2.4-7.61a1.2,1.2,0,0,0,.209.5,1.228,1.228,0,0,0,.443.363A2.98,2.98,0,0,0,3.8-6.5a8.372,8.372,0,0,0,1.146.135q.677.04,1.615.04ZM24.422-3.75a7.749,7.749,0,0,1-.176,1.8A2.477,2.477,0,0,1,23.656-.8a2.3,2.3,0,0,1-1.088.615A6.44,6.44,0,0,1,20.906,0a7.494,7.494,0,0,1-1.611-.146,2.36,2.36,0,0,1-1.055-.5,1.956,1.956,0,0,1-.579-.937,5.18,5.18,0,0,1-.176-1.465V-7.28H15.75V-8.437h1.736v-2.307h1.406v2.307h5.3V-7.28h-5.3v4.233A4.256,4.256,0,0,0,19-1.963a1,1,0,0,0,.341.557,1.158,1.158,0,0,0,.619.205q.385.029.941.029.439,0,.787-.015a2.531,2.531,0,0,0,.608-.092,1.185,1.185,0,0,0,.443-.234,1.113,1.113,0,0,0,.3-.443,2.9,2.9,0,0,0,.165-.721A9.413,9.413,0,0,0,23.25-3.75ZM31.5.161a12.53,12.53,0,0,1-2.388-.194,3.766,3.766,0,0,1-1.6-.67,2.685,2.685,0,0,1-.894-1.274,6.173,6.173,0,0,1-.278-2.007,7.923,7.923,0,0,1,.278-2.289,3.037,3.037,0,0,1,.894-1.439,3.521,3.521,0,0,1,1.6-.747A11.479,11.479,0,0,1,31.5-8.672a9.021,9.021,0,0,1,1.74.146A4.592,4.592,0,0,1,34.5-8.1a2.761,2.761,0,0,1,.85.674,3.433,3.433,0,0,1,.513.831,3.7,3.7,0,0,1,.256,1.022,10.505,10.505,0,0,1,.07,1.238l-.117.469H27.75a5.5,5.5,0,0,0,.19,1.586,1.583,1.583,0,0,0,.63.9,2.621,2.621,0,0,0,1.157.363A17.071,17.071,0,0,0,31.5-.937q.967,0,1.6-.055A3.509,3.509,0,0,0,34.107-1.2a1,1,0,0,0,.524-.428,1.483,1.483,0,0,0,.15-.714h1.406a2.59,2.59,0,0,1-.238,1.161,1.793,1.793,0,0,1-.787.776,4.479,4.479,0,0,1-1.447.432A15.2,15.2,0,0,1,31.5.161Zm0-7.661q-.7,0-1.256.029a5.437,5.437,0,0,0-.967.128,2.3,2.3,0,0,0-.707.286,1.672,1.672,0,0,0-.472.439,1.788,1.788,0,0,0-.264.71,6.193,6.193,0,0,0-.084,1.1h7.031A3.943,3.943,0,0,0,34.6-6.149a1.826,1.826,0,0,0-.579-.8A2.285,2.285,0,0,0,33-7.383,8.253,8.253,0,0,0,31.5-7.5ZM43.969-8.672a11.479,11.479,0,0,1,2.388.212,3.66,3.66,0,0,1,1.6.725,2.9,2.9,0,0,1,.894,1.373A7.111,7.111,0,0,1,49.125-4.2a6.843,6.843,0,0,1-.278,2.117,2.809,2.809,0,0,1-.894,1.34,3.7,3.7,0,0,1-1.6.7,11.876,11.876,0,0,1-2.388.205,10.687,10.687,0,0,1-1.677-.11,5.687,5.687,0,0,1-1.1-.275,2.27,2.27,0,0,1-.652-.355,1.412,1.412,0,0,1-.319-.359v3.75H38.813V-8.437h1.406v.784a1.5,1.5,0,0,1,.319-.326,2.29,2.29,0,0,1,.652-.333,6.021,6.021,0,0,1,1.1-.256A11.438,11.438,0,0,1,43.969-8.672Zm0,1.172q-.7,0-1.252.037a4.968,4.968,0,0,0-.967.15,2.081,2.081,0,0,0-.707.33,1.615,1.615,0,0,0-.472.579,3.047,3.047,0,0,0-.267.9,8.378,8.378,0,0,0-.084,1.282,8.584,8.584,0,0,0,.084,1.3,3.054,3.054,0,0,0,.267.9,1.615,1.615,0,0,0,.472.579,2.081,2.081,0,0,0,.707.33,4.8,4.8,0,0,0,.967.146q.549.033,1.252.033.82,0,1.417-.051A4.764,4.764,0,0,0,46.4-1.172a1.811,1.811,0,0,0,.677-.366,1.556,1.556,0,0,0,.4-.6,3.2,3.2,0,0,0,.19-.872q.048-.509.048-1.2t-.048-1.2a3.26,3.26,0,0,0-.19-.879,1.551,1.551,0,0,0-.4-.6,1.891,1.891,0,0,0-.677-.374,4.446,4.446,0,0,0-1.014-.19Q44.789-7.5,43.969-7.5Zm19.554-3.984a12.632,12.632,0,0,1,2.172.157,4.682,4.682,0,0,1,1.454.476,2.4,2.4,0,0,1,.879.8,3.486,3.486,0,0,1,.45,1.135,8.092,8.092,0,0,1,.168,1.472q.026.82.026,1.816t-.026,1.816a8.092,8.092,0,0,1-.168,1.472,3.486,3.486,0,0,1-.45,1.135,2.4,2.4,0,0,1-.879.8,4.682,4.682,0,0,1-1.454.476,12.632,12.632,0,0,1-2.172.157H60.7A12.632,12.632,0,0,1,58.531.077,4.682,4.682,0,0,1,57.078-.4a2.43,2.43,0,0,1-.883-.8,3.436,3.436,0,0,1-.454-1.135,7.9,7.9,0,0,1-.165-1.472q-.022-.82-.022-1.816t.022-1.816a7.9,7.9,0,0,1,.165-1.472,3.436,3.436,0,0,1,.454-1.135,2.43,2.43,0,0,1,.883-.8,4.682,4.682,0,0,1,1.454-.476,12.632,12.632,0,0,1,2.172-.157Zm0,10.547q.938,0,1.575-.055a3.7,3.7,0,0,0,1.055-.223A1.429,1.429,0,0,0,66.8-1.7a2.119,2.119,0,0,0,.33-.835,7.707,7.707,0,0,0,.121-1.278q.018-.758.018-1.813t-.018-1.813a7.707,7.707,0,0,0-.121-1.278,2.119,2.119,0,0,0-.33-.835,1.431,1.431,0,0,0-.641-.483,3.664,3.664,0,0,0-1.055-.223q-.641-.055-1.578-.055H60.7q-.937,0-1.578.055a3.711,3.711,0,0,0-1.058.223,1.429,1.429,0,0,0-.645.483,2.119,2.119,0,0,0-.33.835,7.492,7.492,0,0,0-.117,1.278q-.015.758-.015,1.813t.018,1.813A7.707,7.707,0,0,0,57.1-2.534a2.156,2.156,0,0,0,.326.835,1.4,1.4,0,0,0,.641.483,3.711,3.711,0,0,0,1.058.223q.641.055,1.578.055ZM81.141-6.328a2.861,2.861,0,0,0,.615-.059.866.866,0,0,0,.436-.231,1.091,1.091,0,0,0,.26-.494,3.331,3.331,0,0,0,.088-.85,4.725,4.725,0,0,0-.088-.989,1.639,1.639,0,0,0-.293-.667,1.289,1.289,0,0,0-.553-.4,3.576,3.576,0,0,0-.868-.205,11.337,11.337,0,0,0-1.23-.077q-.71-.011-1.648-.011-1.289,0-2.172.033a12.529,12.529,0,0,0-1.458.125,2.968,2.968,0,0,0-.883.253,1.05,1.05,0,0,0-.45.421,1.521,1.521,0,0,0-.168.634q-.026.374-.026.879H71.3a4.966,4.966,0,0,1,.194-1.494,2.52,2.52,0,0,1,.571-1,2.485,2.485,0,0,1,.934-.6,5.687,5.687,0,0,1,1.285-.3,15.107,15.107,0,0,1,1.626-.106q.9-.015,1.952-.015t1.915.033a11.726,11.726,0,0,1,1.538.15,4.817,4.817,0,0,1,1.176.344,2.287,2.287,0,0,1,.824.619,2.536,2.536,0,0,1,.483.97,5.389,5.389,0,0,1,.157,1.4,4.879,4.879,0,0,1-.07.894,2.022,2.022,0,0,1-.212.619,1.335,1.335,0,0,1-.363.417,2.551,2.551,0,0,1-.527.3,1.808,1.808,0,0,1,.527.337,1.666,1.666,0,0,1,.363.5,2.652,2.652,0,0,1,.212.7,5.451,5.451,0,0,1,.07.927,5.389,5.389,0,0,1-.157,1.4,2.536,2.536,0,0,1-.483.97,2.287,2.287,0,0,1-.824.619,4.817,4.817,0,0,1-1.176.344A11.726,11.726,0,0,1,79.775.2q-.861.033-1.915.033T75.907.22A13.3,13.3,0,0,1,74.281.1,5.52,5.52,0,0,1,73-.223a2.484,2.484,0,0,1-.934-.641,2.733,2.733,0,0,1-.571-1.062A5.584,5.584,0,0,1,71.3-3.516H72.7q0,.557.029.963a1.884,1.884,0,0,0,.168.692,1.09,1.09,0,0,0,.447.465,2.753,2.753,0,0,0,.883.282,11.193,11.193,0,0,0,1.458.139q.883.037,2.172.037.938,0,1.648-.011a11.337,11.337,0,0,0,1.23-.077,3.576,3.576,0,0,0,.868-.205,1.289,1.289,0,0,0,.553-.4,1.639,1.639,0,0,0,.293-.667,4.725,4.725,0,0,0,.088-.989,4.423,4.423,0,0,0-.088-.985,1.321,1.321,0,0,0-.26-.568.789.789,0,0,0-.436-.256,2.861,2.861,0,0,0-.615-.059H75.984V-6.328Z" transform="translate(297 2077)" fill="#738489"/>
      <path id="Path_944" data-name="Path 944" d="M14-6.768c1.782,0,2.394.036,2.484.036.126,0,.144-.018.144-.144V-7.6c0-.126-.018-.144-.144-.144-.09,0-.7.036-2.484.036H11.448a23.041,23.041,0,0,0,.18-2.682h2c1.728,0,2.286.036,2.394.036.126,0,.144-.018.144-.144v-.72c0-.126-.018-.144-.144-.144-.108,0-.666.036-2.394.036h-.72c.5-.756.954-1.53,1.278-2.142a1.144,1.144,0,0,1,.324-.468c.126-.072.216-.162.216-.27,0-.09-.072-.162-.18-.216a9.107,9.107,0,0,0-1.062-.36,3.936,3.936,0,0,1-.288.918c-.324.7-.828,1.6-1.386,2.538H9.09c-1.728,0-2.3-.036-2.412-.036-.126,0-.126.018-.126.144v.72c0,.126,0,.144.126.144.108,0,.684-.036,2.412-.036h1.476A17.4,17.4,0,0,1,10.44-7.7H8.676C6.894-7.7,6.3-7.74,6.21-7.74c-.126,0-.144.018-.144.144v.72c0,.126.018.144.144.144.09,0,.684-.036,2.466-.036h1.6C9.738-4.59,8.424-3.348,5.94-2.34a1.872,1.872,0,0,1,.522.54c.126.2.162.288.252.288a.626.626,0,0,0,.252-.108c2.358-1.152,3.582-2.448,4.176-4.5A8.821,8.821,0,0,0,16-1.548c.324.126.36.108.486-.234a1.853,1.853,0,0,1,.432-.666,8.444,8.444,0,0,1-5.2-4.32Zm-9.234.63c0-1.116.036-1.584.036-1.674,0-.126-.018-.144-.144-.144-.108,0-.378.036-1.3.036H2.394c-.936,0-1.17-.036-1.242-.036-.126,0-.144.018-.144.144v.792c0,.126.018.144.144.144.072,0,.306-.036,1.242-.036H3.726v4.446A12.354,12.354,0,0,1,2.07-.99,9.14,9.14,0,0,1,.954-.324,6.678,6.678,0,0,0,1.476.63a.26.26,0,0,0,.216.144c.072,0,.144-.036.216-.162a1.816,1.816,0,0,1,.378-.36A20.645,20.645,0,0,0,4.23-1.512,3.378,3.378,0,0,0,5.9.27a12.167,12.167,0,0,0,4.428.576c1.836,0,4.05-.072,6.39-.216.36-.018.36-.018.414-.4a1.885,1.885,0,0,1,.342-.828c-2.664.27-5.256.378-7.56.378a10.129,10.129,0,0,1-3.6-.45A2.8,2.8,0,0,1,4.77-2.448Zm-2.9-7.7c-.2.126-.2.162-.108.27a16.142,16.142,0,0,1,1.98,2.556c.072.126.126.126.324-.018l.468-.36c.18-.144.18-.2.108-.306A17.071,17.071,0,0,0,2.61-14.184c-.09-.072-.144-.072-.288.036ZM7.9-14.22c-.162.072-.2.126-.108.234a10.74,10.74,0,0,1,1.242,2.052c.072.144.09.18.324.054l.45-.234c.216-.108.252-.144.2-.27a11.982,11.982,0,0,0-1.3-2.07c-.09-.108-.09-.108-.288-.018ZM33.282-2.646c0-.828.036-1.206.036-1.314s-.018-.126-.126-.126-.684.036-2.322.036H27.108c-1.656,0-2.232-.036-2.34-.036-.126,0-.144.018-.144.126s.036.486.036,1.494v1.332c0,1.692-.036,2.124-.036,2.214,0,.126.018.144.144.144h.81c.126,0,.144-.018.144-.144V.27H32.2v.756c0,.108.018.126.144.126h.846c.108,0,.126-.018.126-.126s-.036-.54-.036-2.214Zm-1.08,2h-6.48V-3.132H32.2ZM20.916-1.71c0,1.908-.036,2.736-.036,2.826,0,.126.018.144.126.144h.864c.126,0,.144-.018.144-.144,0-.09-.036-.918-.036-2.826v-9.216c.4-.864.72-1.728,1.026-2.592a2,2,0,0,1,.342-.7.37.37,0,0,0,.144-.27c0-.072-.054-.126-.216-.2a6.3,6.3,0,0,0-1.062-.306,5.15,5.15,0,0,1-.234,1.224A18.743,18.743,0,0,1,18.5-7.29a1.969,1.969,0,0,1,.45.7c.054.126.09.2.144.2s.126-.072.234-.2a19.286,19.286,0,0,0,1.6-2.34c-.018.918-.018,1.944-.018,2.646ZM35.028-11.3c0-.126-.018-.144-.162-.144-.09,0-.684.036-2.52.036H25.992c-1.836,0-2.43-.036-2.52-.036-.126,0-.144.018-.144.144v.756c0,.126.018.144.144.144.09,0,.684-.036,2.52-.036h6.354c1.836,0,2.43.036,2.52.036.144,0,.162-.018.162-.144ZM33.1-13.734c0-.126-.018-.144-.162-.144-.09,0-.594.036-2.2.036H27.378c-1.6,0-2.106-.036-2.214-.036-.126,0-.144.018-.144.144V-13c0,.108.018.126.144.126.108,0,.612-.036,2.214-.036h3.366c1.6,0,2.106.036,2.2.036.144,0,.162-.018.162-.126ZM32.94-6.39c0-.126-.018-.144-.144-.144-.09,0-.594.036-2.178.036H27.342c-1.584,0-2.106-.036-2.2-.036-.126,0-.144.018-.144.144v.7c0,.126.018.144.144.144.09,0,.612-.036,2.2-.036h3.276c1.584,0,2.088.036,2.178.036.126,0,.144-.018.144-.144Zm0-2.43c0-.126-.018-.144-.144-.144-.09,0-.594.036-2.178.036H27.342c-1.584,0-2.106-.036-2.2-.036-.126,0-.144.018-.144.144v.7c0,.126.018.144.144.144.09,0,.612-.036,2.2-.036h3.276c1.584,0,2.088.036,2.178.036.126,0,.144-.018.144-.144ZM47.124-5.85h2.79c1.746,0,2.34.036,2.43.036.126,0,.144-.018.144-.162v-.756c0-.126-.018-.144-.144-.144-.09,0-.684.036-2.43.036H40.1c-1.746,0-2.322-.036-2.43-.036-.126,0-.144.018-.144.144v.756c0,.144.018.162.144.162.108,0,.684-.036,2.43-.036h2.25A6.011,6.011,0,0,1,41.13-1.89,7.878,7.878,0,0,1,37.116.234a2.763,2.763,0,0,1,.576.648c.108.2.144.288.252.288a1.535,1.535,0,0,0,.27-.072,7.892,7.892,0,0,0,3.852-2.412A7.119,7.119,0,0,0,43.488-5.85h2.52v4.356c0,1.08.072,1.458.36,1.818.342.4,1.062.5,2.736.5,1.8,0,2.43-.18,3.006-.576.45-.324.666-.918.756-2.142.018-.306.018-.306-.306-.4a2.252,2.252,0,0,1-.72-.36C51.8-1.368,51.7-.81,51.3-.54a3.676,3.676,0,0,1-1.89.306c-1.17,0-1.926-.036-2.106-.27-.18-.216-.18-.576-.18-1.242Zm5.04-6.012c0-.5.036-.774.036-.864,0-.126-.018-.144-.144-.144-.09,0-.72.036-2.484.036H45.4v-.252a5.1,5.1,0,0,1,.072-1.278.768.768,0,0,0,.108-.324c0-.072-.09-.126-.216-.144a10.407,10.407,0,0,0-1.17-.108,8,8,0,0,1,.126,1.854v.252H40.392c-1.764,0-2.394-.036-2.484-.036-.126,0-.144.018-.144.144,0,.09.036.36.036.99v.594c0,1.6-.036,1.818-.036,1.926,0,.126.018.144.144.144h.828c.126,0,.144-.018.144-.144v-2.646h12.2v2.646c0,.126.018.144.144.144h.828c.126,0,.144-.018.144-.144,0-.108-.036-.342-.036-1.926Zm-2.7,2.124c0-.144-.018-.162-.126-.162-.09,0-.648.036-2.34.036H42.966c-1.692,0-2.25-.036-2.34-.036-.126,0-.144.018-.144.162V-9c0,.126.018.144.144.144.09,0,.648-.036,2.34-.036H47c1.692,0,2.25.036,2.34.036.108,0,.126-.018.126-.144ZM59.2-13.86c-1.782,0-2.394-.036-2.484-.036-.126,0-.144.018-.144.144v.846c0,.144.018.162.144.162.09,0,.7-.036,2.484-.036h8.892a30.65,30.65,0,0,1-4.428,3.2c-.324-.036-.7-.072-1.062-.126a12.515,12.515,0,0,1,.162,2.574V-1.4c0,.792-.378,1.1-.99,1.1a21.446,21.446,0,0,1-2.43-.09,2.156,2.156,0,0,1,.378.882c.09.378.09.378.45.378,1.656,0,2.7,0,3.222-.486a1.662,1.662,0,0,0,.576-1.512c0-.414-.036-1.026-.036-2.268V-8.46a36.137,36.137,0,0,0,5.31-3.834,3.05,3.05,0,0,1,.612-.414.286.286,0,0,0,.2-.306c0-.162-.09-.252-.432-.594-.288-.288-.45-.378-.54-.378a.426.426,0,0,0-.18.054,1.292,1.292,0,0,1-.486.072Z" transform="translate(402 2078)" fill="#738489"/>
      <rect id="bdr-8" data-name="bdr" width="260" height="1" transform="translate(255 2101)" fill="#cddfea"/>
    </g>
  </g>
</svg>
